<?xml version="1.0" encoding="utf-8"?>
<!-- Generator: Adobe Illustrator 27.6.1, SVG Export Plug-In . SVG Version: 6.00 Build 0)  -->
<svg version="1.1" id="Camada_1" xmlns="http://www.w3.org/2000/svg" xmlns:xlink="http://www.w3.org/1999/xlink" x="0px" y="0px"
	 viewBox="0 0 956.9 405.7" style="enable-background:new 0 0 956.9 405.7;" xml:space="preserve">
<style type="text/css">
	.st0{fill:#FFFFFF;}
</style>
<g>
	<g>
		<g>
			<path class="st0" d="M320.5,294.8h-22.6c0.4,5.6,4.7,9.4,10.6,9.4c3.3,0,6.2-1.2,8.3-3.5l2.1,2.4c-2.4,2.9-6.2,4.4-10.4,4.4
				c-8.4,0-14.2-5.7-14.2-13.7s5.6-13.7,13.2-13.7s13.1,5.6,13.1,13.7C320.5,294,320.5,294.4,320.5,294.8z M297.9,292.1H317
				c-0.5-5.3-4.3-9-9.6-9C302.2,283.1,298.4,286.8,297.9,292.1z"/>
			<path class="st0" d="M364.3,290.5v16.7h-3.5V303c-1.6,2.8-4.8,4.5-9.3,4.5c-6.1,0-9.8-3.2-9.8-7.8c0-4.2,2.7-7.6,10.4-7.6h8.6
				v-1.6c0-4.6-2.6-7.1-7.6-7.1c-3.5,0-6.8,1.2-9,3.2l-1.6-2.7c2.7-2.3,6.7-3.6,11-3.6C360.4,280,364.3,283.5,364.3,290.5z
				 M360.7,299.1v-4.4h-8.5c-5.2,0-6.9,2.1-6.9,4.8c0,3.1,2.5,5.1,6.8,5.1C356.2,304.6,359.3,302.6,360.7,299.1z"/>
			<path class="st0" d="M372.9,293.7c0-8.1,5.8-13.7,13.9-13.7c4.6,0,8.4,1.8,10.6,5.3l-2.7,1.8c-1.8-2.7-4.7-4-7.8-4
				c-5.9,0-10.2,4.2-10.2,10.5c0,6.4,4.3,10.5,10.2,10.5c3.1,0,6-1.2,7.8-4l2.7,1.8c-2.2,3.5-6,5.3-10.6,5.3
				C378.8,307.5,372.9,301.8,372.9,293.7z"/>
			<path class="st0" d="M426.2,290.5v16.7h-3.5V303c-1.6,2.8-4.8,4.5-9.3,4.5c-6.1,0-9.8-3.2-9.8-7.8c0-4.2,2.7-7.6,10.4-7.6h8.6
				v-1.6c0-4.6-2.6-7.1-7.6-7.1c-3.5,0-6.8,1.2-9,3.2l-1.6-2.7c2.7-2.3,6.7-3.6,11-3.6C422.2,280,426.2,283.5,426.2,290.5z
				 M422.5,299.1v-4.4H414c-5.2,0-6.9,2.1-6.9,4.8c0,3.1,2.5,5.1,6.8,5.1C418,304.6,421.1,302.6,422.5,299.1z"/>
			<path class="st0" d="M462.1,269.1v38.1h-3.5v-5.3c-2.2,3.6-6,5.6-10.4,5.6c-7.7,0-13.4-5.6-13.4-13.7c0-8.2,5.7-13.7,13.4-13.7
				c4.3,0,8,1.8,10.3,5.3v-16.2H462.1z M458.5,293.7c0-6.3-4.3-10.5-10-10.5c-5.7,0-10.1,4.2-10.1,10.5c0,6.3,4.3,10.5,10.1,10.5
				C454.2,304.2,458.5,300,458.5,293.7z"/>
			<path class="st0" d="M497,294.8h-22.6c0.4,5.6,4.7,9.4,10.6,9.4c3.3,0,6.2-1.2,8.3-3.5l2.1,2.4c-2.4,2.9-6.2,4.4-10.4,4.4
				c-8.4,0-14.2-5.7-14.2-13.7S476.4,280,484,280s13.1,5.6,13.1,13.7C497,294,497,294.4,497,294.8z M474.4,292.1h19.1
				c-0.5-5.3-4.3-9-9.6-9C478.7,283.1,474.9,286.8,474.4,292.1z"/>
			<path class="st0" d="M550.3,291.6v15.6h-3.6v-15.3c0-5.7-2.9-8.6-7.7-8.6c-5.5,0-9,3.6-9,9.7v14.2h-3.6v-15.3
				c0-5.7-2.9-8.6-7.8-8.6c-5.5,0-9,3.6-9,9.7v14.2h-3.6v-27h3.5v4.9c1.9-3.2,5.4-5.1,9.9-5.1c4.5,0,8,1.9,9.6,5.7
				c1.9-3.5,5.8-5.7,10.7-5.7C546,280,550.3,283.8,550.3,291.6z"/>
			<path class="st0" d="M560.7,271.7c0-1.4,1.2-2.6,2.7-2.6c1.5,0,2.7,1.1,2.7,2.5c0,1.5-1.1,2.7-2.7,2.7
				C561.8,274.3,560.7,273.1,560.7,271.7z M561.5,280.2h3.6v27h-3.6V280.2z"/>
			<path class="st0" d="M596.9,290.5v16.7h-3.5V303c-1.6,2.8-4.8,4.5-9.3,4.5c-6.1,0-9.8-3.2-9.8-7.8c0-4.2,2.7-7.6,10.4-7.6h8.6
				v-1.6c0-4.6-2.6-7.1-7.6-7.1c-3.5,0-6.8,1.2-9,3.2l-1.6-2.7c2.7-2.3,6.7-3.6,11-3.6C593,280,596.9,283.5,596.9,290.5z
				 M593.3,299.1v-4.4h-8.5c-5.2,0-6.9,2.1-6.9,4.8c0,3.1,2.5,5.1,6.8,5.1C588.8,304.6,591.8,302.6,593.3,299.1z"/>
		</g>
		<g>
			<g>
				<path class="st0" d="M687.8,211.8c-1.3,0-2.3,1.1-2.3,2.9h-6.3c0.1-6.4,3.3-10.2,7.9-10.2c4.2,0,6.2,3.5,8.3,3.5
					c1.3,0,2.3-1.1,2.3-2.9h6.3c-0.1,6.4-3.3,10.2-7.9,10.2C691.9,215.2,689.9,211.8,687.8,211.8z"/>
			</g>
			<g>
				<path class="st0" d="M655.2,258.1l-0.4,1.9c3.2,0.4,4.3,2.3,4.3,4c0,3.4-3.4,5.4-8.6,5.4c-1.7,0-3.8-0.5-4.9-1.1l1.4-4.2
					c0.8,0.3,1.8,0.6,3,0.6c1.7,0,2.4-0.5,2.4-1.2c0-0.6-0.6-1-2.1-1h-2.1l1.2-4.8"/>
			</g>
			<g>
				<path class="st0" d="M164.3,232.5c-1.6-1.6-3.8-2.5-6.5-2.5c-5.2,0-9,3.8-9,9s3.8,9,9,9c2.6,0,4.9-0.9,6.5-2.6l7.2,7.1
					c-3.5,3.5-8.3,5.7-13.6,5.7c-10.6,0-19.2-8.6-19.2-19.2s8.6-19.2,19.2-19.2c5.3,0,10.1,2.1,13.5,5.6L164.3,232.5z"/>
				<path class="st0" d="M178.6,219.8h23.9v8.4h-13.8v6.3H201v8.5h-12.2v7.1h13.8v8.3h-23.9V219.8z"/>
				<path class="st0" d="M237.5,258.3l-18.2-18.2v18.2h-10.1v-38.5h4.1l18.2,18.2v-18.2h10.1v38.5H237.5z"/>
				<path class="st0" d="M248.1,219.7h30.3v10.1h-10.2v28.5h-10.1v-28.5h-10V219.7z"/>
				<path class="st0" d="M307.2,258.3l-6-10.2H295v10.2h-10.1v-38.5h16.2c7.8,0,14.2,6.4,14.2,14.2c0,4.1-1.8,7.8-4.6,10.4l8.2,14
					H307.2z M295,239.3h6.3c3.1,0,5.5-2.4,5.5-5.5s-2.5-5.5-5.5-5.5H295V239.3z"/>
				<path class="st0" d="M340.7,219.8c10.6,0,19.2,8.7,19.2,19.3s-8.6,19.2-19.2,19.2s-19.2-8.6-19.2-19.2S330.1,219.8,340.7,219.8z
					 M340.7,229.9c-5,0-9.1,4.1-9.1,9.2c0,5,4.1,9.2,9.1,9.2c5.1,0,9.2-4.2,9.2-9.2C349.9,234,345.8,229.9,340.7,229.9z"/>
				<path class="st0" d="M389,219.8h14.3c10.6,0,19.2,8.6,19.2,19.2s-8.6,19.2-19.2,19.2H389V219.8z M399.1,248.3h4.3
					c5,0,9.1-4.1,9.1-9.1c0-5-4.1-9.1-9.1-9.1h-4.3V248.3z"/>
				<path class="st0" d="M429,219.8h23.9v8.4h-13.8v6.3h12.2v8.5h-12.2v7.1h13.8v8.3H429V219.8z"/>
				<path class="st0" d="M510.4,258.3l-18.2-18.2v18.2h-10.1v-38.5h4.1l18.2,18.2v-18.2h10.1v38.5H510.4z"/>
				<path class="st0" d="M519.3,258.3l18-38.5h4.6l18.1,38.5h-10.1l-2.4-5h-15.7l-2.3,5H519.3z M535.6,244.7h7.8l-3.9-8.5
					L535.6,244.7z"/>
				<path class="st0" d="M561.1,219.7h30.3v10.1h-10.2v28.5h-10.1v-28.5h-10V219.7z"/>
				<path class="st0" d="M592.5,258.3l18-38.5h4.6l18.1,38.5H623l-2.4-5h-15.7l-2.3,5H592.5z M608.9,244.7h7.8l-3.9-8.5L608.9,244.7
					z"/>
				<path class="st0" d="M660.2,232.5c-1.6-1.6-3.8-2.5-6.5-2.5c-5.2,0-9,3.8-9,9s3.8,9,9,9c2.6,0,4.9-0.9,6.5-2.6l7.2,7.1
					c-3.5,3.5-8.3,5.7-13.6,5.7c-10.6,0-19.2-8.6-19.2-19.2s8.6-19.2,19.2-19.2c5.3,0,10.1,2.1,13.5,5.6L660.2,232.5z"/>
				<path class="st0" d="M672,258.3l18-38.5h4.6l18.1,38.5h-10.1l-2.4-5h-15.7l-2.3,5H672z M688.4,244.7h7.8l-3.9-8.5L688.4,244.7z"
					/>
				<path class="st0" d="M733.4,219.8c10.6,0,19.2,8.7,19.2,19.3s-8.6,19.2-19.2,19.2s-19.2-8.6-19.2-19.2S722.8,219.8,733.4,219.8z
					 M733.4,229.9c-5,0-9.1,4.1-9.1,9.2c0,5,4.1,9.2,9.1,9.2c5.1,0,9.2-4.2,9.2-9.2C742.6,234,738.4,229.9,733.4,229.9z"/>
			</g>
		</g>
		<g>
			<g>
				<path class="st0" d="M325.1,187.8v-87.6h38.7c14,0,25.9,12,25.9,26c0,6-2.2,11.4-5.6,15.8c6,4.8,9.9,12.1,9.9,20.1
					c0,13.9-11.8,25.7-25.7,25.7H325.1z M359.2,134.4c4.2,0,7.6-3.4,7.6-7.6s-3.4-7.6-7.6-7.6h-11.1v15.2H359.2z M363.5,168.9
					c4.2,0,7.6-3.4,7.6-7.6s-3.6-7.6-7.6-7.6h-15.4v15.2H363.5z"/>
				<path class="st0" d="M448.6,100.2c24.2,0,43.8,19.7,43.8,43.9s-19.6,43.7-43.8,43.7s-43.7-19.5-43.7-43.7
					S424.4,100.2,448.6,100.2z M448.6,123.1c-11.4,0-20.8,9.3-20.8,20.9c0,11.4,9.3,20.9,20.8,20.9c11.6,0,20.9-9.5,20.9-20.9
					C469.5,132.5,460.1,123.1,448.6,123.1z"/>
				<path class="st0" d="M571.6,187.8l-41.3-41.5v41.5h-23v-87.6h9.3l41.5,41.3v-41.3h23v87.6H571.6z"/>
				<path class="st0" d="M649.9,157.9c-0.4,20.2-17.2,29.9-34.2,29.9c-2.9,0-16.8-1.4-24.9-9.1c2.8-2.8,8.4-8.4,16.7-16.9
					c1.8,1.8,4.4,2.9,9,2.9c6,0,10.4-3.7,10.4-10.2v-54.3h23V157.9z"/>
				<path class="st0" d="M660.6,187.8l40.9-87.6h10.4l41.2,87.6h-23l-5.4-11.4h-35.9l-5.3,11.4H660.6z M697.8,157h17.9l-8.9-19.3
					L697.8,157z"/>
			</g>
			<g>
				<path class="st0" d="M263,156.1c-4.7,0.3-8.9,3.2-12.8,7.1c-10.4,10.4-16.1,10.4-26.4,0.2c-10.3-10.2-20.4-10-30,0.6
					c-8.2,9.1-15.6,9.3-24.4,0.2c-6.4-6.7-13.4-10.3-22.7-6.7c-1.2,0.5-10.3,5.6-7.7,8.8c2.1,2.7,4.3-1.5,6.2-2.9
					c5.8-4.3,11.5-4.2,17.1,0.5c1.2,1,2.3,2.2,3.4,3.2c11,10.9,20.1,11,31,0.1c9.4-9.4,15.3-9.4,25-0.1
					c11.1,10.7,19.2,10.7,30.4-0.1c8.8-8.5,13.3-8.8,23.2-1.6c1.2,0.9,2.5,2.6,4,1.3c1.9-1.7,0.1-3.2-1-4.5
					C274.7,158.4,269.2,155.9,263,156.1z"/>
				<path class="st0" d="M263,135.2c-4.7,0.3-8.9,3.2-12.8,7.1c-10.4,10.4-16.1,10.4-26.4,0.2c-10.3-10.2-20.4-10-30,0.6
					c-8.2,9.1-15.6,9.3-24.4,0.2c-6.4-6.7-13.4-10.3-22.7-6.7c-1.2,0.5-10.3,5.6-7.7,8.8c2.1,2.7,4.3-1.5,6.2-2.9
					c5.8-4.3,11.5-4.2,17.1,0.5c1.2,1,2.3,2.2,3.4,3.2c11,10.9,20.1,11,31,0.1c9.4-9.4,15.3-9.4,25-0.1
					c11.1,10.7,19.2,10.7,30.4-0.1c8.8-8.5,13.3-8.8,23.2-1.6c1.2,0.9,2.5,2.6,4,1.3c1.9-1.7,0.1-3.2-1-4.5
					C274.7,137.4,269.2,135,263,135.2z"/>
				<path class="st0" d="M263,114.2c-4.7,0.3-8.9,3.2-12.8,7.1c-10.4,10.4-16.1,10.4-26.4,0.2c-10.3-10.2-20.4-10-30,0.6
					c-8.2,9.1-15.6,9.3-24.4,0.2c-6.4-6.7-13.4-10.3-22.7-6.7c-1.2,0.5-10.3,5.6-7.7,8.8c2.1,2.7,4.3-1.5,6.2-2.9
					c5.8-4.3,11.5-4.2,17.1,0.5c1.2,1,2.3,2.2,3.4,3.2c11,10.9,20.1,11,31,0.1c9.4-9.4,15.3-9.4,25-0.1
					c11.1,10.7,19.2,10.7,30.4-0.1c8.8-8.5,13.3-8.8,23.2-1.6c1.2,0.9,2.5,2.6,4,1.3c1.9-1.7,0.1-3.2-1-4.5
					C274.7,116.4,269.2,114,263,114.2z"/>
			</g>
		</g>
	</g>
</g>
</svg>
