<?xml version="1.0" encoding="utf-8"?>
<!-- Generator: Adobe Illustrator 27.6.1, SVG Export Plug-In . SVG Version: 6.00 Build 0)  -->
<svg version="1.1" id="Layer_1" xmlns="http://www.w3.org/2000/svg" xmlns:xlink="http://www.w3.org/1999/xlink" x="0px" y="0px"
	 viewBox="0 0 841.9 183.5" style="enable-background:new 0 0 841.9 183.5;" xml:space="preserve">
<style type="text/css">
	.st0{fill:#FFFFFF;}
	.st1{fill-rule:evenodd;clip-rule:evenodd;fill:#FFFFFF;}
</style>
<g>
	<g>
		<path class="st0" d="M191,129.9c0.1-0.2,0.2-0.4,0.5-0.4h2.6c0.3,0,0.4,0.2,0.5,0.4l9.4,26.6c0.1,0.2,0,0.4-0.3,0.4h-2.8
			c-0.3,0-0.4-0.1-0.5-0.4l-2.1-6h-11.1l-2.1,6c-0.1,0.3-0.3,0.4-0.5,0.4h-2.8c-0.2,0-0.4-0.2-0.3-0.4L191,129.9z M197.1,147.3
			l-4.3-12.4h-0.1l-4.4,12.4H197.1z"/>
		<path class="st0" d="M207.6,154.5c-0.2-0.2-0.2-0.4,0-0.6l1.7-1.8c0.2-0.2,0.4-0.2,0.6,0c1.5,1.2,3.6,2.2,6,2.2
			c2.8,0,4.2-1.2,4.2-2.9c0-1.5-0.7-2.4-3.7-2.7l-2.1-0.2c-3.8-0.4-5.8-2.3-5.8-5.4c0-3.7,2.6-5.9,7.2-5.9c2.8,0,5.2,0.9,6.8,2.1
			c0.2,0.1,0.2,0.4,0.1,0.6l-1.4,1.7c-0.2,0.2-0.4,0.2-0.6,0.1c-1.2-0.8-3.2-1.6-5.2-1.6c-2.4,0-3.7,1.1-3.7,2.7
			c0,1.5,0.9,2.3,3.8,2.6l2,0.2c3.9,0.4,5.8,2.3,5.8,5.4c0,3.8-2.7,6.3-7.8,6.3C211.8,157.4,209.2,155.8,207.6,154.5z"/>
		<path class="st0" d="M228,154.5c-0.2-0.2-0.2-0.4,0-0.6l1.7-1.8c0.2-0.2,0.4-0.2,0.6,0c1.5,1.2,3.6,2.2,6,2.2
			c2.8,0,4.2-1.2,4.2-2.9c0-1.5-0.7-2.4-3.7-2.7l-2.1-0.2c-3.8-0.4-5.8-2.3-5.8-5.4c0-3.7,2.6-5.9,7.2-5.9c2.8,0,5.2,0.9,6.8,2.1
			c0.2,0.1,0.2,0.4,0.1,0.6l-1.4,1.7c-0.2,0.2-0.4,0.2-0.6,0.1c-1.2-0.8-3.2-1.6-5.2-1.6c-2.4,0-3.7,1.1-3.7,2.7
			c0,1.5,0.9,2.3,3.8,2.6l2,0.2c3.9,0.4,5.8,2.3,5.8,5.4c0,3.8-2.7,6.3-7.8,6.3C232.3,157.4,229.6,155.8,228,154.5z"/>
		<path class="st0" d="M249.3,152.2c-0.4-1.3-0.6-2.7-0.6-4.9c0-2.2,0.2-3.5,0.6-4.9c1-3.3,3.9-5.2,7.6-5.2c3.7,0,6.6,1.9,7.6,5.2
			c0.4,1.3,0.6,2.7,0.6,4.9c0,2.3-0.2,3.6-0.6,4.9c-1,3.3-3.9,5.2-7.6,5.2C253.1,157.4,250.3,155.4,249.3,152.2z M261.2,151.2
			c0.3-1,0.4-2.1,0.4-3.9c0-1.9-0.1-2.9-0.4-3.9c-0.6-1.9-2.2-3-4.4-3c-2.1,0-3.7,1.1-4.4,3c-0.3,1-0.4,2.1-0.4,3.9
			c0,1.9,0.1,2.9,0.4,3.9c0.6,1.9,2.2,3,4.4,3C259,154.2,260.6,153.1,261.2,151.2z"/>
		<path class="st0" d="M270.7,142.4c1.1-3.3,3.9-5.2,7.6-5.2c2.9,0,5.2,1.2,6.6,3.3c0.1,0.2,0.1,0.4-0.1,0.6l-1.8,1.5
			c-0.2,0.2-0.4,0.2-0.6,0c-1.1-1.4-2.2-2.1-4.1-2.1c-2.1,0-3.7,1-4.3,3c-0.3,1-0.4,2.2-0.4,3.9c0,1.7,0.1,2.9,0.4,3.9
			c0.6,2,2.2,3,4.3,3c1.9,0,3-0.7,4.1-2.1c0.2-0.2,0.4-0.2,0.6,0l1.8,1.5c0.2,0.2,0.2,0.4,0.1,0.6c-1.4,2-3.7,3.3-6.6,3.3
			c-3.7,0-6.5-1.9-7.6-5.2c-0.4-1.2-0.6-2.7-0.6-4.9C270.1,145.1,270.3,143.6,270.7,142.4z"/>
		<path class="st0" d="M291.3,133.3c-0.2,0-0.4-0.2-0.4-0.4v-2.9c0-0.2,0.2-0.4,0.4-0.4h2.7c0.2,0,0.4,0.2,0.4,0.4v2.9
			c0,0.2-0.2,0.4-0.4,0.4H291.3z M291.4,156.9c-0.2,0-0.4-0.2-0.4-0.4V138c0-0.2,0.2-0.4,0.4-0.4h2.6c0.2,0,0.4,0.2,0.4,0.4v18.5
			c0,0.2-0.2,0.4-0.4,0.4H291.4z"/>
		<path class="st0" d="M313.3,156.9c-0.2,0-0.4-0.2-0.4-0.4v-1.7h0c-0.9,1.4-2.8,2.5-5.7,2.5c-3.7,0-6.5-1.9-6.5-5.8
			c0-4.1,2.8-6,7.5-6h4.4c0.2,0,0.2-0.1,0.2-0.2V144c0-2.7-1-3.8-4.6-3.8c-2.2,0-3.5,0.6-4.7,1.4c-0.2,0.2-0.4,0.2-0.6,0l-1.1-1.9
			c-0.1-0.2-0.1-0.4,0.1-0.6c1.5-1.1,3.7-1.9,6.6-1.9c5.5,0,7.6,1.8,7.6,6.6v12.8c0,0.2-0.2,0.4-0.4,0.4H313.3z M312.8,150.7v-2.1
			c0-0.2-0.1-0.2-0.2-0.2h-3.9c-3.3,0-4.8,1-4.8,3.1c0,2,1.5,3,4,3C311,154.5,312.8,153.1,312.8,150.7z"/>
		<path class="st0" d="M326.9,163.1c-0.2,0-0.4-0.2-0.3-0.4l2.1-5.4c-2.9-0.4-5.2-2.2-6.1-5.1c-0.4-1.2-0.6-2.7-0.6-4.9
			c0-2.1,0.2-3.7,0.6-4.9c1.1-3.3,3.9-5.2,7.6-5.2c2.9,0,5.2,1.2,6.6,3.3c0.1,0.2,0.1,0.4-0.1,0.6l-1.8,1.5c-0.2,0.2-0.4,0.2-0.6,0
			c-1.1-1.4-2.2-2.1-4.1-2.1c-2.1,0-3.7,1-4.3,3c-0.3,1-0.4,2.2-0.4,3.9c0,1.7,0.1,2.9,0.4,3.9c0.6,2,2.2,3,4.3,3
			c1.9,0,3-0.7,4.1-2.1c0.2-0.2,0.4-0.2,0.6,0l1.8,1.5c0.2,0.2,0.2,0.4,0.1,0.6c-1.2,1.7-3,2.9-5.4,3.2l-1.7,5.4
			c-0.1,0.3-0.3,0.4-0.6,0.4H326.9z"/>
		<path class="st0" d="M354.1,156.9c-0.2,0-0.4-0.2-0.4-0.4v-1.7h0c-0.9,1.4-2.8,2.5-5.7,2.5c-3.7,0-6.5-1.9-6.5-5.8
			c0-4.1,2.8-6,7.5-6h4.4c0.2,0,0.2-0.1,0.2-0.2V144c0-2.7-1-3.8-4.6-3.8c-2.2,0-3.5,0.6-4.7,1.4c-0.2,0.2-0.4,0.2-0.6,0l-1.1-1.9
			c-0.1-0.2-0.1-0.4,0.1-0.6c1.5-1.1,3.7-1.9,6.6-1.9c5.5,0,7.6,1.8,7.6,6.6v12.8c0,0.2-0.2,0.4-0.4,0.4H354.1z M349.3,132.9
			c-0.7-0.4-1.3-0.7-2.1-0.7c-1,0-1.8,0.6-2.5,1.3c-0.2,0.2-0.3,0.1-0.3-0.1v-1.9c0-0.3,0-0.4,0.3-0.7c0.7-0.7,1.7-1.3,2.7-1.3
			c1,0,1.7,0.4,2.5,0.8c0.7,0.4,1.3,0.7,2.1,0.7c1,0,1.8-0.6,2.5-1.3c0.2-0.2,0.3-0.1,0.3,0.1v1.9c0,0.3,0,0.4-0.3,0.7
			c-0.7,0.7-1.7,1.3-2.7,1.3C350.8,133.7,350.1,133.4,349.3,132.9z M353.6,150.7v-2.1c0-0.2-0.1-0.2-0.2-0.2h-3.9
			c-3.3,0-4.8,1-4.8,3.1c0,2,1.5,3,4,3C351.8,154.5,353.6,153.1,353.6,150.7z"/>
		<path class="st0" d="M363.5,152.2c-0.4-1.3-0.6-2.7-0.6-4.9c0-2.2,0.2-3.5,0.6-4.9c1-3.3,3.9-5.2,7.6-5.2c3.7,0,6.6,1.9,7.6,5.2
			c0.4,1.3,0.6,2.7,0.6,4.9c0,2.3-0.2,3.6-0.6,4.9c-1,3.3-3.9,5.2-7.6,5.2C367.4,157.4,364.6,155.4,363.5,152.2z M375.5,151.2
			c0.3-1,0.4-2.1,0.4-3.9c0-1.9-0.1-2.9-0.4-3.9c-0.6-1.9-2.2-3-4.4-3c-2.1,0-3.7,1.1-4.4,3c-0.3,1-0.4,2.1-0.4,3.9
			c0,1.9,0.1,2.9,0.4,3.9c0.6,1.9,2.2,3,4.4,3C373.3,154.2,374.8,153.1,375.5,151.2z"/>
		<path class="st0" d="M395.9,129.9c0-0.2,0.2-0.4,0.4-0.4h16.5c0.2,0,0.4,0.2,0.4,0.4v2.5c0,0.2-0.2,0.4-0.4,0.4h-13.1
			c-0.2,0-0.2,0.1-0.2,0.2v8.1c0,0.2,0.1,0.2,0.2,0.2h11.1c0.2,0,0.4,0.2,0.4,0.4v2.5c0,0.2-0.2,0.4-0.4,0.4h-11.1
			c-0.2,0-0.2,0.1-0.2,0.2v8.3c0,0.2,0.1,0.2,0.2,0.2h13.1c0.2,0,0.4,0.2,0.4,0.4v2.5c0,0.2-0.2,0.4-0.4,0.4h-16.5
			c-0.2,0-0.4-0.2-0.4-0.4V129.9z"/>
		<path class="st0" d="M431.3,156.9c-0.2,0-0.4-0.2-0.4-0.4v-1.9h0c-0.9,1.5-2.6,2.7-5.5,2.7c-3.3,0-5.7-1.6-6.6-4.6
			c-0.5-1.5-0.7-3.1-0.7-5.5c0-2.4,0.2-3.9,0.7-5.4c1-3.1,3.3-4.6,6.6-4.6c2.9,0,4.6,1.1,5.5,2.7h0v-9.9c0-0.2,0.2-0.4,0.4-0.4h2.6
			c0.2,0,0.4,0.2,0.4,0.4v26.6c0,0.2-0.2,0.4-0.4,0.4H431.3z M430.5,151.3c0.3-0.9,0.4-2.1,0.4-4c0-1.9-0.1-3.1-0.4-4
			c-0.6-1.9-2.1-2.9-4.3-2.9c-2.1,0-3.6,1-4.2,2.9c-0.3,1-0.4,2.3-0.4,4c0,1.8,0.1,3,0.4,4c0.6,1.9,2.1,2.9,4.2,2.9
			C428.3,154.2,429.8,153.2,430.5,151.3z"/>
		<path class="st0" d="M453.7,156.9c-0.2,0-0.4-0.2-0.4-0.4v-1.8h0c-1,1.6-2.8,2.7-5.3,2.7c-4.2,0-6.7-2.9-6.7-7.3v-12
			c0-0.2,0.2-0.4,0.4-0.4h2.6c0.2,0,0.4,0.2,0.4,0.4v11.2c0,3.1,1.4,5,4.3,5c2.6,0,4.4-1.9,4.4-4.8V138c0-0.2,0.2-0.4,0.4-0.4h2.6
			c0.2,0,0.4,0.2,0.4,0.4v18.5c0,0.2-0.2,0.4-0.4,0.4H453.7z"/>
		<path class="st0" d="M463.4,142.4c1.1-3.3,3.9-5.2,7.6-5.2c2.9,0,5.2,1.2,6.6,3.3c0.1,0.2,0.1,0.4-0.1,0.6l-1.8,1.5
			c-0.2,0.2-0.4,0.2-0.6,0c-1.1-1.4-2.2-2.1-4.2-2.1c-2.1,0-3.7,1-4.3,3c-0.3,1-0.4,2.2-0.4,3.9c0,1.7,0.1,2.9,0.4,3.9
			c0.6,2,2.2,3,4.3,3c1.9,0,3-0.7,4.2-2.1c0.2-0.2,0.4-0.2,0.6,0l1.8,1.5c0.2,0.2,0.2,0.4,0.1,0.6c-1.4,2-3.7,3.3-6.6,3.3
			c-3.7,0-6.5-1.9-7.6-5.2c-0.4-1.2-0.6-2.7-0.6-4.9C462.8,145.1,463.1,143.6,463.4,142.4z"/>
		<path class="st0" d="M494.9,156.9c-0.2,0-0.4-0.2-0.4-0.4v-1.7h0c-0.9,1.4-2.8,2.5-5.7,2.5c-3.7,0-6.5-1.9-6.5-5.8
			c0-4.1,2.8-6,7.5-6h4.4c0.2,0,0.2-0.1,0.2-0.2V144c0-2.7-1-3.8-4.6-3.8c-2.2,0-3.5,0.6-4.7,1.4c-0.2,0.2-0.4,0.2-0.6,0l-1.1-1.9
			c-0.1-0.2-0.1-0.4,0.1-0.6c1.5-1.1,3.7-1.9,6.6-1.9c5.5,0,7.6,1.8,7.6,6.6v12.8c0,0.2-0.2,0.4-0.4,0.4H494.9z M494.4,150.7v-2.1
			c0-0.2-0.1-0.2-0.2-0.2h-3.9c-3.3,0-4.8,1-4.8,3.1c0,2,1.5,3,4,3C492.5,154.5,494.4,153.1,494.4,150.7z"/>
		<path class="st0" d="M504.2,142.4c1.1-3.3,3.9-5.2,7.6-5.2c2.9,0,5.2,1.2,6.6,3.3c0.1,0.2,0.1,0.4-0.1,0.6l-1.8,1.5
			c-0.2,0.2-0.4,0.2-0.6,0c-1.1-1.4-2.2-2.1-4.1-2.1c-2.1,0-3.7,1-4.3,3c-0.3,1-0.4,2.2-0.4,3.9c0,1.7,0.1,2.9,0.4,3.9
			c0.6,2,2.2,3,4.3,3c1.9,0,3-0.7,4.1-2.1c0.2-0.2,0.4-0.2,0.6,0l1.8,1.5c0.2,0.2,0.2,0.4,0.1,0.6c-1.4,2-3.7,3.3-6.6,3.3
			c-3.7,0-6.5-1.9-7.6-5.2c-0.4-1.2-0.6-2.7-0.6-4.9C503.6,145.1,503.9,143.6,504.2,142.4z"/>
		<path class="st0" d="M524.8,133.3c-0.2,0-0.4-0.2-0.4-0.4v-2.9c0-0.2,0.2-0.4,0.4-0.4h2.7c0.2,0,0.4,0.2,0.4,0.4v2.9
			c0,0.2-0.2,0.4-0.4,0.4H524.8z M524.9,156.9c-0.2,0-0.4-0.2-0.4-0.4V138c0-0.2,0.2-0.4,0.4-0.4h2.6c0.2,0,0.4,0.2,0.4,0.4v18.5
			c0,0.2-0.2,0.4-0.4,0.4H524.9z"/>
		<path class="st0" d="M534.6,152.2c-0.4-1.3-0.6-2.7-0.6-4.9c0-2.2,0.2-3.5,0.6-4.9c1-3.3,3.9-5.2,7.6-5.2c3.7,0,6.6,1.9,7.6,5.2
			c0.4,1.3,0.6,2.7,0.6,4.9c0,2.3-0.2,3.6-0.6,4.9c-1,3.3-3.9,5.2-7.6,5.2C538.5,157.4,535.7,155.4,534.6,152.2z M546.6,151.2
			c0.3-1,0.4-2.1,0.4-3.9c0-1.9-0.1-2.9-0.4-3.9c-0.6-1.9-2.2-3-4.4-3c-2.1,0-3.7,1.1-4.4,3c-0.3,1-0.4,2.1-0.4,3.9
			c0,1.9,0.1,2.9,0.4,3.9c0.6,1.9,2.2,3,4.4,3C544.4,154.2,546,153.1,546.6,151.2z"/>
		<path class="st0" d="M569.2,156.9c-0.2,0-0.4-0.2-0.4-0.4v-11.3c0-3.1-1.4-4.9-4.3-4.9c-2.6,0-4.4,1.9-4.4,4.7v11.5
			c0,0.2-0.2,0.4-0.4,0.4H557c-0.2,0-0.4-0.2-0.4-0.4V138c0-0.2,0.2-0.4,0.4-0.4h2.6c0.2,0,0.4,0.2,0.4,0.4v1.8h0
			c0.9-1.5,2.8-2.6,5.4-2.6c4.2,0,6.7,2.9,6.7,7.3v12.1c0,0.2-0.2,0.4-0.4,0.4H569.2z"/>
		<path class="st0" d="M590.9,156.9c-0.2,0-0.4-0.2-0.4-0.4v-1.7h0c-0.9,1.4-2.8,2.5-5.7,2.5c-3.7,0-6.5-1.9-6.5-5.8
			c0-4.1,2.8-6,7.5-6h4.4c0.2,0,0.2-0.1,0.2-0.2V144c0-2.7-1-3.8-4.6-3.8c-2.2,0-3.5,0.6-4.7,1.4c-0.2,0.2-0.4,0.2-0.6,0l-1.1-1.9
			c-0.1-0.2-0.1-0.4,0.1-0.6c1.5-1.1,3.7-1.9,6.6-1.9c5.5,0,7.6,1.8,7.6,6.6v12.8c0,0.2-0.2,0.4-0.4,0.4H590.9z M590.4,150.7v-2.1
			c0-0.2-0.1-0.2-0.2-0.2h-3.9c-3.3,0-4.8,1-4.8,3.1c0,2,1.5,3,4,3C588.6,154.5,590.4,153.1,590.4,150.7z"/>
		<path class="st0" d="M605.5,157.1c-3.4,0-4.7-1.6-4.7-5.1v-22.1c0-0.2,0.2-0.4,0.4-0.4h2.6c0.2,0,0.4,0.2,0.4,0.4v21.9
			c0,1.6,0.6,2.1,1.9,2.1h0.8c0.2,0,0.4,0.2,0.4,0.4v2.3c0,0.2-0.2,0.4-0.4,0.4H605.5z"/>
		<path class="st0" d="M623.1,129.9c0-0.2,0.2-0.4,0.4-0.4h2.8c0.2,0,0.4,0.2,0.4,0.4v23.4c0,0.2,0.1,0.2,0.2,0.2H640
			c0.2,0,0.4,0.2,0.4,0.4v2.5c0,0.2-0.2,0.4-0.4,0.4h-16.5c-0.2,0-0.4-0.2-0.4-0.4V129.9z"/>
		<path class="st0" d="M657.5,156.9c-0.2,0-0.4-0.2-0.4-0.4v-1.8h0c-1,1.6-2.8,2.7-5.3,2.7c-4.2,0-6.7-2.9-6.7-7.3v-12
			c0-0.2,0.2-0.4,0.4-0.4h2.6c0.2,0,0.4,0.2,0.4,0.4v11.2c0,3.1,1.4,5,4.3,5c2.6,0,4.4-1.9,4.4-4.8V138c0-0.2,0.2-0.4,0.4-0.4h2.6
			c0.2,0,0.4,0.2,0.4,0.4v18.5c0,0.2-0.2,0.4-0.4,0.4H657.5z"/>
		<path class="st0" d="M673.4,157.1c-3.7,0-5.2-1.7-5.2-5.5v-11c0-0.2-0.1-0.2-0.2-0.2h-1.6c-0.2,0-0.4-0.2-0.4-0.4V138
			c0-0.2,0.2-0.4,0.4-0.4h1.6c0.2,0,0.2-0.1,0.2-0.2V132c0-0.2,0.2-0.4,0.4-0.4h2.6c0.2,0,0.4,0.2,0.4,0.4v5.4
			c0,0.2,0.1,0.2,0.2,0.2h3.1c0.2,0,0.4,0.2,0.4,0.4v1.9c0,0.2-0.2,0.4-0.4,0.4h-3.1c-0.2,0-0.2,0.1-0.2,0.2v10.9
			c0,1.9,0.7,2.5,2.5,2.5h0.8c0.2,0,0.4,0.2,0.4,0.4v2.3c0,0.2-0.2,0.4-0.4,0.4H673.4z"/>
		<path class="st0" d="M680.7,152.1c-0.4-1.2-0.6-2.7-0.6-4.9c0-2.2,0.2-3.7,0.6-4.9c1.1-3.3,3.9-5.2,7.6-5.2c3.7,0,6.5,1.9,7.6,5.2
			c0.4,1.2,0.6,2.6,0.6,5.5c0,0.2-0.2,0.4-0.4,0.4h-12.2c-0.2,0-0.2,0.1-0.2,0.2c0,1,0.1,1.7,0.3,2.3c0.8,2.2,2.5,3.3,4.9,3.3
			c2.3,0,3.9-0.9,5-2.1c0.2-0.2,0.4-0.2,0.6-0.1l1.7,1.5c0.2,0.2,0.2,0.4,0,0.6c-1.5,1.9-4.2,3.3-7.5,3.3
			C684.5,157.4,681.7,155.5,680.7,152.1z M692.7,145.6c0.2,0,0.2-0.1,0.2-0.2c0-0.9-0.1-1.6-0.3-2.2c-0.6-1.9-2.3-3-4.4-3
			c-2.2,0-3.8,1.1-4.4,3c-0.2,0.6-0.3,1.3-0.3,2.2c0,0.2,0.1,0.2,0.2,0.2H692.7z"/>
		<path class="st0" d="M702.9,156.9c-0.2,0-0.4-0.2-0.4-0.4V138c0-0.2,0.2-0.4,0.4-0.4h2.6c0.2,0,0.4,0.2,0.4,0.4v2h0
			c0.8-1.7,2.5-2.8,5.1-2.8c1.5,0,3,0.6,3.9,1.5c0.2,0.2,0.2,0.4,0.1,0.6l-1.5,2c-0.2,0.2-0.4,0.2-0.6,0.1c-0.9-0.6-1.9-0.9-3-0.9
			c-2.9,0-4.1,2.3-4.1,5.6v10.6c0,0.2-0.2,0.4-0.4,0.4H702.9z"/>
		<path class="st0" d="M730.4,156.9c-0.2,0-0.4-0.2-0.4-0.4v-1.7h0c-0.9,1.4-2.8,2.5-5.7,2.5c-3.7,0-6.5-1.9-6.5-5.8
			c0-4.1,2.8-6,7.5-6h4.4c0.2,0,0.2-0.1,0.2-0.2V144c0-2.7-1-3.8-4.6-3.8c-2.2,0-3.5,0.6-4.7,1.4c-0.2,0.2-0.4,0.2-0.6,0l-1.1-1.9
			c-0.1-0.2-0.1-0.4,0.1-0.6c1.5-1.1,3.7-1.9,6.6-1.9c5.5,0,7.6,1.8,7.6,6.6v12.8c0,0.2-0.2,0.4-0.4,0.4H730.4z M729.9,150.7v-2.1
			c0-0.2-0.1-0.2-0.2-0.2h-3.9c-3.3,0-4.8,1-4.8,3.1c0,2,1.5,3,4,3C728.1,154.5,729.9,153.1,729.9,150.7z"/>
		<path class="st0" d="M752.9,156.9c-0.2,0-0.4-0.2-0.4-0.4v-11.3c0-3.1-1.4-4.9-4.3-4.9c-2.6,0-4.4,1.9-4.4,4.7v11.5
			c0,0.2-0.2,0.4-0.4,0.4h-2.6c-0.2,0-0.4-0.2-0.4-0.4V138c0-0.2,0.2-0.4,0.4-0.4h2.6c0.2,0,0.4,0.2,0.4,0.4v1.8h0
			c0.9-1.5,2.8-2.6,5.4-2.6c4.2,0,6.7,2.9,6.7,7.3v12.1c0,0.2-0.2,0.4-0.4,0.4H752.9z"/>
		<path class="st0" d="M774.6,156.9c-0.2,0-0.4-0.2-0.4-0.4v-1.7h0c-0.9,1.4-2.8,2.5-5.7,2.5c-3.7,0-6.5-1.9-6.5-5.8
			c0-4.1,2.8-6,7.5-6h4.4c0.2,0,0.2-0.1,0.2-0.2V144c0-2.7-1-3.8-4.6-3.8c-2.2,0-3.5,0.6-4.7,1.4c-0.2,0.2-0.4,0.2-0.6,0l-1.1-1.9
			c-0.1-0.2-0.1-0.4,0.1-0.6c1.5-1.1,3.7-1.9,6.6-1.9c5.5,0,7.6,1.8,7.6,6.6v12.8c0,0.2-0.2,0.4-0.4,0.4H774.6z M774.1,150.7v-2.1
			c0-0.2-0.1-0.2-0.2-0.2H770c-3.3,0-4.8,1-4.8,3.1c0,2,1.5,3,4,3C772.3,154.5,774.1,153.1,774.1,150.7z"/>
	</g>
	<path class="st0" d="M70.9,77.5c-0.3-1.3-0.4-2.7-0.4-4c0-0.5-0.2-1-0.2-1.5c0,0,0-0.1,0-0.1l0,0c0-0.1,0-0.2,0-0.2
		c0-1.6,0.2-3.1,0.5-4.7c0.2-0.9,0.5-1.9,0.8-2.8c0.2-0.6,0.3-1.2,0.5-1.7c0.5-1.2,1-2.3,1.6-3.5c0.1-0.2,0.2-0.4,0.3-0.6
		c0.8-1.3,1.7-2.5,2.6-3.7c-1.2-1.2-2.4-2.4-3.8-3.3c-0.4-0.3-0.8-0.4-1.2-0.7c-1.6-0.9-3.3-1.7-5.1-2.3c-2.5-0.8-5-1.3-7.7-1.3
		c-13.7,0-24.8,11-24.8,24.6c0,8.2,4.1,15.8,10.9,20.4c2.2-2.2,4.8-3.9,7.6-5.3c4.4-2.5,9.5-4.1,14.9-4.1c1.8,0,3.5,0.2,5.3,0.5
		c-0.1-0.1-0.1-0.3-0.2-0.5c-0.5-1-0.8-2.2-1.1-3.3C71.3,78.8,71.1,78.2,70.9,77.5z"/>
	<path class="st0" d="M135.2,47.2c-2.7,0-5.2,0.5-7.7,1.3c-1.8,0.6-3.5,1.4-5.1,2.3c-0.4,0.2-0.8,0.4-1.2,0.7
		c-1.4,0.9-2.6,2.1-3.8,3.3c0.3,0.4,0.5,0.8,0.8,1.2c0.4,0.6,0.9,1.1,1.2,1.7c0.7,1.1,1.3,2.3,1.9,3.5c0.1,0.2,0.2,0.4,0.3,0.6
		c1.4,3.2,2.2,6.7,2.2,10.3c0,3.9-0.9,7.7-2.5,11.2c1.7-0.3,3.4-0.5,5.3-0.5c4.3,0,8.3,0.9,12,2.6c3.9,1.6,7.5,3.9,10.5,6.9
		c6.8-4.5,11-12.1,11-20.4C160,58.2,148.9,47.2,135.2,47.2z"/>
	<path class="st0" d="M113.5,51.1c0.8-0.7,1.6-1.3,2.4-1.9c0.5-0.4,1-0.8,1.5-1.2c1-0.7,2.1-1.4,3.2-2c1-0.6,2-1.1,3.1-1.5
		c0.6-0.3,1.2-0.7,1.8-0.9c-1.8-12.9-14.2-23.1-28.6-23.1c-14.4,0-26.8,10.2-28.6,23.1c0.6,0.2,1.2,0.6,1.8,0.9
		c1.1,0.4,2.1,0.9,3.1,1.5c1.1,0.6,2.2,1.3,3.2,2c0.6,0.4,1.1,0.9,1.6,1.3c0.8,0.6,1.6,1.2,2.3,1.8c4.5-3.6,10.2-5.8,16.5-5.8
		C103.3,45.2,109,47.5,113.5,51.1z"/>
	<path class="st0" d="M42.7,112.5c0,2.3,0.3,4.6,0.9,6.8c3.8-1.6,7.9-2.4,12.1-2.4c11.1,0,21.4,5.8,27.1,15.1
		c6.1-4.7,9.6-11.8,9.6-19.5c0-10-6.1-18.7-14.9-22.5c-7.3-3-16-2.2-23.1,1.6C47.4,96,42.7,103.7,42.7,112.5z"/>
	<path class="st0" d="M101.6,112.5c0,7.7,3.6,14.8,9.6,19.5c5.7-9.3,16.1-15.1,27.1-15.1c4.3,0,8.3,0.8,12.1,2.4
		c0.6-2.2,0.9-4.5,0.9-6.8c0-8.9-4.8-16.6-11.9-21c-7-3.8-15.6-4.5-23-1.6C107.8,93.8,101.6,102.5,101.6,112.5z"/>
	<path class="st0" d="M100.1,93.6c10.4-1.6,18.5-10.5,18.5-21.3c0-1.1-0.3-2.2-0.5-3.4h-18V93.6z"/>
	<path class="st0" d="M75.9,68.9c-0.2,1.2-0.4,2.3-0.4,3.4c0,10.7,8.1,19.6,18.4,21.3V68.9H75.9z"/>
	<path class="st0" d="M94,51.1c-7.1,1.1-13,5.6-16.1,11.7H94V51.1z"/>
	<path class="st0" d="M116.1,62.8c-3.1-6.2-9-10.6-16.1-11.8v11.8H116.1z"/>
	<path class="st1" d="M508.6,88.6h1.4c0.5,2.2,1.6,4,3.2,5.4c1.6,1.4,3.7,2.1,6.5,2.2c2.3,0,4.2-0.7,5.7-2c1.5-1.3,2.3-3,2.3-5.2
		c0-1.9-0.7-3.6-2-5c-1.4-1.4-3.7-2.8-7.1-4.2c-2.6-1.1-4.7-2.3-6.4-3.6c-1.7-1.3-2.9-2.8-3.8-4.6c-0.9-1.8-1.3-3.9-1.3-6.4
		c0-2.6,0.6-5.1,1.7-7.3c1.2-2.2,3-4,5.4-5.4c2.5-1.3,5.5-2,9.1-2c2,0,4,0.3,6,0.9c2,0.6,3.6,1.4,4.7,2.4c-0.3,1.1-0.7,2.2-1.1,3.4
		c-0.4,1.2-0.8,2.4-1.1,3.5h-1c-0.5-1.7-1.5-3.1-2.8-4.2c-1.4-1.2-3.1-1.7-5.1-1.7c-5.1,0-7.7,2.3-7.7,6.9c0,2.6,2,5,6.1,7l5.1,2.6
		c3.8,1.9,6.5,4,7.9,6.4c1.4,2.4,2.1,5,2.1,7.9c-0.1,2.4-0.6,4.5-1.7,6.4c-1,1.9-2.4,3.4-4.2,4.7c-1.8,1.3-3.8,2.2-6,2.9
		c-2.2,0.6-4.5,0.9-6.7,0.9c-4.4-0.1-8.1-1.1-11.1-3C507.5,94.4,508.2,91.5,508.6,88.6 M455.7,81.4V51.8c1.9,0.3,3.6,0.4,5.2,0.4
		c1.6,0,3.4-0.1,5.3-0.4v26.8c0,2.5,0.2,4.7,0.6,6.9c0.4,2.2,1,3.8,1.7,5c2.3,3.5,5.7,5.3,10.1,5.3c2.5,0,4.5-0.4,6-1.1
		c1.6-0.7,3-1.9,4.3-3.6c1.4-1.9,2.2-4.2,2.6-6.9c0.4-2.7,0.5-5.6,0.5-8.8V51.8c0.3,0,0.8,0.1,1.4,0.1c0.6,0.1,1.1,0.1,1.3,0.1
		c0.3,0,0.8-0.1,1.4-0.1c0.6,0,1.1-0.1,1.5-0.1v25.3c0,4.1-0.3,7.7-1,10.6c-0.7,3-1.9,5.3-3.9,7.1c-1.4,1.2-2.8,2.3-4.2,3.1
		c-1.4,0.8-3.1,1.5-4.9,1.9c-1.9,0.5-4.1,0.7-6.6,0.7c-7.3,0-12.9-1.9-16.8-5.7C457.2,91.5,455.7,87.1,455.7,81.4z M419.7,88.6h1.4
		c0.5,2.2,1.6,4,3.2,5.4c1.6,1.4,3.7,2.1,6.5,2.2c2.3,0,4.2-0.7,5.7-2c1.5-1.3,2.3-3,2.3-5.2c0-1.9-0.7-3.6-2-5
		c-1.4-1.4-3.7-2.8-7.1-4.2c-2.6-1.1-4.7-2.3-6.4-3.6c-1.7-1.3-2.9-2.8-3.8-4.6c-0.9-1.8-1.3-3.9-1.3-6.4c0-2.6,0.6-5.1,1.7-7.3
		c1.2-2.2,3-4,5.4-5.4c2.5-1.3,5.5-2,9.1-2c2,0,4,0.3,6,0.9c2,0.6,3.6,1.4,4.7,2.4c-0.3,1.1-0.7,2.2-1.1,3.4
		c-0.4,1.2-0.8,2.4-1.1,3.5h-1c-0.5-1.7-1.5-3.1-2.8-4.2c-1.4-1.2-3.1-1.7-5.1-1.7c-5.1,0-7.7,2.3-7.7,6.9c0,2.6,2,5,6.1,7l5.1,2.6
		c3.8,1.9,6.5,4,7.9,6.4c1.4,2.4,2.1,5,2.1,7.9c-0.1,2.4-0.6,4.5-1.7,6.4c-1,1.9-2.5,3.4-4.3,4.7c-1.8,1.3-3.8,2.2-6,2.9
		c-2.2,0.6-4.5,0.9-6.7,0.9c-4.4-0.1-8.1-1.1-11.1-3C418.6,94.4,419.3,91.5,419.7,88.6z M385.5,99.2V51.8h26.7
		c-0.2,0.7-0.4,1.7-0.6,3.1c0.1,0.7,0.3,1.7,0.4,2.9c-4.8-0.6-9.3-0.9-13.7-0.9H396v14.9h9c2.7,0,5-0.2,6.7-0.6
		c-0.1,0.7-0.2,1.3-0.2,1.9c-0.1,0.5-0.1,1-0.2,1.4c0.2,0.9,0.3,1.9,0.4,2.9c-2.2-0.5-5-0.7-8.4-0.7H396v17.7c5.5,0,10.9-0.3,16.1-1
		c-0.3,1.3-0.4,2.4-0.6,3.3c0.2,0.8,0.3,1.7,0.4,2.7H385.5z M364,91.9V51.8c1.3,0.1,3,0.2,5.2,0.4c0.5,0,1.1-0.1,1.7-0.1
		c0.6,0,1.2-0.1,1.8-0.1c0.6,0,1.2-0.1,1.7-0.1v39.5c0,3.5-0.3,6.3-1,8.5c-0.6,2.1-1.9,4.1-3.7,5.9c-2.6,2.5-6.2,4-10.8,4.6
		l-1.1-3.3c1.9-0.5,3.2-1.4,4.1-2.8c0.9-1.4,1.4-3,1.7-4.9C363.9,97.5,364,95,364,91.9z M278,99.7c1.2-7.1,2.5-14.8,3.7-23.2
		c1.3-8.4,2.4-16.6,3.5-24.7c0.4,0.1,0.9,0.1,1.5,0.2c0.6,0.1,1,0.2,1.3,0.2c1.4-0.2,2.3-0.3,2.9-0.4c3.6,7.7,8.9,18.7,16,32.8
		c1.5-2.8,2.9-5.7,4.4-8.5c1.4-2.8,2.7-5.3,3.8-7.5c1.1-2.2,2.4-4.8,4-8c1.5-3.2,3-6.1,4.2-8.8c0.5,0.1,1.5,0.2,3,0.4
		c0.7-0.1,1.7-0.2,2.9-0.4c0.6,5.2,1,9.4,1.4,12.7c0.4,3.3,0.8,6.9,1.3,10.7c0.5,3.8,1,7.7,1.5,11.6c0.5,3.9,1.1,8.2,1.8,12.8
		c-1.8-0.3-3.7-0.4-5.7-0.4c-1.9,0-3.8,0.1-5.7,0.4c-0.1-2.6-0.3-5.2-0.5-7.9c-0.2-2.7-0.4-5-0.6-6.9c-0.2-1.9-0.5-4.7-0.9-8.3
		c-0.4-3.6-0.7-6.8-1-9.4c-5.6,11.3-10.8,22-15.5,32.1H304h-1.2c-0.9-1.9-2.2-4.7-4.1-8.5c-1.8-3.8-3.2-6.6-4.2-8.6
		c-0.9-1.9-2.2-4.4-3.6-7.4c-1.5-3-2.6-5.3-3.4-6.9c-0.5,3.1-0.9,6.8-1.4,11c-0.5,4.3-0.8,8.2-1.1,11.8c-0.3,3.6-0.4,6.6-0.5,9.1
		c-0.7-0.1-1.2-0.2-1.6-0.2c-0.4-0.1-1-0.1-1.7-0.2C279.8,99.5,278.7,99.6,278,99.7z M261.9,74.1c0-3.8-0.6-7.1-1.8-10.1
		c-1.2-3-2.8-5.3-5-6.9c-2.2-1.7-4.7-2.5-7.6-2.5h-0.1c-5.3,0.1-9.2,2.3-11.7,6.5c-2.5,4.2-3.8,9.7-3.8,16.6c0.1,3.9,0.8,7.2,2.1,10
		c1.3,2.8,3,4.9,5.2,6.4c2.2,1.4,4.5,2.1,7.1,2.1c4,0,7.2-1.3,9.5-3.7c2.3-2.5,3.9-5.4,4.8-8.8C261.5,80.3,261.9,77.1,261.9,74.1z
		 M220.3,75.7c0.1-3,0.6-6,1.7-8.9c1-2.9,2.6-5.6,4.7-8.1c2.1-2.5,4.9-4.4,8.3-5.9c3.4-1.5,7.4-2.2,12.1-2.2c4.5,0,8.4,0.6,11.7,2
		c3.4,1.3,6.2,3.1,8.3,5.4c2.2,2.3,3.8,4.9,4.9,7.9c1.1,3,1.6,6.2,1.6,9.5c0,3.9-0.7,7.4-2.1,10.4c-1.4,3-3.3,5.6-5.8,7.7
		c-2.5,2.1-5.4,3.8-8.7,4.9c-3.3,1.1-6.9,1.8-10.9,2c-3.5,0-7.3-0.7-11.2-2c-3.9-1.4-7.4-3.8-10.3-7.4c-2.9-3.6-4.4-8.3-4.4-14.4
		C220.2,76.4,220.3,76.1,220.3,75.7z M202.2,63.2c0-5-2.6-7.6-7.9-7.6c-0.8,0-1.9,0.1-3.1,0.3v16.4c1.9,0,3.2,0,3.9-0.1
		c1.5-0.1,2.8-0.6,3.9-1.5c1.1-0.9,1.9-1.9,2.4-3.2C202,66.1,202.2,64.7,202.2,63.2z M202.9,86.1c0-6.4-3.2-9.7-9.6-9.7h-2v18.7h3.9
		c1.1,0,2.3-0.4,3.5-1.1c1.2-0.7,2.2-1.8,3-3.2C202.5,89.5,202.9,87.9,202.9,86.1z M180.7,99.2V51.8h18.9c2.6,0,4.8,0.4,6.8,1.3
		c2,0.9,3.5,2.1,4.6,3.7c1.1,1.6,1.6,3.5,1.6,5.6c-0.3,5.9-4.1,9.6-11.4,11v0.7c2.2,0.2,4.2,0.7,6.1,1.4c1.9,0.8,3.4,2,4.6,3.6
		c1.2,1.6,1.8,3.8,1.8,6.4c0,1.9-0.4,3.7-1.1,5.4c-0.7,1.7-1.8,3.1-3.3,4.4c-1.5,1.3-3.3,2.2-5.6,2.9c-2.2,0.7-4.8,1-7.7,1H180.7z"
		/>
	<path class="st1" d="M793.1,37.1v4.5h1.6c1.8,0,3-0.1,3.6-0.3c0.4-0.1,0.8-0.4,1.1-0.8c0.3-0.4,0.4-0.8,0.4-1.2
		c0-0.6-0.2-1.2-0.7-1.6c-0.5-0.4-1.6-0.7-3.5-0.7H793.1z M791.5,35.8h5c1.8,0,3.1,0.3,3.9,1c0.8,0.7,1.2,1.5,1.2,2.5
		c0,1-0.4,1.9-1.2,2.6c-0.6,0.5-1.5,0.8-2.6,1c0.5,0.2,0.9,0.5,1.1,0.7c0.2,0.2,0.5,0.6,1,1.2c0.4,0.6,0.8,1.1,1,1.5l1.3,2.3h-2
		l-1.2-2.1c-1-1.6-1.7-2.6-2.2-2.9c-0.5-0.3-1.3-0.5-2.4-0.5h-1.1v5.6h-1.7V35.8z M806.5,42.6c0-2.9-1-5.4-3.1-7.5
		c-2.1-2.1-4.6-3.1-7.5-3.1c-2.9,0-5.4,1-7.5,3.1c-2.1,2.1-3.1,4.6-3.1,7.5c0,2.9,1,5.4,3.1,7.5c2.1,2.1,4.6,3.1,7.5,3.1
		c2.9,0,5.4-1,7.5-3.1C805.4,48,806.5,45.5,806.5,42.6z M807.8,42.6c0,3.3-1.2,6.1-3.5,8.4c-2.3,2.3-5.1,3.5-8.4,3.5
		s-6.1-1.2-8.4-3.5c-2.3-2.3-3.5-5.1-3.5-8.4c0-3.3,1.2-6.1,3.5-8.4c2.3-2.3,5.1-3.5,8.4-3.5s6.1,1.2,8.4,3.5
		C806.6,36.5,807.8,39.3,807.8,42.6z"/>
	<path class="st1" d="M735.6,77.8c0.1-6.9,1.6-12.3,4.7-16.2c3-3.9,6.6-6.6,10.6-8c4-1.4,7.9-2.1,11.6-2.1c3.4,0,6.3,0.4,9,1.1
		c2.6,0.7,4.5,1.5,5.7,2.3c-0.5,1.9-1.1,4.2-1.7,7.1h-0.9c-1.5-2.1-3.3-3.7-5.2-4.7c-2-1.1-4-1.6-6.2-1.6c-3.1,0-5.8,0.8-8.3,2.5
		c-2.5,1.7-4.4,4.1-5.8,7.3c-1.4,3.2-2.1,6.9-2.1,11.3c0,3.8,0.6,7.2,1.9,10.2c1.2,3,3.1,5.3,5.6,7.1c2.5,1.7,5.5,2.6,9.1,2.6
		c2,0,4.1-0.5,6.4-1.4c2.3-0.9,4.2-2.1,5.7-3.7l1,0.4l-1.6,5.9c-3.5,2-8,2.9-13.6,2.9c-4,0-7.6-0.6-10.8-1.8c-3.2-1.2-6-2.9-8.2-5
		c-2.3-2.1-4-4.6-5.1-7.4C736.2,83.7,735.6,80.8,735.6,77.8 M704.4,89.1h1.4c0.5,2.2,1.6,4,3.1,5.3c1.6,1.4,3.7,2.1,6.4,2.2
		c2.3,0,4.1-0.7,5.6-2c1.5-1.3,2.3-3,2.3-5.1c0-1.9-0.7-3.6-2-5c-1.3-1.4-3.7-2.8-7-4.2c-2.5-1.1-4.6-2.3-6.3-3.5
		c-1.6-1.2-2.9-2.7-3.8-4.5c-0.9-1.8-1.3-3.9-1.3-6.3c0-2.6,0.6-5,1.7-7.2c1.1-2.2,2.9-4,5.3-5.3c2.4-1.3,5.4-2,9-2c2,0,4,0.3,6,0.9
		c2,0.6,3.5,1.4,4.7,2.3c-0.3,1.1-0.7,2.2-1.1,3.3c-0.4,1.2-0.8,2.3-1.1,3.5h-1c-0.5-1.7-1.5-3.1-2.8-4.2c-1.3-1.1-3-1.7-5-1.7
		c-5.1,0-7.6,2.3-7.6,6.9c0,2.6,2,4.9,6,6.9l5.1,2.5c3.8,1.8,6.4,3.9,7.8,6.3c1.4,2.4,2.1,5,2.1,7.8c-0.1,2.4-0.6,4.5-1.6,6.3
		c-1,1.8-2.4,3.4-4.2,4.7c-1.8,1.3-3.7,2.2-5.9,2.8c-2.2,0.6-4.4,0.9-6.6,0.9c-4.3-0.1-8-1.1-11-2.9C703.4,94.7,704,91.8,704.4,89.1
		z M652.3,81.9V52.7c1.9,0.3,3.5,0.4,5.1,0.4c1.6,0,3.3-0.1,5.2-0.4v26.4c0,2.4,0.2,4.7,0.6,6.8c0.4,2.1,0.9,3.7,1.7,4.9
		c2.3,3.5,5.6,5.2,10,5.2c2.4,0,4.4-0.4,6-1.1c1.5-0.7,2.9-1.9,4.2-3.6c1.4-1.9,2.2-4.1,2.6-6.8c0.4-2.6,0.5-5.5,0.5-8.7V52.7
		c0.3,0,0.8,0.1,1.4,0.1c0.6,0.1,1,0.1,1.3,0.1c0.3,0,0.8-0.1,1.4-0.1c0.6,0,1.1-0.1,1.4-0.1v25c0,4.1-0.3,7.6-1,10.5
		c-0.7,2.9-1.9,5.3-3.8,7c-1.4,1.2-2.7,2.3-4.2,3.1c-1.4,0.8-3,1.4-4.9,1.9c-1.9,0.4-4,0.7-6.5,0.7c-7.2,0-12.7-1.9-16.5-5.6
		C653.7,91.9,652.3,87.5,652.3,81.9z M617.4,52.7c1.8,0.1,3.5,0.2,5.1,0.4c0.2,0,0.8-0.1,2.1-0.2c1.2-0.1,2.3-0.2,3.2-0.2v41.9
		c4.5,0,9.8-0.3,15.9-1c-0.2,0.8-0.4,1.8-0.6,3.1c0.2,0.8,0.3,1.8,0.4,2.8h-26V52.7z M582.9,99.5V52.7h26.3
		c-0.2,0.7-0.4,1.7-0.6,3.1c0.1,0.7,0.3,1.6,0.4,2.8c-4.7-0.6-9.2-0.9-13.5-0.9h-2.3v14.7h8.9c2.7,0,4.9-0.2,6.6-0.6
		c-0.1,0.7-0.2,1.3-0.2,1.9c-0.1,0.5-0.1,1-0.2,1.4c0.2,0.9,0.3,1.8,0.4,2.8c-2.2-0.5-4.9-0.7-8.3-0.7h-7.2v17.4
		c5.4,0,10.7-0.3,15.9-1c-0.3,1.3-0.4,2.3-0.6,3.2c0.2,0.8,0.3,1.7,0.4,2.7H582.9z M561.1,52.7c1.1,0.1,2.8,0.2,5.1,0.4
		c2.3-0.2,4-0.3,5.1-0.4v47.2c-1.8-0.3-3.6-0.4-5.3-0.4c-1.5,0-3.1,0.1-4.8,0.4V52.7z"/>
</g>
</svg>
