<?xml version="1.0" encoding="utf-8"?>
<!-- Generator: Adobe Illustrator 27.6.1, SVG Export Plug-In . SVG Version: 6.00 Build 0)  -->
<svg version="1.1" id="Layer_1" xmlns="http://www.w3.org/2000/svg" xmlns:xlink="http://www.w3.org/1999/xlink" x="0px" y="0px"
	 viewBox="0 0 595.3 353.7" style="enable-background:new 0 0 595.3 353.7;" xml:space="preserve">
<style type="text/css">
	.st0{fill:#FFFFFF;}
	.st1{fill:#1C3F86;}
	.st2{fill:#2681C4;}
</style>
<g>
	<g>
		<path class="st0" d="M393.2,167.5c-0.9,1.2-1.9,2.2-3,3.1c-1.1,0.8-2.4,1.4-3.7,1.9c-1.3,0.4-2.7,0.6-4.1,0.6
			c-1.7,0-3.1-0.3-4.4-0.9c-1.3-0.6-2.4-1.4-3.3-2.5c-0.6-0.8-1.1-1.6-1.3-2.4c-0.3-0.9-0.4-1.8-0.4-2.8c0-1,0.1-2.1,0.3-3.3
			c0.2-1.2,0.4-2.6,0.7-4.1c0.3-1.5,0.5-2.9,0.8-4.1c0.3-1.2,0.6-2.3,0.9-3.3c0.4-1,0.8-1.9,1.4-2.8c0.6-0.9,1.3-1.7,2.2-2.4
			c1.3-1.1,2.7-1.9,4.2-2.5c1.5-0.6,3.1-0.9,4.7-0.9c2.9,0,5.2,0.8,6.9,2.5c1.7,1.7,2.6,4.1,2.5,7.2h-4.9c-0.1-1.6-0.6-2.9-1.4-3.9
			c-0.9-1-2.2-1.5-4-1.5c-0.9,0-1.8,0.2-2.7,0.5c-0.9,0.3-1.6,0.8-2.3,1.4c-0.5,0.4-0.9,0.9-1.2,1.4c-0.3,0.5-0.6,1.1-0.9,1.8
			c-0.3,0.7-0.5,1.6-0.8,2.7c-0.3,1.1-0.5,2.4-0.8,4c-0.3,1.6-0.5,2.9-0.6,4c-0.1,1.1-0.2,2-0.2,2.7c0,0.7,0.1,1.3,0.2,1.8
			c0.2,0.5,0.4,0.9,0.7,1.3c0.5,0.6,1,1.1,1.8,1.4c0.7,0.3,1.6,0.5,2.5,0.5c1.8,0,3.3-0.5,4.5-1.5c1.2-1,2.2-2.3,2.9-3.9h4.8
			C394.8,164.9,394,166.3,393.2,167.5z"/>
		<path class="st0" d="M424.3,161.1c-0.3,1.2-0.6,2.3-0.9,3.3c-0.4,1-0.8,1.9-1.4,2.8c-0.6,0.9-1.3,1.7-2.2,2.4
			c-1.3,1.1-2.7,1.9-4.2,2.5c-1.5,0.6-3.1,0.9-4.8,0.9c-1.7,0-3.2-0.3-4.4-0.9c-1.3-0.6-2.3-1.4-3.2-2.5c-0.6-0.8-1.1-1.6-1.3-2.4
			c-0.3-0.9-0.4-1.8-0.4-2.8c0-1,0.1-2.1,0.3-3.3c0.2-1.2,0.4-2.6,0.7-4.1c0.3-1.5,0.5-2.9,0.8-4.1c0.3-1.2,0.6-2.3,0.9-3.3
			c0.4-1,0.8-1.9,1.4-2.8c0.6-0.9,1.3-1.7,2.2-2.4c1.3-1.1,2.7-1.9,4.2-2.5c1.5-0.6,3.1-0.9,4.7-0.9c1.7,0,3.2,0.3,4.4,0.9
			c1.3,0.6,2.4,1.4,3.3,2.5c0.6,0.8,1.1,1.6,1.3,2.4c0.3,0.9,0.4,1.8,0.4,2.8c0,1-0.1,2.1-0.3,3.3c-0.2,1.2-0.4,2.6-0.7,4.1
			C424.8,158.5,424.6,159.9,424.3,161.1z M421,153c0.1-1,0.2-1.9,0.2-2.7c0-0.7-0.1-1.3-0.2-1.8c-0.2-0.5-0.4-0.9-0.7-1.3
			c-0.5-0.6-1.1-1.1-1.8-1.4c-0.7-0.4-1.6-0.5-2.5-0.5c-0.9,0-1.9,0.2-2.7,0.5c-0.9,0.4-1.6,0.8-2.3,1.4c-0.5,0.4-0.9,0.9-1.2,1.3
			c-0.3,0.5-0.6,1.1-0.9,1.8c-0.3,0.7-0.5,1.6-0.7,2.7c-0.2,1-0.5,2.4-0.8,4c-0.3,1.6-0.5,2.9-0.7,4c-0.1,1-0.2,1.9-0.2,2.7
			c0,0.7,0.1,1.3,0.2,1.8c0.2,0.5,0.4,0.9,0.7,1.4c0.5,0.6,1.1,1.1,1.8,1.4s1.6,0.5,2.5,0.5c0.9,0,1.9-0.2,2.7-0.5
			c0.9-0.4,1.6-0.8,2.3-1.4c0.5-0.4,0.9-0.9,1.2-1.4c0.3-0.5,0.6-1.1,0.9-1.8c0.3-0.7,0.5-1.6,0.7-2.7c0.2-1,0.5-2.4,0.8-4
			C420.6,155.4,420.8,154.1,421,153z"/>
		<path class="st0" d="M430.1,172.8l5.7-31.5h4.8l-4.9,27.2h15.2l-0.8,4.3H430.1z"/>
		<path class="st0" d="M456.2,172.8l5.7-31.5h20.1l-0.8,4.3H466l-1.7,9.2h13.1l-0.8,4.3h-13.1l-1.7,9.5h15.4l-0.8,4.3H456.2z
			 M473.3,138.2h-3.4l4.6-7.2h5L473.3,138.2z"/>
		<path class="st0" d="M506,165.7c-0.7,1.4-1.6,2.6-2.9,3.8c-1.4,1.3-2.9,2.2-4.5,2.7c-1.5,0.6-3.2,0.8-4.8,0.8
			c-1.7,0-3.1-0.3-4.4-0.9c-1.3-0.6-2.4-1.4-3.3-2.5c-0.6-0.8-1.1-1.6-1.3-2.4c-0.3-0.9-0.4-1.8-0.4-2.8c0-1,0.1-2.1,0.3-3.3
			c0.2-1.2,0.4-2.6,0.7-4.1c0.3-1.5,0.5-2.9,0.8-4.1c0.3-1.2,0.6-2.3,0.9-3.3c0.4-1,0.8-1.9,1.4-2.8c0.6-0.9,1.3-1.7,2.2-2.4
			c1.3-1.1,2.7-1.9,4.2-2.5c1.5-0.6,3.1-0.9,4.7-0.9c1.7,0,3.1,0.3,4.4,0.8c1.2,0.5,2.2,1.2,3,2.1c0.8,0.9,1.4,1.9,1.8,3.1
			c0.4,1.2,0.6,2.5,0.5,3.8h-4.8c-0.1-1.7-0.6-3.1-1.6-4.1c-0.9-1-2.3-1.4-4.1-1.4c-0.9,0-1.8,0.2-2.7,0.5c-0.9,0.4-1.6,0.8-2.3,1.4
			c-0.5,0.4-0.9,0.9-1.2,1.3c-0.3,0.5-0.6,1.1-0.9,1.8c-0.3,0.7-0.5,1.6-0.8,2.7c-0.2,1-0.5,2.4-0.8,4c-0.3,1.6-0.5,2.9-0.6,4
			c-0.1,1.1-0.2,2-0.2,2.7c0,0.7,0.1,1.3,0.2,1.8c0.2,0.5,0.4,0.9,0.7,1.3c0.5,0.6,1,1.1,1.8,1.4c0.7,0.3,1.6,0.5,2.5,0.5
			c1,0,2-0.2,3-0.6c1-0.4,1.8-0.9,2.6-1.6c0.7-0.7,1.3-1.4,1.6-2.2c0.4-0.8,0.7-1.7,0.9-2.7l0.3-1.8h-6.7l0.7-4h11.5l-0.9,4.8
			C507.2,162.6,506.7,164.3,506,165.7z"/>
		<path class="st0" d="M513.2,172.8l5.7-31.5h4.8l-5.7,31.5H513.2z"/>
		<path class="st0" d="M550.5,161.1c-0.3,1.2-0.6,2.3-0.9,3.3c-0.4,1-0.8,1.9-1.4,2.8c-0.6,0.9-1.3,1.7-2.2,2.4
			c-1.3,1.1-2.7,1.9-4.2,2.5c-1.5,0.6-3.1,0.9-4.8,0.9c-1.7,0-3.2-0.3-4.4-0.9c-1.3-0.6-2.3-1.4-3.2-2.5c-0.6-0.8-1.1-1.6-1.3-2.4
			c-0.3-0.9-0.4-1.8-0.4-2.8c0-1,0.1-2.1,0.3-3.3c0.2-1.2,0.4-2.6,0.7-4.1c0.3-1.5,0.5-2.9,0.8-4.1c0.3-1.2,0.6-2.3,0.9-3.3
			c0.4-1,0.8-1.9,1.4-2.8c0.6-0.9,1.3-1.7,2.2-2.4c1.3-1.1,2.7-1.9,4.2-2.5c1.5-0.6,3.1-0.9,4.7-0.9c1.7,0,3.2,0.3,4.4,0.9
			c1.3,0.6,2.4,1.4,3.3,2.5c0.6,0.8,1.1,1.6,1.3,2.4c0.3,0.9,0.4,1.8,0.4,2.8c0,1-0.1,2.1-0.3,3.3c-0.2,1.2-0.4,2.6-0.7,4.1
			C551.1,158.5,550.8,159.9,550.5,161.1z M547.2,153c0.1-1,0.2-1.9,0.2-2.7c0-0.7-0.1-1.3-0.2-1.8c-0.2-0.5-0.4-0.9-0.7-1.3
			c-0.5-0.6-1.1-1.1-1.8-1.4c-0.7-0.4-1.6-0.5-2.5-0.5c-0.9,0-1.9,0.2-2.7,0.5c-0.9,0.4-1.6,0.8-2.3,1.4c-0.5,0.4-0.9,0.9-1.2,1.3
			c-0.3,0.5-0.6,1.1-0.9,1.8c-0.3,0.7-0.5,1.6-0.7,2.7c-0.2,1-0.5,2.4-0.8,4c-0.3,1.6-0.5,2.9-0.7,4c-0.1,1-0.2,1.9-0.2,2.7
			c0,0.7,0.1,1.3,0.2,1.8c0.2,0.5,0.4,0.9,0.7,1.4c0.5,0.6,1.1,1.1,1.8,1.4c0.7,0.4,1.6,0.5,2.5,0.5c0.9,0,1.9-0.2,2.7-0.5
			c0.9-0.4,1.6-0.8,2.3-1.4c0.5-0.4,0.9-0.9,1.2-1.4c0.3-0.5,0.6-1.1,0.9-1.8c0.3-0.7,0.5-1.6,0.7-2.7c0.2-1,0.5-2.4,0.8-4
			C546.8,155.4,547.1,154.1,547.2,153z"/>
	</g>
	<path class="st0" d="M213.8,105.3c0-37.5-30.4-67.8-67.8-67.8c-3,0-5.8,0.3-8.7,0.6c-31.9,3.3-54.7,27.4-60.9,61.2l-12.8,71.9
		c-0.2,1.2,0.6,2,1.6,2h52.8c0.1,0,0.3,0,0.4,0H147l0.1,0C184.1,172.6,213.8,142.4,213.8,105.3z"/>
	<path class="st1" d="M124.5,103.6c-0.2-1-0.3-2-0.3-3c0-0.4-0.1-0.7-0.1-1.1c0,0,0,0,0-0.1l0,0c0-0.1,0-0.1,0-0.2
		c0-1.2,0.2-2.4,0.4-3.5c0.1-0.7,0.4-1.4,0.6-2.1c0.1-0.4,0.2-0.9,0.4-1.3c0.3-0.9,0.8-1.8,1.2-2.6c0.1-0.1,0.2-0.3,0.2-0.4
		c0.6-1,1.2-1.9,2-2.8c-0.9-0.9-1.8-1.8-2.9-2.5c-0.3-0.2-0.6-0.3-0.9-0.5c-1.2-0.7-2.5-1.3-3.8-1.7c-1.8-0.6-3.8-1-5.8-1
		c-10.3,0-18.6,8.3-18.6,18.5c0,6.2,3.1,11.9,8.2,15.3c1.7-1.6,3.6-2.9,5.7-4c3.3-1.9,7.1-3.1,11.2-3.1c1.4,0,2.7,0.2,4,0.4
		c-0.1-0.1-0.1-0.2-0.1-0.4c-0.3-0.8-0.6-1.6-0.8-2.5C124.8,104.5,124.6,104.1,124.5,103.6z"/>
	<path class="st1" d="M172.9,80.7c-2,0-3.9,0.4-5.8,1c-1.3,0.5-2.6,1-3.8,1.7c-0.3,0.2-0.6,0.3-0.9,0.5c-1.1,0.7-2,1.6-2.9,2.5
		c0.2,0.3,0.4,0.6,0.6,0.9c0.3,0.4,0.6,0.8,0.9,1.3c0.6,0.8,1,1.7,1.4,2.6c0.1,0.1,0.1,0.3,0.2,0.4c1,2.4,1.6,5.1,1.6,7.8
		c0,2.9-0.7,5.8-1.9,8.4c1.3-0.2,2.6-0.4,4-0.4c3.2,0,6.3,0.7,9.1,1.9c2.9,1.2,5.6,2.9,7.9,5.2c5.1-3.4,8.2-9.1,8.2-15.3
		C191.6,89,183.2,80.7,172.9,80.7z"/>
	<path class="st1" d="M156.6,83.7c0.6-0.5,1.2-1,1.8-1.4c0.4-0.3,0.8-0.6,1.2-0.9c0.8-0.5,1.6-1,2.4-1.5c0.8-0.4,1.5-0.8,2.4-1.1
		c0.5-0.2,0.9-0.5,1.4-0.7c-1.4-9.7-10.7-17.4-21.5-17.4c-10.8,0-20.1,7.7-21.5,17.4c0.5,0.2,0.9,0.5,1.4,0.7
		c0.8,0.3,1.6,0.7,2.3,1.1c0.8,0.5,1.6,0.9,2.4,1.5c0.4,0.3,0.8,0.6,1.2,1c0.6,0.5,1.2,0.9,1.7,1.4c3.4-2.7,7.7-4.4,12.4-4.4
		C148.9,79.3,153.2,81,156.6,83.7z"/>
	<path class="st1" d="M103.3,129.9c0,1.7,0.2,3.4,0.7,5.1c2.9-1.2,5.9-1.8,9.1-1.8c8.3,0,16.1,4.4,20.4,11.4
		c4.6-3.6,7.2-8.9,7.2-14.7c0-7.6-4.6-14.1-11.2-17c-5.5-2.2-12-1.7-17.4,1.2C106.9,117.5,103.3,123.3,103.3,129.9z"/>
	<path class="st1" d="M147.7,129.9c0,5.8,2.7,11.1,7.2,14.7c4.3-7,12.1-11.4,20.4-11.4c3.2,0,6.3,0.6,9.1,1.8
		c0.5-1.7,0.7-3.4,0.7-5.1c0-6.7-3.6-12.5-9-15.8c-5.3-2.8-11.8-3.4-17.3-1.2C152.3,115.8,147.7,122.4,147.7,129.9z"/>
	<path class="st2" d="M124.5,103.6c0.1,0.5,0.3,1,0.5,1.5C124.8,104.5,124.6,104.1,124.5,103.6z"/>
	<path class="st2" d="M125.4,92.3c-0.2,0.4-0.3,0.9-0.4,1.3C125.1,93.1,125.3,92.7,125.4,92.3z"/>
	<path class="st2" d="M161.1,88.6c0.5,0.8,1,1.7,1.4,2.6C162.1,90.3,161.6,89.4,161.1,88.6z"/>
	<path class="st2" d="M126.9,89.2c-0.1,0.1-0.2,0.3-0.2,0.4C126.7,89.5,126.8,89.4,126.9,89.2z"/>
	<path class="st2" d="M124.2,100.5c0-0.4-0.1-0.8-0.1-1.2c0,0,0,0.1,0,0.1C124.1,99.8,124.2,100.2,124.2,100.5z"/>
	<path class="st2" d="M124.4,95.7c-0.2,1.1-0.3,2.3-0.4,3.5C124.1,98,124.2,96.8,124.4,95.7z"/>
	<path class="st2" d="M126.7,89.7c-0.5,0.8-0.9,1.7-1.2,2.6C125.8,91.4,126.2,90.5,126.7,89.7z"/>
	<path class="st2" d="M128.9,86.5C128.9,86.5,128.9,86.5,128.9,86.5c-0.7,0.9-1.4,1.8-2,2.8C127.5,88.3,128.1,87.3,128.9,86.5z"/>
	<path class="st2" d="M125,93.6c-0.2,0.7-0.4,1.4-0.6,2.1C124.6,94.9,124.8,94.3,125,93.6z"/>
	<path class="st2" d="M125.8,107.5c-0.3-0.8-0.6-1.6-0.8-2.5C125.2,105.9,125.5,106.7,125.8,107.5z"/>
	<path class="st2" d="M124.2,100.5c0.1,1,0.1,2.1,0.3,3C124.3,102.6,124.3,101.5,124.2,100.5z"/>
	<path class="st2" d="M124.1,99.3c0-0.1,0-0.1,0-0.2C124.1,99.2,124.1,99.3,124.1,99.3L124.1,99.3z"/>
	<path class="st2" d="M160.2,87.3c0.3,0.4,0.6,0.8,0.9,1.3C160.8,88.2,160.5,87.8,160.2,87.3z"/>
	<path class="st2" d="M162.7,91.6c-0.1-0.2-0.1-0.3-0.2-0.4C162.6,91.4,162.7,91.5,162.7,91.6z"/>
	<path class="st2" d="M146.5,115.6c7.8-1.2,14-7.9,14-16c0-0.8-0.2-1.7-0.4-2.6h-13.6V115.6z"/>
	<path class="st2" d="M128.3,97.1c-0.1,0.9-0.3,1.7-0.3,2.6c0,8.1,6.1,14.8,13.9,16V97.1H128.3z"/>
	<path class="st2" d="M141.9,83.6c-5.3,0.8-9.8,4.2-12.1,8.8h12.1V83.6z"/>
	<path class="st2" d="M158.6,92.5c-2.3-4.7-6.8-8-12.1-8.8v8.8H158.6z"/>
	<path class="st0" d="M148.4,278.7c0-11.6,5.3-44.9,11.7-58c9.5-19.5,26.1-27.9,47.2-27.9c23.9,0,39.6,12.8,39.6,37.5
		c0,11.6-5.3,44.9-11.7,58c-9.6,19.5-26.3,27.9-47.2,27.9C164.2,316.2,148.4,303.4,148.4,278.7z M208.4,278.3
		c3.3-6.8,8.6-36.3,8.6-45.2c0-8.4-4.6-13.8-13.2-13.8c-7.9,0-13.5,4.4-16.8,11.4c-3.3,6.8-8.6,36.3-8.6,45.2
		c0,8.4,4.6,13.9,13.2,13.9C199.4,289.7,205.1,285.3,208.4,278.3z"/>
	<path class="st0" d="M274.9,196.6c0.2-1.1,0.9-1.8,1.9-1.8h24.9c1.2,0,2.1,0.5,2.6,1.8l22.4,69.1h0.7l12.3-69.1
		c0.2-1.1,0.9-1.8,1.9-1.8h23.5c1.1,0,1.8,0.7,1.6,1.8l-20.5,115.7c-0.2,1.1-0.9,1.8-1.9,1.8h-25.1c-1.2,0-2.1-0.5-2.5-1.8
		l-22.4-69.1h-0.9l-12.3,69.1c-0.2,1.1-0.9,1.8-1.8,1.8h-23.5c-1.1,0-1.8-0.7-1.6-1.8L274.9,196.6z"/>
	<path class="st0" d="M556.6,312.4L538,196.6c0-1.1-0.7-1.8-1.9-1.8h-1c-22,1.1-34.8,15.2-45.7,33.9l-43.6,83.6
		c-0.5,1.1-0.2,1.8,0.9,1.8h28.9c1.2,0,1.9-0.7,2.5-1.8l8.9-18.9h37.2l2.1,18.9c0.2,1.1,0.9,1.8,2.1,1.8h27
		C556.2,314.1,556.7,313.4,556.6,312.4z M498.5,268.5l8.6-18.3c3.4-6.7,6.6-12.6,10.3-17l3.8,35.2H498.5z"/>
	<path class="st0" d="M454.2,195.1c-16.7,2-29,13.6-33,31.9l-7.9,44.6c-2.3,12.6-7.7,18.1-17.4,18.1c-5.3,0-9.1-2.6-11.9-6.5
		c-0.5-0.7-1.4-0.7-2.3-0.2l-20.7,14c-0.9,0.7-0.9,1.6-0.7,2.5c4.4,9.3,17.2,16.8,32.3,16.8c28.1,0,45.1-14,51-47l13-72.6
		C456.7,195.2,455.2,195,454.2,195.1z"/>
	<path class="st0" d="M121.3,252.3l0.2-0.4c12.7-6.7,19.3-17.7,19.3-32.2c0-15.6-10.2-25.3-32.7-25.3H89l0,0c-1.7,0-3.4,0.2-4.5,0.3
		C69,197.6,57.8,208.9,54,226.3l-0.5,3.1l0,0l-14.7,82.8c-0.2,1.1,0.5,1.8,1.4,1.8h46.6c28.3,0,46.6-15.6,46.6-40.6
		C133.3,262.7,128.2,255.1,121.3,252.3z M86.7,291.3H73.2c-0.7,0-0.9-0.4-0.7-1.1l4.6-26c0.2-0.7,0.5-1.1,1.2-1.1h13.4
		c8.3,0,12.1,3.9,12.1,10.4C103.7,284.8,96.7,291.3,86.7,291.3z M93.7,242.8H81.6c-0.5,0-0.9-0.3-0.7-1.1l4.2-23.7
		c0.2-0.7,0.5-1,1.2-1h11.9c7.9,0,12,3.2,12,9.7C110.2,236.8,103.2,242.8,93.7,242.8z"/>
</g>
</svg>
