<?xml version="1.0" encoding="utf-8"?>
<!-- Generator: Adobe Illustrator 27.6.1, SVG Export Plug-In . SVG Version: 6.00 Build 0)  -->
<svg version="1.1" id="Camada_1" xmlns="http://www.w3.org/2000/svg" xmlns:xlink="http://www.w3.org/1999/xlink" x="0px" y="0px"
	 viewBox="0 0 579.6 214.6" style="enable-background:new 0 0 579.6 214.6;" xml:space="preserve">
<style type="text/css">
	.st0{fill:#FFFFFF;}
	.st1{fill:#1C3F86;}
	.st2{fill:#2681C4;}
</style>
<g>
	<polygon class="st0" points="96.7,182.4 97.5,172.9 94.1,172.9 94.2,171.8 102.3,171.8 102.2,172.9 98.7,172.9 98,182.4 	"/>
	<path class="st0" d="M103.1,182.4h-1.2l0.4-5.7c0-0.3,0-0.6,0.1-0.9c0-0.3,0-0.6,0-0.9h1.2l0,1.1c0.2-0.4,0.5-0.7,0.9-1
		c0.4-0.2,0.8-0.3,1.2-0.3c0.3,0,0.5,0,0.8,0.1l-0.1,1.1c-0.1-0.1-0.2-0.1-0.4-0.1c-0.1,0-0.3,0-0.5,0c-0.3,0-0.6,0.1-0.8,0.2
		c-0.2,0.1-0.5,0.3-0.7,0.5c-0.2,0.2-0.3,0.5-0.5,0.8s-0.2,0.6-0.2,1L103.1,182.4z"/>
	<path class="st0" d="M108.1,175h1.2l-0.6,7.5h-1.2L108.1,175z M109.5,171.8l-0.1,1.1h-1.1l0.1-1.1H109.5z"/>
	<polygon class="st0" points="113.6,171.6 112.7,182.4 111.5,182.4 112.3,171.6 	"/>
	<path class="st0" d="M116,175h1.2l-0.6,7.5h-1.2L116,175z M117.5,171.8l-0.1,1.1h-1.1l0.1-1.1H117.5z"/>
	<path class="st0" d="M120.6,182.4h-1.2l0.4-5.7c0-0.2,0-0.4,0-0.7c0-0.2,0-0.4,0-0.6c0-0.2,0-0.4,0-0.6h1.2l-0.1,1
		c0.3-0.4,0.7-0.7,1.1-0.9c0.4-0.2,0.9-0.3,1.5-0.3c0.5,0,1,0.1,1.3,0.3c0.3,0.2,0.6,0.4,0.8,0.8c0.2,0.3,0.3,0.7,0.3,1.2
		c0,0.4,0,0.9,0,1.5l-0.3,4h-1.2l0.3-3.9c0-0.4,0-0.8,0-1.2s-0.1-0.6-0.2-0.9c-0.1-0.2-0.3-0.4-0.5-0.6c-0.2-0.1-0.5-0.2-0.9-0.2
		c-0.4,0-0.7,0.1-1,0.2c-0.3,0.1-0.5,0.3-0.8,0.5c-0.2,0.2-0.4,0.4-0.5,0.6c-0.1,0.2-0.2,0.4-0.2,0.6L120.6,182.4z"/>
	<path class="st0" d="M128.7,183.8c0.4,0.2,0.8,0.4,1.2,0.5c0.4,0.1,0.8,0.2,1.2,0.2c0.4,0,0.8,0,1.2-0.1s0.6-0.2,0.9-0.4
		c0.2-0.2,0.4-0.4,0.6-0.8c0.1-0.3,0.2-0.7,0.3-1.1l0.1-0.9c-0.3,0.4-0.7,0.7-1.2,1c-0.5,0.2-1,0.3-1.5,0.3c-0.5,0-1-0.1-1.4-0.3
		c-0.4-0.2-0.7-0.4-1-0.8c-0.3-0.3-0.5-0.7-0.6-1.2c-0.1-0.5-0.2-1-0.1-1.5c0-0.5,0.2-1,0.3-1.5c0.2-0.5,0.4-0.9,0.8-1.3
		c0.3-0.4,0.7-0.6,1.2-0.9c0.5-0.2,1-0.3,1.6-0.3c0.6,0,1,0.1,1.4,0.3c0.4,0.2,0.7,0.5,1,0.9c0-0.1,0-0.2,0-0.3c0-0.1,0-0.2,0-0.3
		c0-0.1,0-0.3,0.1-0.4h1.2c0,0.2-0.1,0.5-0.1,0.7c0,0.2,0,0.4-0.1,0.6c0,0.2,0,0.4,0,0.5l-0.4,4.6c0,0.3-0.1,0.7-0.1,1
		c-0.1,0.3-0.2,0.7-0.3,1c-0.1,0.3-0.3,0.6-0.5,0.9c-0.2,0.3-0.4,0.5-0.8,0.7c-0.3,0.2-0.7,0.4-1.1,0.5c-0.4,0.1-0.9,0.2-1.4,0.2
		c-0.5,0-0.9,0-1.4-0.1c-0.4-0.1-0.9-0.2-1.2-0.5L128.7,183.8z M134.3,178.4c0-0.4,0-0.7-0.1-1c-0.1-0.3-0.2-0.6-0.4-0.9
		c-0.2-0.2-0.4-0.4-0.7-0.6c-0.3-0.1-0.6-0.2-1-0.2c-0.4,0-0.7,0.1-1.1,0.2c-0.3,0.2-0.6,0.4-0.8,0.6c-0.2,0.3-0.4,0.6-0.5,0.9
		c-0.1,0.4-0.2,0.7-0.2,1.1c0,0.4,0,0.8,0,1.1c0.1,0.3,0.2,0.6,0.3,0.9c0.2,0.2,0.4,0.4,0.7,0.6c0.3,0.1,0.7,0.2,1.1,0.2
		c0.4,0,0.8-0.1,1.1-0.3c0.3-0.2,0.6-0.4,0.8-0.7c0.2-0.3,0.4-0.6,0.5-1C134.2,179.2,134.3,178.8,134.3,178.4"/>
	<path class="st0" d="M143.7,175h1.2l-0.4,5.7c0,0.3,0,0.6-0.1,0.9c0,0.3,0,0.6,0,0.9h-1.2l0.1-1c-0.6,0.8-1.5,1.2-2.5,1.2
		c-0.4,0-0.7,0-1-0.1c-0.3-0.1-0.5-0.2-0.7-0.3c-0.2-0.1-0.4-0.3-0.5-0.5c-0.1-0.2-0.2-0.4-0.3-0.6c-0.1-0.2-0.1-0.5-0.1-0.7
		c0-0.2,0-0.5,0-0.7l0.4-4.6h1.2l-0.4,4.6c-0.1,0.7,0,1.2,0.3,1.6c0.3,0.4,0.7,0.5,1.4,0.5c0.4,0,0.7-0.1,0.9-0.2
		c0.3-0.1,0.5-0.3,0.7-0.5c0.2-0.2,0.4-0.5,0.5-0.8c0.1-0.3,0.2-0.6,0.2-0.9L143.7,175z"/>
	<path class="st0" d="M150.7,174.8c0.3,0,0.6,0,0.8,0.1c0.2,0.1,0.5,0.1,0.7,0.2c0.2,0.1,0.4,0.2,0.6,0.4c0.2,0.1,0.3,0.3,0.5,0.5
		l0.1-1h1.2l-0.2,1.8l-0.4,5.6h-1.2l0.1-1c-0.1,0.2-0.3,0.3-0.5,0.5c-0.2,0.1-0.4,0.3-0.6,0.4c-0.2,0.1-0.5,0.2-0.8,0.3
		c-0.3,0.1-0.6,0.1-0.9,0.1c-0.4,0-0.8-0.1-1.1-0.2c-0.3-0.1-0.6-0.3-0.9-0.5c-0.3-0.2-0.5-0.4-0.6-0.7c-0.2-0.3-0.3-0.5-0.4-0.8
		c-0.1-0.3-0.2-0.6-0.2-0.9c0-0.3,0-0.6,0-0.9c0-0.5,0.2-1,0.3-1.4c0.2-0.5,0.4-0.9,0.8-1.2c0.3-0.4,0.7-0.6,1.2-0.9
		C149.6,174.9,150.1,174.8,150.7,174.8 M150.3,181.6c0.3,0,0.7-0.1,1-0.2c0.3-0.1,0.6-0.3,0.8-0.6c0.2-0.3,0.5-0.6,0.6-1
		c0.2-0.4,0.3-0.9,0.3-1.4c0-0.4,0-0.8-0.1-1.1c-0.1-0.3-0.2-0.6-0.4-0.8c-0.2-0.2-0.4-0.4-0.8-0.6c-0.3-0.1-0.6-0.2-1-0.2
		c-0.3,0-0.6,0-0.8,0.1s-0.5,0.2-0.7,0.3c-0.2,0.1-0.4,0.3-0.5,0.5c-0.2,0.2-0.3,0.4-0.4,0.6c-0.1,0.2-0.2,0.4-0.2,0.7
		c-0.1,0.2-0.1,0.5-0.1,0.7c0,0.2,0,0.5,0,0.7c0,0.2,0,0.5,0.1,0.7c0.1,0.2,0.1,0.4,0.3,0.6c0.1,0.2,0.3,0.4,0.4,0.5
		c0.2,0.1,0.4,0.3,0.6,0.3C149.6,181.6,149.9,181.6,150.3,181.6"/>
	<polygon class="st0" points="158.5,171.6 157.6,182.4 156.4,182.4 157.3,171.6 	"/>
	<polygon class="st0" points="171.9,182.4 165.3,182.4 166.2,171.8 172.5,171.8 172.4,172.9 167.3,172.9 167,176.5 171.8,176.5 
		171.7,177.5 167,177.5 166.7,181.3 171.9,181.3 	"/>
	<path class="st0" d="M179.7,182.4l0.1-1.1c-0.3,0.4-0.7,0.8-1.2,1c-0.4,0.2-0.9,0.3-1.5,0.3c-0.6,0-1.1-0.1-1.5-0.3
		c-0.4-0.2-0.7-0.5-1-0.8c-0.2-0.4-0.4-0.8-0.5-1.2c-0.1-0.5-0.1-1-0.1-1.5c0-0.5,0.1-1,0.3-1.5c0.2-0.5,0.4-0.9,0.7-1.3
		c0.3-0.4,0.7-0.7,1.1-0.9c0.4-0.2,1-0.3,1.5-0.3c0.5,0,1,0.1,1.4,0.3c0.4,0.2,0.7,0.5,1,0.9l0.3-4.4h1.2l-0.7,9
		c0,0.3,0,0.6-0.1,0.9c0,0.3,0,0.6,0,0.9H179.7z M177.3,181.6c0.4,0,0.7-0.1,1.1-0.2c0.3-0.2,0.6-0.4,0.8-0.6c0.2-0.3,0.4-0.6,0.5-1
		c0.1-0.4,0.2-0.8,0.3-1.3c0-0.4,0-0.8-0.1-1.1c-0.1-0.3-0.2-0.6-0.4-0.8c-0.2-0.2-0.4-0.4-0.7-0.5c-0.3-0.1-0.6-0.2-0.9-0.2
		c-0.4,0-0.8,0.1-1.1,0.2c-0.3,0.2-0.6,0.4-0.8,0.6c-0.2,0.3-0.4,0.6-0.5,0.9c-0.1,0.4-0.2,0.7-0.2,1.1c0,0.4,0,0.7,0,1.1
		c0.1,0.3,0.2,0.7,0.3,0.9c0.2,0.3,0.4,0.5,0.7,0.6C176.5,181.6,176.9,181.6,177.3,181.6"/>
	<path class="st0" d="M189.3,175h1.2l-0.4,5.7c0,0.3,0,0.6-0.1,0.9s0,0.6,0,0.9h-1.2l0.1-1c-0.6,0.8-1.5,1.2-2.5,1.2
		c-0.4,0-0.7,0-1-0.1c-0.3-0.1-0.5-0.2-0.7-0.3c-0.2-0.1-0.4-0.3-0.5-0.5c-0.1-0.2-0.2-0.4-0.3-0.6c-0.1-0.2-0.1-0.5-0.1-0.7
		c0-0.2,0-0.5,0-0.7l0.4-4.6h1.2l-0.4,4.6c-0.1,0.7,0,1.2,0.3,1.6c0.3,0.4,0.7,0.5,1.4,0.5c0.4,0,0.7-0.1,0.9-0.2
		c0.3-0.1,0.5-0.3,0.7-0.5c0.2-0.2,0.4-0.5,0.5-0.8c0.1-0.3,0.2-0.6,0.2-0.9L189.3,175z"/>
	<path class="st0" d="M198.4,176.6c-0.2-0.3-0.5-0.5-0.8-0.6c-0.3-0.1-0.7-0.2-1.1-0.2c-0.4,0-0.8,0.1-1.1,0.2
		c-0.3,0.2-0.6,0.4-0.9,0.6c-0.2,0.3-0.4,0.6-0.6,0.9c-0.1,0.4-0.2,0.7-0.3,1.2c0,0.4,0,0.8,0.1,1.1c0.1,0.4,0.2,0.7,0.4,0.9
		c0.2,0.3,0.4,0.5,0.7,0.6c0.3,0.1,0.7,0.2,1.1,0.2c0.8,0,1.6-0.3,2.3-0.8l0.3,1c-0.4,0.3-0.8,0.5-1.2,0.6c-0.4,0.1-0.9,0.2-1.5,0.2
		c-0.6,0-1.1-0.1-1.6-0.3c-0.4-0.2-0.8-0.5-1.1-0.8c-0.3-0.3-0.5-0.8-0.6-1.2c-0.1-0.5-0.2-1-0.1-1.5c0-0.5,0.2-1.1,0.4-1.5
		c0.2-0.5,0.5-0.9,0.8-1.3c0.3-0.4,0.8-0.6,1.2-0.9c0.5-0.2,1-0.3,1.6-0.3c0.6,0,1.1,0.1,1.5,0.3c0.4,0.2,0.8,0.4,1,0.8L198.4,176.6
		z"/>
	<path class="st0" d="M204.2,174.8c0.3,0,0.6,0,0.8,0.1c0.2,0.1,0.5,0.1,0.7,0.2c0.2,0.1,0.4,0.2,0.6,0.4c0.2,0.1,0.3,0.3,0.5,0.5
		l0.1-1h1.2l-0.2,1.8l-0.4,5.6h-1.2l0.1-1c-0.1,0.2-0.3,0.3-0.5,0.5c-0.2,0.1-0.4,0.3-0.6,0.4c-0.2,0.1-0.5,0.2-0.8,0.3
		c-0.3,0.1-0.6,0.1-0.9,0.1c-0.4,0-0.8-0.1-1.1-0.2c-0.3-0.1-0.6-0.3-0.9-0.5s-0.5-0.4-0.6-0.7c-0.2-0.3-0.3-0.5-0.4-0.8
		c-0.1-0.3-0.2-0.6-0.2-0.9c0-0.3,0-0.6,0-0.9c0-0.5,0.1-1,0.3-1.4c0.2-0.5,0.4-0.9,0.8-1.2c0.3-0.4,0.7-0.6,1.2-0.9
		C203.1,174.9,203.6,174.8,204.2,174.8 M203.8,181.6c0.3,0,0.7-0.1,1-0.2c0.3-0.1,0.6-0.3,0.8-0.6c0.2-0.3,0.5-0.6,0.6-1
		c0.2-0.4,0.3-0.9,0.3-1.4c0-0.4,0-0.8-0.1-1.1c-0.1-0.3-0.2-0.6-0.4-0.8c-0.2-0.2-0.5-0.4-0.8-0.6c-0.3-0.1-0.6-0.2-1-0.2
		c-0.3,0-0.6,0-0.8,0.1c-0.2,0.1-0.5,0.2-0.7,0.3c-0.2,0.1-0.4,0.3-0.5,0.5c-0.2,0.2-0.3,0.4-0.4,0.6c-0.1,0.2-0.2,0.4-0.2,0.7
		c-0.1,0.2-0.1,0.5-0.1,0.7c0,0.2,0,0.5,0,0.7c0,0.2,0,0.5,0.1,0.7c0.1,0.2,0.1,0.4,0.3,0.6c0.1,0.2,0.3,0.4,0.4,0.5
		c0.2,0.1,0.4,0.3,0.6,0.3C203.2,181.6,203.5,181.6,203.8,181.6"/>
	<path class="st0" d="M211.1,175.7h-1.5l0.1-0.8h1.5l0.2-2l1.2-0.3l-0.2,2.3h1.9l-0.1,0.8h-1.9l-0.3,4.5c0,0.2,0,0.3,0,0.5
		c0,0.2,0,0.3,0.1,0.5c0,0.1,0.1,0.3,0.2,0.4c0.1,0.1,0.3,0.1,0.5,0.1c0.2,0,0.3,0,0.5-0.1c0.2,0,0.4-0.1,0.6-0.2l-0.1,0.9
		c-0.2,0.1-0.4,0.2-0.6,0.2c-0.2,0-0.4,0.1-0.7,0.1c-0.4,0-0.7-0.1-1-0.2c-0.2-0.1-0.4-0.3-0.5-0.6c-0.1-0.2-0.2-0.5-0.2-0.8
		c0-0.3,0-0.6,0-1L211.1,175.7z"/>
	<path class="st0" d="M216.2,175h1.2l-0.6,7.5h-1.2L216.2,175z M217.6,171.8l-0.1,1.1h-1.1l0.1-1.1H217.6z"/>
	<path class="st0" d="M223.4,174.8c0.6,0,1.2,0.1,1.6,0.3c0.5,0.2,0.8,0.5,1.1,0.8c0.3,0.4,0.5,0.8,0.6,1.2c0.1,0.5,0.2,1,0.1,1.5
		c0,0.5-0.2,1-0.4,1.5c-0.2,0.5-0.5,0.9-0.8,1.2c-0.4,0.4-0.8,0.6-1.3,0.8c-0.5,0.2-1,0.3-1.7,0.3c-0.6,0-1.2-0.1-1.6-0.3
		c-0.5-0.2-0.8-0.5-1.1-0.8c-0.3-0.4-0.5-0.8-0.6-1.2c-0.1-0.5-0.2-1-0.1-1.5c0-0.5,0.2-1,0.4-1.5s0.5-0.9,0.8-1.3
		c0.4-0.4,0.8-0.6,1.3-0.8C222.3,174.9,222.8,174.8,223.4,174.8 M225.7,178.7c0-0.4,0-0.8-0.1-1.1c-0.1-0.4-0.2-0.7-0.4-0.9
		c-0.2-0.3-0.4-0.5-0.7-0.6c-0.3-0.2-0.7-0.2-1.1-0.2c-0.4,0-0.8,0.1-1.1,0.2c-0.3,0.2-0.6,0.4-0.9,0.7c-0.2,0.3-0.4,0.6-0.6,1
		c-0.1,0.4-0.2,0.7-0.3,1.1c0,0.4,0,0.8,0.1,1.1c0.1,0.3,0.2,0.7,0.4,0.9c0.2,0.3,0.4,0.5,0.8,0.6c0.3,0.2,0.7,0.2,1.1,0.2
		c0.4,0,0.8-0.1,1.1-0.2c0.3-0.2,0.6-0.4,0.8-0.6c0.2-0.3,0.4-0.6,0.5-0.9C225.5,179.5,225.6,179.1,225.7,178.7"/>
	<path class="st0" d="M230.1,182.4h-1.2l0.4-5.7c0-0.2,0-0.4,0-0.7c0-0.2,0-0.4,0-0.6c0-0.2,0-0.4,0-0.6h1.2l-0.1,1
		c0.3-0.4,0.7-0.7,1.1-0.9c0.4-0.2,0.9-0.3,1.5-0.3c0.5,0,1,0.1,1.3,0.3c0.3,0.2,0.6,0.4,0.8,0.8c0.2,0.3,0.3,0.7,0.3,1.2
		c0,0.4,0,0.9,0,1.5l-0.3,4h-1.2l0.3-3.9c0-0.4,0-0.8,0-1.2c0-0.3-0.1-0.6-0.2-0.9c-0.1-0.2-0.3-0.4-0.5-0.6
		c-0.2-0.1-0.5-0.2-0.9-0.2c-0.4,0-0.7,0.1-1,0.2c-0.3,0.1-0.5,0.3-0.8,0.5c-0.2,0.2-0.4,0.4-0.5,0.6c-0.1,0.2-0.2,0.4-0.2,0.6
		L230.1,182.4z"/>
	<polygon class="st0" points="242.4,186 243.6,171.2 244.7,171.2 243.5,186 	"/>
	<path class="st0" d="M252.3,171.8h2.3c0.6,0,1.2,0,1.8,0.1c0.6,0.1,1.1,0.2,1.6,0.4c0.5,0.2,0.9,0.4,1.3,0.7c0.4,0.3,0.7,0.6,1,1
		c0.3,0.4,0.4,0.9,0.6,1.4c0.1,0.5,0.1,1.1,0.1,1.8c-0.1,0.8-0.3,1.5-0.6,2.2c-0.3,0.6-0.8,1.2-1.3,1.7c-0.5,0.5-1.2,0.8-2,1.1
		c-0.8,0.2-1.6,0.4-2.5,0.4h-3L252.3,171.8z M252.8,181.3h1.9c0.8,0,1.5-0.1,2-0.3c0.6-0.2,1.1-0.5,1.5-0.9c0.4-0.4,0.7-0.8,0.9-1.3
		c0.2-0.5,0.4-1.1,0.4-1.7c0.1-0.8,0-1.5-0.2-2c-0.2-0.5-0.5-1-0.9-1.3c-0.4-0.3-0.9-0.6-1.6-0.7c-0.6-0.1-1.4-0.2-2.2-0.2h-1.2
		L252.8,181.3z"/>
	<path class="st0" d="M269.2,181.6c-0.4,0.3-0.9,0.6-1.4,0.8c-0.5,0.2-1.1,0.2-1.7,0.2c-0.6,0-1.1-0.1-1.6-0.3
		c-0.4-0.2-0.8-0.5-1.1-0.8c-0.3-0.3-0.5-0.8-0.6-1.2c-0.1-0.5-0.2-1-0.1-1.6c0-0.5,0.2-1,0.4-1.5s0.5-0.9,0.8-1.3
		c0.3-0.4,0.8-0.6,1.2-0.9c0.5-0.2,1-0.3,1.6-0.3c0.6,0,1.1,0.1,1.5,0.3c0.4,0.2,0.7,0.4,1,0.8c0.2,0.3,0.4,0.7,0.5,1.2
		c0.1,0.5,0.1,0.9,0.1,1.5c0,0.1,0,0.1,0,0.2c0,0.1,0,0.1,0,0.2H264l0,0.3c0,0.4,0,0.7,0.1,1c0.1,0.3,0.2,0.6,0.4,0.8
		c0.2,0.2,0.4,0.4,0.7,0.5c0.3,0.1,0.6,0.2,1,0.2c0.5,0,1-0.1,1.4-0.3c0.4-0.2,0.8-0.4,1.2-0.8L269.2,181.6z M268.6,178v-0.1
		c0-0.3,0-0.6-0.1-0.9c-0.1-0.3-0.2-0.5-0.4-0.7c-0.2-0.2-0.4-0.3-0.6-0.4c-0.2-0.1-0.5-0.2-0.8-0.2c-0.3,0-0.6,0.1-0.9,0.2
		c-0.3,0.1-0.5,0.3-0.7,0.5c-0.2,0.2-0.4,0.4-0.5,0.7c-0.1,0.3-0.2,0.6-0.3,0.9H268.6z"/>
	<path class="st0" d="M277.4,175h1.2l-0.4,5.7c0,0.3,0,0.6-0.1,0.9c0,0.3,0,0.6,0,0.9h-1.2l0.1-1c-0.6,0.8-1.5,1.2-2.5,1.2
		c-0.4,0-0.7,0-1-0.1c-0.3-0.1-0.5-0.2-0.7-0.3c-0.2-0.1-0.4-0.3-0.5-0.5c-0.1-0.2-0.2-0.4-0.3-0.6c-0.1-0.2-0.1-0.5-0.1-0.7
		c0-0.2,0-0.5,0-0.7l0.4-4.6h1.2l-0.4,4.6c-0.1,0.7,0,1.2,0.3,1.6c0.3,0.4,0.7,0.5,1.4,0.5c0.4,0,0.7-0.1,0.9-0.2
		c0.3-0.1,0.5-0.3,0.7-0.5c0.2-0.2,0.4-0.5,0.5-0.8c0.1-0.3,0.2-0.6,0.2-0.9L277.4,175z"/>
	<path class="st0" d="M281.9,175.7h-1.5l0.1-0.8h1.5l0.2-2l1.2-0.3l-0.2,2.3h1.9l-0.1,0.8h-1.9l-0.3,4.5c0,0.2,0,0.3,0,0.5
		c0,0.2,0,0.3,0.1,0.5c0,0.1,0.1,0.3,0.2,0.4c0.1,0.1,0.3,0.1,0.5,0.1c0.2,0,0.3,0,0.5-0.1c0.2,0,0.4-0.1,0.6-0.2l-0.1,0.9
		c-0.2,0.1-0.4,0.2-0.6,0.2c-0.2,0-0.4,0.1-0.7,0.1c-0.4,0-0.7-0.1-1-0.2c-0.2-0.1-0.4-0.3-0.5-0.6c-0.1-0.2-0.2-0.5-0.2-0.8
		c0-0.3,0-0.6,0-1L281.9,175.7z"/>
	<path class="st0" d="M291.5,176.3c-0.2-0.2-0.6-0.3-0.9-0.4c-0.4-0.1-0.7-0.1-1.1-0.1c-0.2,0-0.4,0-0.6,0.1c-0.2,0-0.4,0.1-0.5,0.2
		c-0.1,0.1-0.3,0.2-0.4,0.3c-0.1,0.1-0.1,0.3-0.1,0.4c0,0.2,0,0.3,0.1,0.4c0.1,0.1,0.2,0.2,0.3,0.3c0.1,0.1,0.3,0.2,0.5,0.2
		c0.2,0.1,0.4,0.1,0.6,0.2c0.2,0.1,0.4,0.1,0.6,0.2c0.2,0.1,0.4,0.1,0.6,0.2c0.2,0.1,0.4,0.2,0.6,0.3c0.2,0.1,0.4,0.2,0.5,0.4
		c0.1,0.2,0.2,0.3,0.3,0.5c0.1,0.2,0.1,0.4,0.1,0.7c0,0.4-0.1,0.7-0.3,1c-0.2,0.3-0.4,0.5-0.7,0.7c-0.3,0.2-0.6,0.3-1,0.4
		c-0.4,0.1-0.8,0.1-1.1,0.1c-0.3,0-0.5,0-0.8,0c-0.2,0-0.5-0.1-0.7-0.1c-0.2-0.1-0.4-0.2-0.6-0.3c-0.2-0.1-0.3-0.2-0.5-0.4l0.4-1
		c0.1,0.2,0.3,0.3,0.4,0.4c0.2,0.1,0.3,0.2,0.5,0.3c0.2,0.1,0.4,0.1,0.6,0.2c0.2,0,0.4,0,0.6,0c0.3,0,0.5,0,0.8-0.1
		c0.2-0.1,0.4-0.1,0.6-0.2c0.2-0.1,0.3-0.2,0.4-0.4c0.1-0.1,0.2-0.3,0.2-0.5c0-0.2,0-0.4-0.1-0.5c-0.1-0.1-0.2-0.3-0.4-0.4
		c-0.2-0.1-0.4-0.2-0.7-0.3c-0.3-0.1-0.5-0.2-0.8-0.3c-0.4-0.1-0.7-0.2-1-0.4c-0.3-0.1-0.5-0.3-0.7-0.4c-0.2-0.2-0.3-0.4-0.4-0.6
		c-0.1-0.2-0.1-0.5-0.1-0.8c0-0.3,0.1-0.6,0.3-0.9c0.2-0.3,0.4-0.5,0.7-0.6c0.3-0.2,0.6-0.3,0.9-0.4c0.3-0.1,0.7-0.1,1-0.1
		c0.5,0,1,0,1.4,0.1c0.4,0.1,0.8,0.3,1,0.5L291.5,176.3z"/>
	<path class="st0" d="M299.7,176.6c-0.2-0.3-0.5-0.5-0.8-0.6c-0.3-0.1-0.7-0.2-1.1-0.2c-0.4,0-0.8,0.1-1.1,0.2
		c-0.3,0.2-0.6,0.4-0.9,0.6c-0.2,0.3-0.4,0.6-0.6,0.9c-0.1,0.4-0.2,0.7-0.3,1.2c0,0.4,0,0.8,0.1,1.1c0.1,0.4,0.2,0.7,0.4,0.9
		c0.2,0.3,0.4,0.5,0.7,0.6c0.3,0.1,0.7,0.2,1.1,0.2c0.8,0,1.6-0.3,2.3-0.8l0.3,1c-0.4,0.3-0.8,0.5-1.2,0.6c-0.4,0.1-0.9,0.2-1.5,0.2
		c-0.6,0-1.1-0.1-1.6-0.3c-0.4-0.2-0.8-0.5-1.1-0.8c-0.3-0.3-0.5-0.8-0.6-1.2c-0.1-0.5-0.2-1-0.1-1.5c0-0.5,0.2-1.1,0.4-1.5
		s0.5-0.9,0.8-1.3c0.3-0.4,0.8-0.6,1.2-0.9s1-0.3,1.6-0.3c0.6,0,1.1,0.1,1.5,0.3c0.4,0.2,0.8,0.4,1,0.8L299.7,176.6z"/>
	<path class="st0" d="M304.1,171.6l-0.3,4.4c0.3-0.4,0.7-0.7,1.1-0.9c0.4-0.2,0.9-0.3,1.5-0.3c0.5,0,1,0.1,1.3,0.3s0.6,0.4,0.8,0.7
		c0.2,0.3,0.3,0.6,0.4,1c0.1,0.4,0.1,0.7,0,1.1l-0.4,4.6h-1.2l0.4-4.6c0-0.3,0-0.6,0-0.9c0-0.3-0.1-0.5-0.3-0.7
		c-0.1-0.2-0.3-0.3-0.5-0.4c-0.2-0.1-0.5-0.2-0.9-0.2c-0.3,0-0.7,0.1-0.9,0.2c-0.3,0.1-0.5,0.3-0.7,0.5c-0.2,0.2-0.4,0.5-0.5,0.8
		c-0.1,0.3-0.2,0.6-0.2,0.9l-0.3,4.3H302l0.9-10.9H304.1z"/>
	<path class="st0" d="M317.6,181.6c-0.4,0.3-0.9,0.6-1.4,0.8c-0.5,0.2-1.1,0.2-1.7,0.2c-0.6,0-1.1-0.1-1.6-0.3
		c-0.4-0.2-0.8-0.5-1.1-0.8c-0.3-0.3-0.5-0.8-0.6-1.2c-0.1-0.5-0.2-1-0.1-1.6c0-0.5,0.2-1,0.4-1.5c0.2-0.5,0.5-0.9,0.8-1.3
		c0.3-0.4,0.8-0.6,1.2-0.9c0.5-0.2,1-0.3,1.6-0.3c0.6,0,1.1,0.1,1.5,0.3c0.4,0.2,0.7,0.4,1,0.8c0.2,0.3,0.4,0.7,0.5,1.2
		c0.1,0.5,0.1,0.9,0.1,1.5c0,0.1,0,0.1,0,0.2c0,0.1,0,0.1,0,0.2h-5.7l0,0.3c0,0.4,0,0.7,0.1,1c0.1,0.3,0.2,0.6,0.4,0.8
		c0.2,0.2,0.4,0.4,0.7,0.5c0.3,0.1,0.6,0.2,1,0.2c0.5,0,1-0.1,1.4-0.3c0.4-0.2,0.8-0.4,1.2-0.8L317.6,181.6z M316.9,178v-0.1
		c0-0.3,0-0.6-0.1-0.9c-0.1-0.3-0.2-0.5-0.4-0.7c-0.2-0.2-0.4-0.3-0.6-0.4c-0.2-0.1-0.5-0.2-0.8-0.2c-0.3,0-0.6,0.1-0.9,0.2
		c-0.3,0.1-0.5,0.3-0.7,0.5c-0.2,0.2-0.4,0.4-0.5,0.7c-0.1,0.3-0.2,0.6-0.3,0.9H316.9z"/>
	<path class="st0" d="M321.2,182.4H320l0.4-5.7c0-0.3,0-0.6,0.1-0.9c0-0.3,0-0.6,0-0.9h1.2l0,1.1c0.2-0.4,0.5-0.7,0.9-1
		c0.4-0.2,0.8-0.3,1.2-0.3c0.3,0,0.5,0,0.8,0.1l-0.1,1.1c-0.1-0.1-0.2-0.1-0.4-0.1c-0.1,0-0.3,0-0.5,0c-0.3,0-0.6,0.1-0.8,0.2
		c-0.2,0.1-0.5,0.3-0.7,0.5c-0.2,0.2-0.3,0.5-0.5,0.8s-0.2,0.6-0.2,1L321.2,182.4z"/>
	<path class="st0" d="M336.1,175h1.2l-0.4,5.7c0,0.3,0,0.6-0.1,0.9c0,0.3,0,0.6,0,0.9h-1.2l0.1-1c-0.6,0.8-1.5,1.2-2.5,1.2
		c-0.4,0-0.7,0-1-0.1c-0.3-0.1-0.5-0.2-0.7-0.3c-0.2-0.1-0.4-0.3-0.5-0.5c-0.1-0.2-0.2-0.4-0.3-0.6c-0.1-0.2-0.1-0.5-0.1-0.7
		c0-0.2,0-0.5,0-0.7l0.4-4.6h1.2l-0.4,4.6c-0.1,0.7,0,1.2,0.3,1.6s0.7,0.5,1.4,0.5c0.4,0,0.7-0.1,0.9-0.2c0.3-0.1,0.5-0.3,0.7-0.5
		c0.2-0.2,0.4-0.5,0.5-0.8c0.1-0.3,0.2-0.6,0.2-0.9L336.1,175z"/>
	<path class="st0" d="M340.7,182.4h-1.2l0.4-5.7c0-0.2,0-0.4,0-0.7c0-0.2,0-0.4,0-0.6c0-0.2,0-0.4,0-0.6h1.2l-0.1,1
		c0.3-0.4,0.7-0.7,1.1-0.9c0.4-0.2,0.9-0.3,1.5-0.3c0.5,0,1,0.1,1.3,0.3c0.3,0.2,0.6,0.4,0.8,0.8c0.2,0.3,0.3,0.7,0.3,1.2
		c0,0.4,0,0.9,0,1.5l-0.3,4h-1.2l0.3-3.9c0-0.4,0-0.8,0-1.2c0-0.3-0.1-0.6-0.2-0.9c-0.1-0.2-0.3-0.4-0.5-0.6
		c-0.2-0.1-0.5-0.2-0.9-0.2c-0.4,0-0.7,0.1-1,0.2c-0.3,0.1-0.5,0.3-0.8,0.5c-0.2,0.2-0.4,0.4-0.5,0.6c-0.1,0.2-0.2,0.4-0.2,0.6
		L340.7,182.4z"/>
	<path class="st0" d="M354.1,182.4l0.1-1.1c-0.3,0.4-0.7,0.8-1.2,1c-0.4,0.2-0.9,0.3-1.5,0.3c-0.6,0-1.1-0.1-1.5-0.3s-0.7-0.5-1-0.8
		c-0.2-0.4-0.4-0.8-0.5-1.2c-0.1-0.5-0.1-1-0.1-1.5c0-0.5,0.1-1,0.3-1.5c0.2-0.5,0.4-0.9,0.7-1.3c0.3-0.4,0.7-0.7,1.1-0.9
		c0.4-0.2,1-0.3,1.5-0.3c0.5,0,1,0.1,1.4,0.3c0.4,0.2,0.7,0.5,1,0.9l0.3-4.4h1.2l-0.7,9c0,0.3,0,0.6-0.1,0.9c0,0.3,0,0.6,0,0.9
		H354.1z M351.7,181.6c0.4,0,0.7-0.1,1.1-0.2c0.3-0.2,0.6-0.4,0.8-0.6c0.2-0.3,0.4-0.6,0.5-1c0.1-0.4,0.2-0.8,0.3-1.3
		c0-0.4,0-0.8-0.1-1.1c-0.1-0.3-0.2-0.6-0.4-0.8c-0.2-0.2-0.4-0.4-0.7-0.5c-0.3-0.1-0.6-0.2-0.9-0.2c-0.4,0-0.8,0.1-1.1,0.2
		c-0.3,0.2-0.6,0.4-0.8,0.6c-0.2,0.3-0.4,0.6-0.5,0.9c-0.1,0.4-0.2,0.7-0.2,1.1c0,0.4,0,0.7,0,1.1c0.1,0.3,0.2,0.7,0.3,0.9
		c0.2,0.3,0.4,0.5,0.7,0.6C350.9,181.6,351.3,181.6,351.7,181.6"/>
	<polygon class="st0" points="369.4,182.4 362.9,182.4 363.7,171.8 370,171.8 370,172.9 364.9,172.9 364.6,176.5 369.4,176.5 
		369.3,177.5 364.5,177.5 364.2,181.3 369.5,181.3 	"/>
	<path class="st0" d="M373,182.4h-1.2l0.4-5.7c0-0.2,0-0.4,0-0.7c0-0.2,0-0.4,0-0.6c0-0.2,0-0.4,0-0.6h1.2l-0.1,1
		c0.3-0.4,0.7-0.7,1.1-0.9c0.4-0.2,0.9-0.3,1.5-0.3c0.5,0,1,0.1,1.3,0.3c0.3,0.2,0.6,0.4,0.8,0.8c0.2,0.3,0.3,0.7,0.3,1.2
		c0,0.4,0,0.9,0,1.5l-0.3,4H377l0.3-3.9c0-0.4,0-0.8,0-1.2c0-0.3-0.1-0.6-0.2-0.9c-0.1-0.2-0.3-0.4-0.5-0.6
		c-0.2-0.1-0.5-0.2-0.9-0.2c-0.4,0-0.7,0.1-1,0.2c-0.3,0.1-0.5,0.3-0.8,0.5c-0.2,0.2-0.4,0.4-0.5,0.6c-0.1,0.2-0.2,0.4-0.2,0.6
		L373,182.4z"/>
	<path class="st0" d="M381.1,183.8c0.4,0.2,0.8,0.4,1.2,0.5c0.4,0.1,0.8,0.2,1.2,0.2c0.4,0,0.8,0,1.2-0.1s0.6-0.2,0.9-0.4
		c0.2-0.2,0.4-0.4,0.6-0.8c0.1-0.3,0.2-0.7,0.3-1.1l0.1-0.9c-0.3,0.4-0.7,0.7-1.2,1c-0.5,0.2-1,0.3-1.5,0.3c-0.5,0-1-0.1-1.4-0.3
		c-0.4-0.2-0.7-0.4-1-0.8c-0.3-0.3-0.5-0.7-0.6-1.2c-0.1-0.5-0.2-1-0.1-1.5c0-0.5,0.2-1,0.3-1.5c0.2-0.5,0.4-0.9,0.8-1.3
		c0.3-0.4,0.7-0.6,1.2-0.9c0.5-0.2,1-0.3,1.6-0.3c0.6,0,1,0.1,1.4,0.3c0.4,0.2,0.7,0.5,1,0.9c0-0.1,0-0.2,0-0.3c0-0.1,0-0.2,0-0.3
		c0-0.1,0-0.3,0.1-0.4h1.2c0,0.2-0.1,0.5-0.1,0.7c0,0.2,0,0.4-0.1,0.6c0,0.2,0,0.4,0,0.5l-0.4,4.6c0,0.3-0.1,0.7-0.1,1
		c-0.1,0.3-0.2,0.7-0.3,1s-0.3,0.6-0.5,0.9c-0.2,0.3-0.4,0.5-0.7,0.7c-0.3,0.2-0.7,0.4-1.1,0.5c-0.4,0.1-0.9,0.2-1.4,0.2
		c-0.5,0-0.9,0-1.4-0.1c-0.4-0.1-0.9-0.2-1.2-0.5L381.1,183.8z M386.7,178.4c0-0.4,0-0.7-0.1-1c-0.1-0.3-0.2-0.6-0.4-0.9
		c-0.2-0.2-0.4-0.4-0.7-0.6c-0.3-0.1-0.6-0.2-1-0.2c-0.4,0-0.7,0.1-1.1,0.2c-0.3,0.2-0.6,0.4-0.8,0.6c-0.2,0.3-0.4,0.6-0.5,0.9
		s-0.2,0.7-0.2,1.1c0,0.4,0,0.8,0,1.1c0.1,0.3,0.2,0.6,0.3,0.9c0.2,0.2,0.4,0.4,0.7,0.6c0.3,0.1,0.7,0.2,1.1,0.2
		c0.4,0,0.8-0.1,1.1-0.3c0.3-0.2,0.6-0.4,0.8-0.7c0.2-0.3,0.4-0.6,0.5-1C386.6,179.2,386.7,178.8,386.7,178.4"/>
	<polygon class="st0" points="392.3,171.6 391.5,182.4 390.3,182.4 391.1,171.6 	"/>
	<path class="st0" d="M394.8,175h1.2l-0.6,7.5h-1.2L394.8,175z M396.3,171.8l-0.1,1.1h-1.1l0.1-1.1H396.3z"/>
	<path class="st0" d="M403.2,176.3c-0.2-0.2-0.6-0.3-0.9-0.4c-0.4-0.1-0.7-0.1-1.1-0.1c-0.2,0-0.4,0-0.6,0.1c-0.2,0-0.4,0.1-0.5,0.2
		c-0.1,0.1-0.3,0.2-0.4,0.3c-0.1,0.1-0.1,0.3-0.1,0.4c0,0.2,0,0.3,0.1,0.4c0.1,0.1,0.2,0.2,0.3,0.3s0.3,0.2,0.5,0.2
		c0.2,0.1,0.4,0.1,0.6,0.2c0.2,0.1,0.4,0.1,0.6,0.2s0.4,0.1,0.6,0.2c0.2,0.1,0.4,0.2,0.6,0.3c0.2,0.1,0.4,0.2,0.5,0.4
		c0.1,0.2,0.2,0.3,0.3,0.5s0.1,0.4,0.1,0.7c0,0.4-0.1,0.7-0.3,1c-0.2,0.3-0.4,0.5-0.7,0.7c-0.3,0.2-0.6,0.3-1,0.4
		c-0.4,0.1-0.8,0.1-1.1,0.1c-0.3,0-0.5,0-0.8,0c-0.3,0-0.5-0.1-0.7-0.1c-0.2-0.1-0.4-0.2-0.6-0.3c-0.2-0.1-0.3-0.2-0.5-0.4l0.4-1
		c0.1,0.2,0.3,0.3,0.4,0.4c0.2,0.1,0.3,0.2,0.5,0.3c0.2,0.1,0.4,0.1,0.6,0.2c0.2,0,0.4,0,0.6,0c0.3,0,0.5,0,0.8-0.1
		c0.2-0.1,0.4-0.1,0.6-0.2c0.2-0.1,0.3-0.2,0.4-0.4c0.1-0.1,0.2-0.3,0.2-0.5c0-0.2,0-0.4-0.1-0.5c-0.1-0.1-0.2-0.3-0.4-0.4
		c-0.2-0.1-0.4-0.2-0.7-0.3c-0.3-0.1-0.5-0.2-0.8-0.3c-0.4-0.1-0.7-0.2-1-0.4c-0.3-0.1-0.5-0.3-0.7-0.4c-0.2-0.2-0.3-0.4-0.4-0.6
		c-0.1-0.2-0.1-0.5-0.1-0.8c0-0.3,0.1-0.6,0.3-0.9c0.2-0.3,0.4-0.5,0.7-0.6c0.3-0.2,0.6-0.3,0.9-0.4c0.3-0.1,0.7-0.1,1-0.1
		c0.5,0,1,0,1.4,0.1c0.4,0.1,0.8,0.3,1,0.5L403.2,176.3z"/>
	<path class="st0" d="M411.5,176.6c-0.2-0.3-0.5-0.5-0.8-0.6c-0.3-0.1-0.7-0.2-1.1-0.2c-0.4,0-0.8,0.1-1.1,0.2
		c-0.3,0.2-0.6,0.4-0.9,0.6c-0.2,0.3-0.4,0.6-0.6,0.9c-0.1,0.4-0.2,0.7-0.3,1.2c0,0.4,0,0.8,0.1,1.1c0.1,0.4,0.2,0.7,0.4,0.9
		c0.2,0.3,0.4,0.5,0.7,0.6c0.3,0.1,0.7,0.2,1.1,0.2c0.8,0,1.6-0.3,2.3-0.8l0.3,1c-0.4,0.3-0.8,0.5-1.2,0.6c-0.4,0.1-0.9,0.2-1.5,0.2
		c-0.6,0-1.1-0.1-1.6-0.3c-0.4-0.2-0.8-0.5-1.1-0.8c-0.3-0.3-0.5-0.8-0.6-1.2c-0.1-0.5-0.2-1-0.1-1.5c0-0.5,0.2-1.1,0.4-1.5
		c0.2-0.5,0.5-0.9,0.8-1.3c0.3-0.4,0.8-0.6,1.2-0.9c0.5-0.2,1-0.3,1.6-0.3c0.6,0,1.1,0.1,1.5,0.3c0.4,0.2,0.8,0.4,1,0.8L411.5,176.6
		z"/>
	<path class="st0" d="M415.8,171.6l-0.3,4.4c0.3-0.4,0.7-0.7,1.1-0.9c0.4-0.2,0.9-0.3,1.5-0.3c0.5,0,1,0.1,1.3,0.3
		c0.3,0.2,0.6,0.4,0.8,0.7c0.2,0.3,0.3,0.6,0.4,1c0.1,0.4,0.1,0.7,0,1.1l-0.4,4.6H419l0.4-4.6c0-0.3,0-0.6,0-0.9
		c0-0.3-0.1-0.5-0.3-0.7c-0.1-0.2-0.3-0.3-0.5-0.4c-0.2-0.1-0.5-0.2-0.9-0.2c-0.3,0-0.7,0.1-0.9,0.2c-0.3,0.1-0.5,0.3-0.7,0.5
		c-0.2,0.2-0.4,0.5-0.5,0.8c-0.1,0.3-0.2,0.6-0.2,0.9l-0.3,4.3h-1.2l0.9-10.9H415.8z"/>
	<path class="st0" d="M429.3,181.6c-0.4,0.3-0.9,0.6-1.4,0.8c-0.5,0.2-1.1,0.2-1.7,0.2c-0.6,0-1.1-0.1-1.6-0.3
		c-0.4-0.2-0.8-0.5-1.1-0.8c-0.3-0.3-0.5-0.8-0.6-1.2c-0.1-0.5-0.2-1-0.1-1.6c0-0.5,0.2-1,0.4-1.5s0.5-0.9,0.8-1.3
		c0.3-0.4,0.8-0.6,1.2-0.9c0.5-0.2,1-0.3,1.6-0.3c0.6,0,1.1,0.1,1.5,0.3c0.4,0.2,0.7,0.4,1,0.8c0.2,0.3,0.4,0.7,0.5,1.2
		c0.1,0.5,0.1,0.9,0.1,1.5c0,0.1,0,0.1,0,0.2c0,0.1,0,0.1,0,0.2h-5.7l0,0.3c0,0.4,0,0.7,0.1,1c0.1,0.3,0.2,0.6,0.4,0.8
		c0.2,0.2,0.4,0.4,0.7,0.5c0.3,0.1,0.6,0.2,1,0.2c0.5,0,1-0.1,1.4-0.3c0.4-0.2,0.8-0.4,1.2-0.8L429.3,181.6z M428.6,178v-0.1
		c0-0.3,0-0.6-0.1-0.9c-0.1-0.3-0.2-0.5-0.4-0.7c-0.2-0.2-0.4-0.3-0.6-0.4c-0.2-0.1-0.5-0.2-0.8-0.2c-0.3,0-0.7,0.1-0.9,0.2
		c-0.3,0.1-0.5,0.3-0.7,0.5c-0.2,0.2-0.4,0.4-0.5,0.7c-0.1,0.3-0.2,0.6-0.3,0.9H428.6z"/>
	<path class="st0" d="M433,182.4h-1.2l0.4-5.7c0-0.3,0-0.6,0.1-0.9c0-0.3,0-0.6,0-0.9h1.2l0,1.1c0.2-0.4,0.5-0.7,0.9-1
		c0.4-0.2,0.8-0.3,1.2-0.3c0.3,0,0.5,0,0.8,0.1l-0.1,1.1c-0.1-0.1-0.2-0.1-0.4-0.1c-0.1,0-0.3,0-0.5,0c-0.3,0-0.6,0.1-0.8,0.2
		c-0.2,0.1-0.5,0.3-0.7,0.5c-0.2,0.2-0.3,0.5-0.5,0.8s-0.2,0.6-0.2,1L433,182.4z"/>
	<polygon class="st0" points="449.2,182.4 441.3,182.4 441.3,181.8 448.3,172.9 442.3,172.9 442.4,171.8 450.1,171.8 450.1,172.5 
		443,181.3 449.3,181.3 	"/>
	<path class="st0" d="M452.1,175l1.4,5.4c0,0.1,0,0.1,0,0.2c0,0.1,0,0.2,0.1,0.2c0,0.1,0,0.2,0.1,0.3c0-0.1,0.1-0.2,0.1-0.2
		c0-0.1,0.1-0.1,0.1-0.2c0-0.1,0.1-0.1,0.1-0.2l2.4-5.5h1.2l1.4,5.4c0,0.1,0,0.1,0,0.2c0,0.1,0,0.2,0.1,0.2c0,0.1,0,0.2,0.1,0.3
		c0-0.1,0.1-0.2,0.1-0.3c0-0.1,0.1-0.1,0.1-0.2c0-0.1,0.1-0.2,0.1-0.2l2.2-5.4h1.2l-3.3,7.5h-1.2l-1.6-6.1l-2.7,6.1h-1.2l-2.1-7.5
		H452.1z"/>
	<path class="st0" d="M470.3,181.6c-0.4,0.3-0.9,0.6-1.4,0.8c-0.5,0.2-1.1,0.2-1.7,0.2c-0.6,0-1.1-0.1-1.6-0.3
		c-0.4-0.2-0.8-0.5-1.1-0.8c-0.3-0.3-0.5-0.8-0.6-1.2c-0.1-0.5-0.2-1-0.1-1.6c0-0.5,0.2-1,0.4-1.5s0.5-0.9,0.8-1.3
		c0.3-0.4,0.8-0.6,1.2-0.9c0.5-0.2,1-0.3,1.6-0.3c0.6,0,1.1,0.1,1.5,0.3c0.4,0.2,0.7,0.4,1,0.8c0.2,0.3,0.4,0.7,0.5,1.2
		c0.1,0.5,0.1,0.9,0.1,1.5c0,0.1,0,0.1,0,0.2c0,0.1,0,0.1,0,0.2H465l0,0.3c0,0.4,0,0.7,0.1,1c0.1,0.3,0.2,0.6,0.4,0.8
		c0.2,0.2,0.4,0.4,0.7,0.5c0.3,0.1,0.6,0.2,1,0.2c0.5,0,1-0.1,1.4-0.3c0.4-0.2,0.8-0.4,1.2-0.8L470.3,181.6z M469.6,178v-0.1
		c0-0.3,0-0.6-0.1-0.9c-0.1-0.3-0.2-0.5-0.4-0.7c-0.2-0.2-0.4-0.3-0.6-0.4c-0.2-0.1-0.5-0.2-0.8-0.2c-0.3,0-0.7,0.1-0.9,0.2
		c-0.3,0.1-0.5,0.3-0.7,0.5c-0.2,0.2-0.4,0.4-0.5,0.7c-0.1,0.3-0.2,0.6-0.3,0.9H469.6z"/>
	<path class="st0" d="M473.3,175h1.2l-0.6,7.5h-1.2L473.3,175z M474.7,171.8l-0.1,1.1h-1.1l0.1-1.1H474.7z"/>
	<path class="st0" d="M476.8,183.8c0.4,0.2,0.8,0.4,1.2,0.5c0.4,0.1,0.8,0.2,1.2,0.2c0.4,0,0.8,0,1.2-0.1c0.3-0.1,0.6-0.2,0.9-0.4
		c0.2-0.2,0.4-0.4,0.6-0.8c0.1-0.3,0.2-0.7,0.3-1.1l0.1-0.9c-0.3,0.4-0.7,0.7-1.2,1c-0.5,0.2-1,0.3-1.5,0.3c-0.5,0-1-0.1-1.4-0.3
		c-0.4-0.2-0.7-0.4-1-0.8c-0.3-0.3-0.5-0.7-0.6-1.2c-0.1-0.5-0.2-1-0.1-1.5c0-0.5,0.2-1,0.3-1.5s0.4-0.9,0.8-1.3
		c0.3-0.4,0.7-0.6,1.2-0.9c0.5-0.2,1-0.3,1.6-0.3c0.6,0,1,0.1,1.4,0.3c0.4,0.2,0.7,0.5,1,0.9c0-0.1,0-0.2,0-0.3c0-0.1,0-0.2,0-0.3
		c0-0.1,0-0.3,0.1-0.4h1.2c0,0.2-0.1,0.5-0.1,0.7c0,0.2,0,0.4-0.1,0.6c0,0.2,0,0.4,0,0.5l-0.4,4.6c0,0.3-0.1,0.7-0.1,1
		c-0.1,0.3-0.2,0.7-0.3,1c-0.1,0.3-0.3,0.6-0.5,0.9c-0.2,0.3-0.5,0.5-0.8,0.7c-0.3,0.2-0.7,0.4-1.1,0.5c-0.4,0.1-0.9,0.2-1.4,0.2
		c-0.5,0-0.9,0-1.4-0.1c-0.4-0.1-0.9-0.2-1.2-0.5L476.8,183.8z M482.4,178.4c0-0.4,0-0.7-0.1-1c-0.1-0.3-0.2-0.6-0.4-0.9
		c-0.2-0.2-0.4-0.4-0.7-0.6c-0.3-0.1-0.6-0.2-1-0.2c-0.4,0-0.7,0.1-1.1,0.2c-0.3,0.2-0.6,0.4-0.8,0.6c-0.2,0.3-0.4,0.6-0.5,0.9
		c-0.1,0.4-0.2,0.7-0.2,1.1c0,0.4,0,0.8,0,1.1c0.1,0.3,0.2,0.6,0.3,0.9c0.2,0.2,0.4,0.4,0.7,0.6c0.3,0.1,0.7,0.2,1.1,0.2
		c0.4,0,0.8-0.1,1.1-0.3c0.3-0.2,0.6-0.4,0.8-0.7c0.2-0.3,0.4-0.6,0.5-1C482.3,179.2,482.4,178.8,482.4,178.4"/>
	<g>
		<path class="st0" d="M261,60.6c0-4.3,2-16.7,4.4-21.6c3.5-7.2,9.7-10.4,17.6-10.4c8.9,0,14.7,4.8,14.7,14c0,4.3-2,16.7-4.4,21.6
			c-3.6,7.2-9.8,10.4-17.6,10.4C266.9,74.5,261,69.8,261,60.6 M283.3,60.4c1.2-2.5,3.2-13.5,3.2-16.8c0-3.1-1.7-5.2-4.9-5.2
			c-2.9,0-5,1.6-6.3,4.2c-1.2,2.5-3.2,13.5-3.2,16.8c0,3.1,1.7,5.2,4.9,5.2C280,64.7,282.1,63.1,283.3,60.4"/>
		<path class="st0" d="M308.1,30c0.1-0.4,0.3-0.7,0.7-0.7h9.3c0.5,0,0.8,0.2,1,0.7l8.4,25.7h0.3l4.6-25.7c0.1-0.4,0.3-0.7,0.7-0.7
			h8.7c0.4,0,0.7,0.3,0.6,0.7l-7.6,43.1c-0.1,0.4-0.3,0.7-0.7,0.7h-9.3c-0.5,0-0.8-0.2-0.9-0.7l-8.4-25.7H315l-4.6,25.7
			c-0.1,0.4-0.3,0.7-0.7,0.7H301c-0.4,0-0.7-0.3-0.6-0.7L308.1,30z"/>
		<path class="st0" d="M412.9,73.1L406,30c0-0.4-0.3-0.7-0.7-0.7h-0.4c-8.2,0.4-12.9,5.6-17,12.6l-16.2,31.1
			c-0.2,0.4-0.1,0.7,0.3,0.7h10.8c0.5,0,0.7-0.3,0.9-0.7l3.3-7h13.8l0.8,7c0.1,0.4,0.3,0.7,0.8,0.7h10
			C412.8,73.8,413,73.5,412.9,73.1 M391.3,56.8l3.2-6.8c1.2-2.5,2.4-4.7,3.8-6.3l1.4,13.1H391.3z"/>
		<path class="st0" d="M374.8,29.5c-6.2,0.7-10.8,5.1-12.3,11.9l-3,16.6c-0.8,4.7-2.9,6.7-6.5,6.7c-2,0-3.4-1-4.4-2.4
			c-0.2-0.3-0.5-0.3-0.8-0.1l-7.7,5.2c-0.3,0.3-0.3,0.6-0.3,0.9c1.6,3.5,6.4,6.3,12,6.3c10.4,0,16.8-5.2,19-17.5l4.8-27
			C375.7,29.5,375.2,29.4,374.8,29.5"/>
		<path class="st0" d="M250.9,50.7l0.1-0.1c4.7-2.5,7.2-6.6,7.2-12c0-5.8-3.8-9.4-12.2-9.4h-7.1v0c-0.6,0-1.3,0.1-1.7,0.1
			c-5.7,1-9.9,5.3-11.3,11.7l-0.2,1.2l0,0L220.2,73c-0.1,0.4,0.2,0.7,0.5,0.7H238c10.5,0,17.3-5.8,17.3-15.1
			C255.4,54.6,253.5,51.8,250.9,50.7 M238,65.3h-5c-0.3,0-0.3-0.1-0.3-0.4l1.7-9.7c0.1-0.3,0.2-0.4,0.5-0.4h5c3.1,0,4.5,1.4,4.5,3.9
			C244.4,62.8,241.8,65.3,238,65.3 M240.7,47.2h-4.5c-0.2,0-0.3-0.1-0.3-0.4l1.6-8.8c0.1-0.3,0.2-0.4,0.5-0.4h4.4
			c2.9,0,4.4,1.2,4.4,3.6C246.8,45,244.2,47.2,240.7,47.2"/>
		<path class="st0" d="M212.8,51.5c0-12.3-9.6-22.2-21.5-22.2c-0.9,0-1.9,0.1-2.8,0.2c-10.1,1.1-17.4,9-19.4,20l-4.1,23.6
			c-0.1,0.4,0.2,0.7,0.5,0.7h16.8c0,0,0.1,0,0.1,0h9.1l0,0C203.4,73.6,212.8,63.7,212.8,51.5"/>
		<path class="st1" d="M184.5,51c-0.1-0.3-0.1-0.7-0.1-1c0-0.1,0-0.2,0-0.4c0,0,0,0,0,0v-0.1c0-0.4,0-0.8,0.1-1.1
			c0-0.2,0.1-0.5,0.2-0.7c0-0.1,0.1-0.3,0.1-0.4c0.1-0.3,0.2-0.6,0.4-0.9c0,0,0.1-0.1,0.1-0.1c0.2-0.3,0.4-0.6,0.6-0.9
			c-0.3-0.3-0.6-0.6-0.9-0.8c-0.1-0.1-0.2-0.1-0.3-0.2c-0.4-0.2-0.8-0.4-1.2-0.6c-0.6-0.2-1.2-0.3-1.8-0.3c-3.3,0-5.9,2.7-5.9,6.1
			c0,2,1,3.9,2.6,5c0.5-0.5,1.2-1,1.8-1.3c1.1-0.6,2.3-1,3.6-1c0.4,0,0.8,0.1,1.3,0.1c0,0,0-0.1,0-0.1c-0.1-0.3-0.2-0.5-0.3-0.8
			C184.6,51.3,184.5,51.1,184.5,51"/>
		<path class="st1" d="M199.8,43.5c-0.6,0-1.2,0.1-1.8,0.3c-0.4,0.2-0.8,0.3-1.2,0.6c-0.1,0.1-0.2,0.1-0.3,0.2
			c-0.3,0.2-0.6,0.5-0.9,0.8c0.1,0.1,0.1,0.2,0.2,0.3c0.1,0.1,0.2,0.3,0.3,0.4c0.2,0.3,0.3,0.6,0.5,0.9c0,0,0,0.1,0.1,0.1
			c0.3,0.8,0.5,1.7,0.5,2.5c0,1-0.2,1.9-0.6,2.8c0.4-0.1,0.8-0.1,1.3-0.1c1,0,2,0.2,2.9,0.6c0.9,0.4,1.8,1,2.5,1.7
			c1.6-1.1,2.6-3,2.6-5C205.8,46.2,203.1,43.5,199.8,43.5"/>
		<path class="st1" d="M194.6,44.4c0.2-0.2,0.4-0.3,0.6-0.5c0.1-0.1,0.2-0.2,0.4-0.3c0.2-0.2,0.5-0.3,0.8-0.5
			c0.2-0.1,0.5-0.3,0.7-0.4c0.1-0.1,0.3-0.2,0.4-0.2c-0.4-3.2-3.4-5.7-6.8-5.7c-3.4,0-6.4,2.5-6.8,5.7c0.2,0.1,0.3,0.2,0.4,0.2
			c0.3,0.1,0.5,0.2,0.7,0.4c0.3,0.1,0.5,0.3,0.8,0.5c0.1,0.1,0.3,0.2,0.4,0.3c0.2,0.1,0.4,0.3,0.5,0.4c1.1-0.9,2.4-1.4,3.9-1.4
			C192.2,43,193.6,43.6,194.6,44.4"/>
		<path class="st1" d="M177.7,59.6c0,0.6,0.1,1.1,0.2,1.7c0.9-0.4,1.9-0.6,2.9-0.6c2.6,0,5.1,1.4,6.5,3.7c1.5-1.2,2.3-2.9,2.3-4.8
			c0-2.5-1.5-4.6-3.6-5.6c-1.7-0.7-3.8-0.5-5.5,0.4C178.8,55.5,177.7,57.4,177.7,59.6"/>
		<path class="st1" d="M191.8,59.6c0,1.9,0.8,3.6,2.3,4.8c1.4-2.3,3.8-3.7,6.5-3.7c1,0,2,0.2,2.9,0.6c0.1-0.5,0.2-1.1,0.2-1.7
			c0-2.2-1.1-4.1-2.9-5.2c-1.7-0.9-3.7-1.1-5.5-0.4C193.3,55,191.8,57.1,191.8,59.6"/>
		<path class="st2" d="M184.5,51c0,0.2,0.1,0.3,0.1,0.5C184.6,51.3,184.5,51.1,184.5,51"/>
		<path class="st2" d="M184.7,47.3c-0.1,0.1-0.1,0.3-0.1,0.4C184.7,47.5,184.7,47.4,184.7,47.3"/>
		<path class="st2" d="M196.1,46.1c0.2,0.3,0.3,0.6,0.5,0.9C196.4,46.6,196.2,46.3,196.1,46.1"/>
		<path class="st2" d="M185.2,46.3c0,0-0.1,0.1-0.1,0.1C185.2,46.4,185.2,46.3,185.2,46.3"/>
		<path class="st2" d="M184.3,50c0-0.1,0-0.3,0-0.4c0,0,0,0,0,0C184.3,49.7,184.3,49.8,184.3,50"/>
		<path class="st2" d="M184.4,48.4c-0.1,0.4-0.1,0.8-0.1,1.2C184.3,49.1,184.4,48.7,184.4,48.4"/>
		<path class="st2" d="M185.1,46.4c-0.1,0.3-0.3,0.6-0.4,0.9C184.9,47,185,46.7,185.1,46.4"/>
		<path class="st2" d="M185.8,45.4L185.8,45.4c-0.2,0.3-0.4,0.6-0.6,0.9C185.4,45.9,185.6,45.6,185.8,45.4"/>
		<path class="st2" d="M184.6,47.7c-0.1,0.2-0.1,0.4-0.2,0.7C184.5,48.1,184.5,47.9,184.6,47.7"/>
		<path class="st2" d="M184.9,52.3c-0.1-0.3-0.2-0.5-0.3-0.8C184.7,51.7,184.8,52,184.9,52.3"/>
		<path class="st2" d="M184.3,50c0,0.3,0,0.7,0.1,1C184.4,50.6,184.4,50.3,184.3,50"/>
		<path class="st2" d="M184.3,49.6L184.3,49.6L184.3,49.6z"/>
		<path class="st2" d="M195.8,45.6c0.1,0.1,0.2,0.3,0.3,0.4C196,45.9,195.9,45.8,195.8,45.6"/>
		<path class="st2" d="M196.6,47.1c0-0.1,0-0.1-0.1-0.1C196.5,47,196.6,47,196.6,47.1"/>
		<path class="st2" d="M191.4,54.9c2.5-0.4,4.4-2.6,4.4-5.2c0-0.3-0.1-0.6-0.1-0.8h-4.3V54.9z"/>
		<path class="st2" d="M185.7,48.8c0,0.3-0.1,0.6-0.1,0.8c0,2.6,1.9,4.8,4.4,5.2v-6.1H185.7z"/>
		<path class="st2" d="M190,44.4c-1.7,0.3-3.1,1.4-3.8,2.9h3.8V44.4z"/>
		<path class="st2" d="M195.3,47.3c-0.7-1.5-2.2-2.6-3.8-2.9v2.9H195.3z"/>
		<path class="st0" d="M168.4,96.7c-7.5-1.5-14.2-0.3-20.1,3.5c-10.1,6.6-15,16.6-14.3,29.5c0.3,5.2,2.4,9.6,6.1,12.7
			c3.4,2.8,7.5,4.3,12.6,4.6c0.8,0,1.5,0.1,2.2,0.1c8,0,14.6-2.1,20-6.5c1-0.8,0.8-1.8,0.7-2.3c-0.4-2.4-0.9-4.9-1.4-7.2
			c-0.1-0.4-0.3-0.6-0.7-0.8c-0.3-0.1-0.7-0.1-1,0.2c-0.3,0.3-0.7,0.6-1,0.8c-5.2,4.4-10.7,6.3-16.9,5.9c-8.1-0.5-9.5-6.5-9.2-11.4
			c0.1-1.2,0.2-1.3,1.3-1.3c4.9,0,9.8,0,14.7,0c5.5,0,10.9,0,16.4,0h0c1.4,0,2-0.5,2.3-1.9c0.8-3.6,1.1-7.2,0.9-10.7
			C180.7,104.1,175.8,98.2,168.4,96.7 M148.2,114.8c2.1-5.2,7.7-8.8,13.1-8.8c0.8,0,1.6,0.1,2.3,0.2c3.7,0.8,5.8,3.4,6.1,7.5
			c0,0.4,0,0.7,0,1.2c-0.1,0.4-0.2,0.4-0.4,0.4l-20.7,0c-0.3,0-0.4,0-0.4-0.1C148.2,115.2,148.1,115.1,148.2,114.8"/>
		<path class="st0" d="M407.7,100.7c-3.9-3.2-8.7-4.6-15.4-4.5c-5.2,0.1-9.9,1.4-13.9,3.9c-10.6,6.6-15.6,16.4-14.8,29.3
			c0.5,7.9,4.6,13.6,11.8,16.2c3.3,1.2,6.5,1.8,9.7,1.8c5,0,10-1.4,14.8-4.3c10-6,16-18.9,14.2-30.6
			C413.3,107.4,411.2,103.5,407.7,100.7 M402.6,118c-0.4,6.3-2.2,10.9-5.5,14.6c-3.7,4-8.3,5.6-13.8,4.6c-4.7-0.8-7.6-4.2-8-9.2
			c-0.7-7.8,1.9-14.1,7.5-18.7c2.6-2.1,5.5-3.2,8.8-3.2c1.2,0,2.5,0.1,3.8,0.4c3.9,0.9,6.7,4.2,7.1,8.6c0.1,0.8,0.1,1.6,0.2,2.3
			L402.6,118z"/>
		<path class="st0" d="M97.6,96.9c-3.2-0.9-6.7-1-10.6-0.3c-3.1,0.5-6,1.8-8.9,3.7c0.1-0.4,0.1-1,0.2-1.6c0.1-0.5,0-0.8-0.2-1.1
			c-0.1-0.1-0.4-0.3-0.8-0.3l-8.3,0c-1,0-1.8,0.7-1.9,1.6c-0.8,4.9-5.1,30.3-7.7,45.6c-0.1,0.4,0,0.8,0.3,1.1c0.3,0.3,0.6,0.5,1,0.5
			H69c0.6,0,1.2-0.5,1.3-1.1c0.1-0.7,0.4-2.1,0.7-4.1c1.4-7.8,4.2-24.1,4.9-26c2.2-5.6,9.4-9.6,15.6-8.6c2.3,0.4,3.9,2.1,4.1,4.3
			c0.4,5-1.2,13.4-2.4,20.2c-0.3,1.7-0.6,3.3-0.8,4.6c-0.4,2.3-0.8,4.6-1.2,7l-0.4,2.3c-0.1,0.3,0,0.7,0.3,0.9
			c0.2,0.3,0.5,0.4,0.9,0.4l9,0c0.5,0,1-0.4,1.1-0.9c1.1-5.9,2.2-12.4,3.2-18.6l0.6-3.4c0.9-5.1,1.6-9.6,1.2-14.4
			C106.5,102.8,103,98.3,97.6,96.9"/>
		<path class="st0" d="M61.9,98.7c0.1-0.4,0-0.7-0.3-1c-0.2-0.3-0.6-0.4-0.9-0.4l-8.8,0c-0.6,0-1.1,0.4-1.2,1
			c-1.3,7.7-2.7,15.4-4.1,23.2c-1.4,7.7-2.7,15.4-4,23.1c-0.1,0.4,0,0.7,0.3,1c0.2,0.3,0.6,0.4,0.9,0.4c0.5,0,1.1,0,1.8,0
			c2.4,0,5.6,0,7.1,0c0.6,0,1.1-0.4,1.2-1c1.2-7.1,3.2-18.7,5-28.7C60.3,108.3,61.5,101.4,61.9,98.7"/>
		<path class="st0" d="M53.2,94.1h8.3c0.6,0,1.1-0.4,1.2-1l1.4-8.3c0.1-0.4,0-0.7-0.3-1c-0.2-0.3-0.6-0.4-0.9-0.4h-8.2
			c-0.6,0-1.1,0.4-1.2,1C53,87,52.5,90,52,92.7c-0.1,0.4,0,0.7,0.3,1C52.5,94,52.9,94.1,53.2,94.1"/>
		<path class="st0" d="M362,97.3l-8.8,0c-0.6,0-1.1,0.4-1.2,1c-1.3,7.7-2.7,15.4-4.1,23.2c-1.4,7.7-2.7,15.4-4,23.1
			c-0.1,0.4,0,0.7,0.3,1c0.2,0.3,0.6,0.4,0.9,0.4c0.5,0,1.1,0,1.8,0c2.4,0,5.6,0,7.1,0c0.6,0,1.1-0.4,1.2-1c1.2-7,3.2-18.4,4.9-28.2
			c1.4-8.2,2.7-15.4,3.1-18.1c0.1-0.4,0-0.7-0.3-1C362.7,97.5,362.4,97.3,362,97.3"/>
		<path class="st0" d="M354.5,94.1h8.3c0.6,0,1.1-0.4,1.2-1l1.4-8.3c0.1-0.4,0-0.7-0.3-1c-0.2-0.3-0.6-0.4-0.9-0.4H356
			c-0.6,0-1.1,0.4-1.2,1v0c-0.5,2.6-1,5.6-1.5,8.3c-0.1,0.4,0,0.7,0.3,1C353.8,94,354.2,94.1,354.5,94.1"/>
		<path class="st0" d="M214.2,107c0.3,0,0.5,0.1,0.8,0.1c0.2,0,0.5,0,0.7-0.2c0.2-0.1,0.3-0.4,0.4-0.6l1.2-7.9c0-0.2,0-0.5-0.2-0.7
			c-0.1-0.2-0.3-0.3-0.6-0.3c-2.4-0.3-5-0.2-7.8,0.3c-3.4,0.6-6.1,1.7-8.7,3.4l0.4-3.1c0-0.2,0-0.4-0.2-0.6
			c-0.1-0.2-0.4-0.3-0.6-0.3h-8.6c-1,0-1.8,0.7-1.9,1.6c-0.8,4.9-5.1,30.3-7.8,45.6c-0.1,0.4,0,0.8,0.3,1.1c0.3,0.3,0.6,0.5,1,0.5
			h8.3c0.6,0,1.2-0.5,1.3-1.1c0.1-0.7,0.4-2.5,0.8-4.8c1.3-7.8,3.8-22.3,4.5-24.2c2.2-5.8,9.7-10.1,15.7-9.1
			C213.7,106.9,214,107,214.2,107"/>
		<path class="st0" d="M130.2,135.8c-3.8,1.5-5.4,1.8-7.4,2.1c-0.7,0.1-1.3-0.1-1.7-0.5c-0.4-0.4-0.6-0.9-0.5-1.5
			c0.5-4.4,2.3-16.2,3.4-22.4c0.4-2.3,1.2-6.5,1.4-7.6h10.2c0.3,0,0.9,0,1.1-0.9c0.3-1.5,0.6-3.5,0.9-5.1c0.1-0.7,0.2-1.3,0.3-1.7
			c0-0.3,0-0.5-0.2-0.7c-0.2-0.2-0.4-0.3-0.7-0.3H127c-0.1,0-0.1,0-0.1-0.1c0,0-0.1-0.1,0-0.1l2.2-12.9c0.1-0.3-0.1-0.7-0.3-0.9
			c-0.2-0.2-0.6-0.3-0.9-0.2c-1,0.3-1.8,0.5-2.6,0.7c-1.7,0.5-3.1,0.8-5.2,1.4c-2.5,0.7-2.8,3-3,3.8l0,0.2
			c-0.7,3.4-5.4,29.8-6.3,35.8l0,0.2c-0.6,3.9-1.2,7.9-1.4,11.9c-0.2,4.7,2.3,8.4,6.4,9.5c1.7,0.5,3.4,0.7,5.1,0.7
			c2.8,0,5.6-0.7,8.3-2c0.4-0.2,0.9-0.7,1-1.2c0.4-2,0.7-4,1.1-6.1l0.2-1.1c0.1-0.3-0.1-0.6-0.3-0.9
			C130.8,135.8,130.5,135.7,130.2,135.8"/>
		<path class="st0" d="M253.4,96.9c-3.2-0.9-6.7-1-10.6-0.3c-3.1,0.5-6,1.8-8.9,3.7c0.1-0.4,0.1-1,0.2-1.6c0.1-0.5,0-0.8-0.2-1.1
			c-0.1-0.1-0.4-0.3-0.8-0.3l-8.3,0c-1,0-1.8,0.7-1.9,1.6c-0.8,4.9-5.1,30.3-7.7,45.6c-0.1,0.4,0,0.8,0.3,1.1c0.3,0.3,0.6,0.5,1,0.5
			h8.3c0.6,0,1.2-0.5,1.3-1.1c0.1-0.7,0.4-2.1,0.7-4.1c1.4-7.8,4.2-24.1,4.9-26c2.2-5.6,9.4-9.6,15.6-8.6c2.3,0.4,3.9,2.1,4.1,4.3
			c0.4,5-1.2,13.4-2.4,20.2c-0.3,1.7-0.6,3.3-0.8,4.6c-0.4,2.3-0.8,4.7-1.2,7l-0.4,2.3c-0.1,0.3,0,0.7,0.2,0.9
			c0.2,0.3,0.5,0.4,0.9,0.4l9,0c0.5,0,1-0.4,1.1-0.9c1.1-5.9,2.2-12.4,3.2-18.6l0.6-3.4c0.9-5.1,1.6-9.6,1.2-14.4
			C262.2,102.8,258.7,98.3,253.4,96.9"/>
		<path class="st0" d="M452.9,96.9c-3.2-0.9-6.7-1-10.6-0.3c-3.1,0.5-6,1.8-8.9,3.7c0.1-0.4,0.1-1,0.2-1.6c0.1-0.5,0-0.8-0.2-1.1
			c-0.1-0.1-0.4-0.3-0.8-0.3l-8.3,0c-1,0-1.8,0.7-1.9,1.6c-0.8,5-5.1,30.5-7.7,45.6c-0.1,0.4,0,0.8,0.3,1.1c0.3,0.3,0.6,0.5,1,0.5
			h8.3c0.6,0,1.2-0.5,1.3-1.1c0.1-0.7,0.4-2.1,0.7-4.1c1.4-7.8,4.2-24.1,4.9-26c2.2-5.6,9.4-9.6,15.6-8.6c2.3,0.4,3.9,2.1,4.1,4.3
			c0.4,5-1.2,13.4-2.4,20.2c-0.3,1.7-0.6,3.3-0.8,4.6c-0.4,2.3-0.8,4.6-1.2,6.9l-0.4,2.5c-0.1,0.3,0,0.7,0.2,0.9
			c0.2,0.3,0.5,0.4,0.9,0.4l9,0c0.5,0,1-0.4,1.1-0.9c1.1-6,2.2-12.5,3.3-18.8l0.6-3.3c0.9-5.1,1.6-9.6,1.2-14.4
			C461.8,102.8,458.3,98.3,452.9,96.9"/>
		<path class="st0" d="M537,83.9c0-0.3-0.1-0.6-0.3-0.8c-0.2-0.2-0.6-0.3-0.9-0.2c-1,0.3-1.8,0.5-2.6,0.7c-1.7,0.5-3.2,0.8-5.2,1.5
			c-0.9,0.3-1.6,0.8-2.1,1.5c-0.6,0.9-0.8,1.9-0.9,2.3l0,0.2c-0.1,0.4-0.3,1.8-0.3,1.8h0l-0.5,2.6c-1.6,8.8-4.7,26.5-5.5,31.4
			c-0.2,1.2-0.4,2.3-0.5,3.5l-2.8,16.5c-0.1,0.6,0.4,1.2,1,1.2h9.1c0.5,0,0.9-0.4,1-0.9l10.3-60L537,83.9z"/>
		<path class="st0" d="M319.2,98.4c0.1-0.3,0-0.6-0.2-0.8c-0.2-0.2-0.4-0.3-0.7-0.3c-1.9,0-7.2,0-9.1,0c-0.5,0-1,0.4-1.1,0.9
			c-0.2,0.8-0.4,1.8-0.6,2.5c-0.4-0.3-0.8-0.5-1.3-0.8c-1.2-0.8-2.4-1.5-3.6-2c-7.2-2.7-14.4-2.2-21.5,1.7
			c-10.4,5.7-17.1,20.5-14.6,32.2c1.5,7,5,11.5,10.9,13.9c2.6,1.1,5.3,1.6,8.1,1.6c1.8,0,3.7-0.2,5.6-0.7c2.3-0.6,4.5-1.5,6.7-2.3
			c0.8-0.3,1.5-0.6,2.3-0.9c0,0.1,0,0.2-0.1,0.3c-0.1,0.4-0.2,0.8-0.3,1.4c0,0.2,0,0.5,0.2,0.7c0.2,0.2,0.4,0.3,0.7,0.3l9.4,0
			c0.4,0,0.9-0.3,1.1-0.9c0.2-1.3,1.5-8.4,2.9-16.6c1.4-8.1,3-17.1,3.9-22.2c0.3-1.7,0.6-3.5,1-5.3L319.2,98.4z M296.1,134.4
			c-2.4,2.1-5.4,3.1-8.8,3.1c-8.4-0.1-10-5.8-10.2-9.2c-0.6-8.5,2-14.8,7.8-19.5c2.4-1.9,5.1-2.8,8.1-2.8c1.4,0,2.8,0.2,4.3,0.6
			c4.1,1.1,6.6,4.2,6.8,8.4C304.5,123.1,301.8,129.6,296.1,134.4"/>
		<path class="st0" d="M517.3,101.2l0.5-2.7c0.1-0.3,0-0.6-0.2-0.8c-0.2-0.2-0.4-0.3-0.7-0.3c-1.9,0-7.2,0-9.1,0
			c-0.6,0-1,0.4-1.1,0.9c-0.2,0.8-0.4,1.8-0.6,2.5c-0.4-0.3-0.8-0.5-1.3-0.8c-1.2-0.8-2.4-1.5-3.6-2c-7.2-2.7-14.4-2.2-21.5,1.7
			c-10.4,5.7-17.1,20.5-14.6,32.2c1.5,7,5,11.5,10.9,13.9c2.6,1.1,5.3,1.6,8.1,1.6c1.8,0,3.7-0.2,5.6-0.7c2.3-0.6,4.5-1.5,6.7-2.3
			c0.8-0.3,1.5-0.6,2.3-0.9c0,0.1,0,0.2-0.1,0.3c-0.1,0.4-0.2,0.8-0.3,1.4c0,0.2,0,0.5,0.2,0.7c0.2,0.2,0.4,0.3,0.7,0.3l9.4,0h0
			c0.4,0,0.9-0.3,1.1-0.9c0.2-1.3,1.5-8.4,2.9-16.6c1.4-8.1,3-17.1,3.9-22.1C516.6,104.7,516.9,102.9,517.3,101.2 M494.7,134.5
			c-2.4,2.1-5.4,3.1-8.8,3.1c-8.4-0.1-10-5.8-10.2-9.2c-0.6-8.5,2-14.8,7.8-19.5c2.4-1.9,5.1-2.8,8.1-2.8c1.4,0,2.8,0.2,4.3,0.6
			c4.1,1.1,6.6,4.2,6.8,8.4C503.1,123.1,500.4,129.6,494.7,134.5"/>
		<path class="st0" d="M339.2,135.8c-3.8,1.5-5.4,1.8-7.4,2.1c-0.7,0.1-1.3-0.1-1.7-0.5c-0.4-0.4-0.6-0.9-0.5-1.5
			c0.5-4.4,2.3-16.2,3.4-22.4c0.4-2.3,1.2-6.5,1.4-7.6h10.2c0.3,0,0.9,0,1.1-0.9c0.3-1.5,0.6-3.6,0.9-5.2c0.1-0.7,0.2-1.2,0.3-1.6
			c0-0.3,0-0.5-0.2-0.7c-0.2-0.2-0.4-0.3-0.7-0.3H336c-0.1,0-0.1,0-0.1-0.1c0,0,0-0.1,0-0.1l2.2-12.9c0.1-0.3-0.1-0.7-0.3-0.9
			c-0.2-0.2-0.6-0.3-0.9-0.2c-1,0.3-1.8,0.5-2.6,0.7c-1.7,0.5-3.1,0.8-5.2,1.4c-2.5,0.7-2.8,3-3,3.8l0,0.2
			c-0.7,3.4-5.4,29.8-6.3,35.8l0,0.2c-0.6,3.9-1.2,7.9-1.4,11.9c-0.2,4.7,2.3,8.4,6.4,9.5c1.7,0.5,3.4,0.7,5.1,0.7
			c2.8,0,5.6-0.7,8.3-2c0.4-0.2,0.9-0.7,1-1.2c0.4-2,0.7-3.9,1-6l0.2-1.2c0.1-0.3-0.1-0.6-0.3-0.9
			C339.9,135.8,339.5,135.7,339.2,135.8"/>
	</g>
</g>
</svg>
