<?xml version="1.0" encoding="utf-8"?>
<!-- Generator: Adobe Illustrator 27.6.1, SVG Export Plug-In . SVG Version: 6.00 Build 0)  -->
<svg version="1.1" id="Layer_1" xmlns="http://www.w3.org/2000/svg" xmlns:xlink="http://www.w3.org/1999/xlink" x="0px" y="0px"
	 viewBox="0 0 595.3 353.7" style="enable-background:new 0 0 595.3 353.7;" xml:space="preserve">
<style type="text/css">
	.st0{fill:#FFFFFF;}
	.st1{fill:#1C3F86;}
	.st2{fill:#2681C4;}
</style>
<g>
	<g>
		<path class="st0" d="M333,146l-1.7,9.6h13.1l-0.8,4.3h-13.1l-2.4,13.3h-4.8l5.7-31.5h20.1l-0.8,4.3H333z"/>
		<path class="st0" d="M365.4,173.2l-1-6.3h-12.4l-3.3,6.3h-5.1l17.3-31.5h3.9l5.8,31.5H365.4z M361.5,148.9l-7.5,14h9.7
			L361.5,148.9z"/>
		<path class="st0" d="M396.3,168c-0.9,1.2-1.9,2.2-3,3.1c-1.1,0.8-2.4,1.4-3.7,1.9c-1.3,0.4-2.7,0.6-4.1,0.6
			c-1.7,0-3.1-0.3-4.4-0.9c-1.3-0.6-2.4-1.4-3.3-2.5c-0.6-0.8-1.1-1.6-1.3-2.4c-0.3-0.9-0.4-1.8-0.4-2.8c0-1,0.1-2.1,0.3-3.3
			c0.2-1.2,0.4-2.6,0.7-4.1c0.3-1.5,0.5-2.9,0.8-4.1c0.2-1.2,0.6-2.3,0.9-3.3c0.4-1,0.8-1.9,1.4-2.8c0.6-0.9,1.3-1.7,2.2-2.4
			c1.3-1.1,2.7-1.9,4.2-2.5c1.5-0.6,3.1-0.9,4.7-0.9c2.9,0,5.2,0.8,6.9,2.5c1.7,1.7,2.6,4.1,2.5,7.2h-4.9c-0.1-1.6-0.6-2.9-1.4-3.9
			c-0.9-1-2.2-1.5-4-1.5c-0.9,0-1.8,0.2-2.7,0.5c-0.9,0.3-1.6,0.8-2.3,1.4c-0.5,0.4-0.9,0.9-1.2,1.4c-0.3,0.5-0.6,1.1-0.9,1.8
			c-0.3,0.7-0.5,1.6-0.8,2.7c-0.3,1.1-0.5,2.4-0.8,4c-0.3,1.6-0.5,2.9-0.6,4c-0.1,1.1-0.2,2-0.2,2.7c0,0.7,0.1,1.3,0.2,1.8
			c0.2,0.5,0.4,0.9,0.7,1.4c0.5,0.6,1,1.1,1.8,1.4c0.7,0.3,1.6,0.5,2.5,0.5c1.8,0,3.3-0.5,4.5-1.5c1.2-1,2.2-2.3,2.9-3.9h4.8
			C397.9,165.4,397.1,166.8,396.3,168z"/>
		<path class="st0" d="M426.2,167.1c-0.8,1.3-1.8,2.5-3,3.4c-1.2,0.9-2.5,1.7-4,2.2c-1.5,0.5-3,0.8-4.6,0.8c-1.6,0-3-0.3-4.3-0.8
			c-1.3-0.5-2.4-1.3-3.2-2.2c-0.8-0.9-1.4-2.1-1.7-3.4c-0.3-1.3-0.3-2.8-0.1-4.5l3.8-20.9h4.8l-3.8,20.7c-0.4,2.1-0.1,3.8,0.9,5
			c1,1.2,2.4,1.8,4.4,1.8c2,0,3.7-0.6,5.1-1.8c1.4-1.2,2.3-2.9,2.7-5l3.8-20.7h4.8l-3.8,20.9C427.6,164.2,427,165.7,426.2,167.1z"/>
		<path class="st0" d="M434.5,173.2l5.7-31.5h4.8L440,169h15.2l-0.8,4.3H434.5z"/>
		<path class="st0" d="M485.3,160.8c-0.2,1.2-0.5,2.3-0.9,3.5c-0.4,1.1-0.9,2.2-1.5,3.2c-0.6,1-1.5,2-2.5,2.8c-1.2,1-2.5,1.7-4,2.2
			c-1.5,0.5-3,0.7-4.7,0.7h-11.1l5.7-31.5h11.1c1.7,0,3.1,0.2,4.4,0.7c1.3,0.5,2.4,1.2,3.2,2.2c0.7,0.9,1.2,1.8,1.4,2.8
			c0.3,1,0.4,2,0.4,3.1c0,1.1-0.1,2.2-0.3,3.3c-0.2,1.1-0.4,2.3-0.6,3.4C485.7,158.4,485.5,159.6,485.3,160.8z M481.9,151.8
			c0.1-1.5-0.1-2.7-0.8-3.6c-1-1.4-2.7-2.1-5-2.1h-5.8l-4.2,22.9h5.8c2.3,0,4.2-0.7,5.7-2.1c1-0.9,1.7-2.2,2.2-3.8
			c0.4-1.6,0.9-3.5,1.3-5.7C481.5,155.1,481.8,153.2,481.9,151.8z"/>
		<path class="st0" d="M508.5,173.2l-1-6.3h-12.4l-3.3,6.3h-5.1l17.3-31.5h3.9l5.8,31.5H508.5z M504.7,148.9l-7.5,14h9.7
			L504.7,148.9z"/>
		<path class="st0" d="M543.5,160.8c-0.2,1.2-0.5,2.3-0.9,3.5c-0.4,1.1-0.9,2.2-1.5,3.2c-0.6,1-1.5,2-2.5,2.8c-1.2,1-2.5,1.7-4,2.2
			c-1.5,0.5-3,0.7-4.7,0.7h-11.1l5.7-31.5h11.1c1.7,0,3.1,0.2,4.4,0.7c1.3,0.5,2.4,1.2,3.2,2.2c0.7,0.9,1.2,1.8,1.4,2.8
			c0.3,1,0.4,2,0.4,3.1c0,1.1-0.1,2.2-0.3,3.3c-0.2,1.1-0.4,2.3-0.6,3.4C543.9,158.4,543.7,159.6,543.5,160.8z M540.1,151.8
			c0.1-1.5-0.1-2.7-0.8-3.6c-1-1.4-2.7-2.1-5-2.1h-5.8l-4.2,22.9h5.8c2.3,0,4.2-0.7,5.7-2.1c1-0.9,1.7-2.2,2.2-3.8
			c0.4-1.6,0.9-3.5,1.3-5.7C539.8,155.1,540,153.2,540.1,151.8z"/>
		<path class="st0" d="M549.1,173.2l5.7-31.5H575l-0.8,4.3h-15.4l-1.7,9.2h13.1l-0.8,4.3h-13.1l-1.7,9.5H570l-0.8,4.3H549.1z"/>
	</g>
	<path class="st0" d="M194.3,105.8c0-37.5-30.4-67.8-67.8-67.8c-3,0-5.8,0.3-8.7,0.6C85.9,41.9,63,66,56.8,99.8l-12.8,71.9
		c-0.2,1.2,0.6,2,1.6,2h52.8c0.1,0,0.3,0,0.4,0h28.7l0.1,0C164.6,173.1,194.3,142.9,194.3,105.8z"/>
	<path class="st1" d="M105,104c-0.2-1-0.3-2-0.3-3c0-0.4-0.1-0.7-0.1-1.1c0,0,0,0,0-0.1l0,0c0-0.1,0-0.1,0-0.2
		c0-1.2,0.2-2.4,0.4-3.5c0.1-0.7,0.4-1.4,0.6-2.1c0.1-0.4,0.2-0.9,0.4-1.3c0.3-0.9,0.8-1.8,1.2-2.6c0.1-0.1,0.2-0.3,0.2-0.4
		c0.6-1,1.2-1.9,2-2.8c-0.9-0.9-1.8-1.8-2.9-2.5c-0.3-0.2-0.6-0.3-0.9-0.5c-1.2-0.7-2.5-1.3-3.8-1.7c-1.8-0.6-3.8-1-5.8-1
		c-10.3,0-18.6,8.3-18.6,18.5c0,6.2,3.1,11.9,8.2,15.3c1.7-1.6,3.6-2.9,5.7-4c3.3-1.9,7.1-3.1,11.2-3.1c1.4,0,2.7,0.2,4,0.4
		c-0.1-0.1-0.1-0.2-0.1-0.4c-0.3-0.8-0.6-1.6-0.8-2.5C105.3,105,105.1,104.5,105,104z"/>
	<path class="st1" d="M153.4,81.2c-2,0-3.9,0.4-5.8,1c-1.3,0.5-2.6,1-3.8,1.7c-0.3,0.2-0.6,0.3-0.9,0.5c-1.1,0.7-2,1.6-2.9,2.5
		c0.2,0.3,0.4,0.6,0.6,0.9c0.3,0.4,0.6,0.8,0.9,1.3c0.6,0.8,1,1.7,1.4,2.6c0.1,0.1,0.1,0.3,0.2,0.4c1,2.4,1.7,5.1,1.7,7.8
		c0,2.9-0.7,5.8-1.9,8.4c1.3-0.2,2.6-0.4,4-0.4c3.2,0,6.3,0.7,9.1,1.9c2.9,1.2,5.6,2.9,7.9,5.2c5.1-3.4,8.2-9.1,8.2-15.3
		C172.1,89.5,163.7,81.2,153.4,81.2z"/>
	<path class="st1" d="M137.1,84.2c0.6-0.5,1.2-1,1.8-1.4c0.4-0.3,0.8-0.6,1.2-0.9c0.8-0.5,1.6-1,2.4-1.5c0.8-0.4,1.5-0.8,2.4-1.1
		c0.5-0.2,0.9-0.5,1.4-0.7c-1.4-9.7-10.7-17.4-21.5-17.4c-10.8,0-20.1,7.7-21.5,17.4c0.5,0.2,0.9,0.5,1.4,0.7
		c0.8,0.3,1.6,0.7,2.3,1.1c0.8,0.5,1.6,0.9,2.4,1.5c0.4,0.3,0.8,0.6,1.2,1c0.6,0.5,1.2,0.9,1.7,1.4c3.4-2.7,7.7-4.4,12.4-4.4
		C129.4,79.7,133.7,81.4,137.1,84.2z"/>
	<path class="st1" d="M83.8,130.4c0,1.7,0.2,3.4,0.7,5.1c2.9-1.2,5.9-1.8,9.1-1.8c8.3,0,16.1,4.4,20.4,11.4
		c4.6-3.6,7.2-8.9,7.2-14.7c0-7.6-4.6-14.1-11.2-17c-5.5-2.2-12-1.7-17.4,1.2C87.4,117.9,83.8,123.7,83.8,130.4z"/>
	<path class="st1" d="M128.2,130.4c0,5.8,2.7,11.1,7.2,14.7c4.3-7,12.1-11.4,20.4-11.4c3.2,0,6.3,0.6,9.1,1.8
		c0.5-1.7,0.7-3.4,0.7-5.1c0-6.7-3.6-12.5-9-15.8c-5.3-2.8-11.8-3.4-17.3-1.2C132.8,116.3,128.2,122.8,128.2,130.4z"/>
	<path class="st2" d="M127,116.1c7.8-1.2,14-7.9,14-16c0-0.8-0.2-1.7-0.4-2.6H127V116.1z"/>
	<path class="st2" d="M108.8,97.5c-0.1,0.9-0.3,1.7-0.3,2.6c0,8.1,6.1,14.8,13.9,16V97.5H108.8z"/>
	<path class="st2" d="M122.4,84.1c-5.3,0.8-9.8,4.2-12.1,8.8h12.1V84.1z"/>
	<path class="st2" d="M139.1,93c-2.3-4.7-6.8-8-12.1-8.8V93H139.1z"/>
	<path class="st0" d="M529.4,193.4c-20.8,0-37.4,8.3-46.7,27.6c-6.4,13-11.6,46-11.6,57.5c0,24.5,15.6,37.2,39.3,37.2
		c20.7,0,37.2-8.3,46.7-27.6c2-4,3.8-10,5.5-16.6l0,0c0.6-1.8,0-3.3-2-3.5h-24.2c-2.3,0.1-3.2,2.2-3.6,3.4c-0.8,3-1.6,5.4-2.2,6.8
		c-3.3,7-8.9,11.3-16.7,11.3c-8.5,0-13-5.4-13-13.7c0-8.9,5.2-38,8.5-44.8c3.3-6.9,8.9-11.3,16.7-11.3c8.5,0,13,5.4,13,13.7
		c0,1.5-0.2,3.6-0.4,6.1c0,2.2,1.5,2.4,3.6,2.4l0,0h22.3l0,0c2.1,0,3.6-0.2,3.6-2.5l0,0.1c0.4-3.6,0.6-6.6,0.6-8.9
		C568.7,206.1,553.1,193.4,529.4,193.4z"/>
	<path class="st0" d="M360.8,298.9c-0.5-0.7-0.7-2.1,0.3-3l17.7-17c0.9-0.9,2.1-0.9,2.6-0.2c5.6,6.1,15.5,11.3,26.8,11.3
		c11.5,0,18.6-5.9,18.6-13.6c0-4.5-2.8-7.5-12.5-9l-5.9-0.9c-21-3-32.5-13.2-32.5-30.1c0-25.7,19.5-43.1,48.7-43.1
		c15.8,0,30.1,5.4,39.1,13.2c0.9,0.7,0.9,1.6-0.2,2.6l-15.3,17.6c-0.9,0.9-1.9,1-2.6,0.5c-6.9-5.4-14.6-8.3-23.6-8.3
		c-8.9,0-15.3,5.4-15.3,12.2c0,4.5,3,7.6,12.9,9l5.7,0.9c21,3.1,32.5,12.9,32.5,29.7c0,28.1-21.4,45-52.8,45
		C386.5,315.7,368.1,307.7,360.8,298.9z"/>
	<path class="st0" d="M167.2,195.5h-42.4c-20.1,0.7-35.3,14.3-39.9,34.6l-14.5,81.8c-0.2,1,0.5,1.7,1.4,1.7h74.5
		c1,0,1.7-0.7,1.9-1.7l3.8-21.5c0.2-1-0.3-1.7-1.4-1.7h-45.9c-0.7,0-0.9-0.3-0.9-1l3.7-20.2c0.2-0.7,0.5-1,1-1h37.7
		c1,0,1.9-0.7,2.1-1.7l3.6-21.2c0.2-1-0.3-1.7-1.4-1.7h-37.5c-0.7,0-1-0.3-0.9-1l1.1-6.1c1.8-7.9,8.1-13.9,16.4-14.1h33.1
		c0.9,0,1.7-0.7,1.9-1.7l3.8-21.5C168.8,196.2,168.2,195.5,167.2,195.5z"/>
	<path class="st0" d="M70.1,196.6c0.1-1.4-1.4-1.6-2.3-1.5c-16.4,2-28.4,13.5-32.4,31.6l-2.8,16.1l-12.2,69.1
		c-0.2,1,0.5,1.7,1.6,1.7H48c1,0,1.6-0.7,1.7-1.7l14.8-83.6L70.1,196.6z"/>
	<path class="st0" d="M247.7,287.4h-44.8c-0.4,0-0.7-0.2-0.7-0.7l10.4-58.6l5.7-31.5c0.1-1.4-1.4-1.6-2.3-1.5
		c-16.5,2-28.6,13.5-32.6,31.6l-3.1,17.7l-6.1,34.3h0l-5.9,33.3c-0.2,1,0.5,1.7,1.6,1.7h0h26.2h47.2c1,0,1.7-0.7,1.9-1.7l4-22.8
		C249.2,288.1,248.7,287.4,247.7,287.4z"/>
	<path class="st0" d="M366.1,196.6c0.1-1.4-1.4-1.6-2.3-1.5c-16.5,2-28.6,13.5-32.6,31.6l-3.8,21.4h0l-3.9,22
		c-2.6,14.2-9,19.5-18.9,19.5c-9.9,0-14.9-7.1-12.7-19.5l12.9-72.8c0.2-1-0.5-1.7-1.6-1.7h-26.1c-1,0-1.7,0.7-1.9,1.7l-12.5,70.5
		c-5.6,31.4,10.4,48,39.4,48c27.8,0,45-12.5,51.1-46.9l3.7-20.7h0L366.1,196.6z"/>
</g>
<path class="st1" d="M290.6-73.2c-0.2-1.1-0.3-2.4-0.4-3.6c0-0.4-0.1-0.9-0.1-1.3c0,0,0-0.1,0-0.1l0,0c0-0.1,0-0.1,0-0.2
	c0-1.4,0.2-2.8,0.4-4.1c0.2-0.8,0.4-1.6,0.7-2.5c0.2-0.5,0.3-1,0.5-1.5c0.4-1.1,0.9-2.1,1.5-3.1c0.1-0.2,0.2-0.4,0.3-0.5
	c0.7-1.2,1.5-2.2,2.3-3.3c-1.1-1-2.1-2.1-3.4-2.9c-0.3-0.2-0.7-0.4-1.1-0.6c-1.4-0.8-2.9-1.5-4.5-2c-2.2-0.7-4.5-1.2-6.8-1.2
	c-12.1,0-22,9.8-22,21.8c0,7.3,3.7,14.1,9.7,18.1c2-1.9,4.3-3.4,6.7-4.7c3.9-2.3,8.4-3.6,13.3-3.6c1.6,0,3.2,0.2,4.7,0.5
	c-0.1-0.1-0.1-0.3-0.2-0.4c-0.4-0.9-0.7-1.9-1-2.9C291-72,290.7-72.6,290.6-73.2z"/>
<path class="st1" d="M347.7-100.1c-2.4,0-4.6,0.5-6.8,1.2c-1.6,0.6-3.1,1.2-4.5,2c-0.3,0.2-0.7,0.3-1.1,0.6
	c-1.2,0.8-2.3,1.9-3.4,2.9c0.3,0.3,0.5,0.7,0.7,1c0.4,0.5,0.8,1,1.1,1.5c0.6,1,1.2,2,1.7,3.1c0.1,0.2,0.2,0.3,0.2,0.5
	c1.2,2.9,1.9,6,1.9,9.2c0,3.5-0.8,6.9-2.3,10c1.5-0.3,3.1-0.5,4.7-0.5c3.8,0,7.4,0.8,10.7,2.3c3.5,1.4,6.6,3.4,9.3,6.1
	c6-4,9.7-10.8,9.7-18.1C369.8-90.3,359.9-100.1,347.7-100.1z"/>
<path class="st1" d="M328.4-96.6c0.7-0.6,1.4-1.1,2.1-1.7c0.4-0.4,0.9-0.7,1.4-1.1c0.9-0.6,1.9-1.2,2.9-1.8c0.9-0.5,1.8-1,2.8-1.4
	c0.5-0.2,1-0.6,1.6-0.8c-1.6-11.5-12.6-20.5-25.4-20.5c-12.8,0-23.8,9.1-25.4,20.5c0.6,0.2,1.1,0.6,1.6,0.8c0.9,0.4,1.8,0.8,2.7,1.3
	c1,0.5,1.9,1.1,2.9,1.8c0.5,0.4,1,0.8,1.4,1.2c0.7,0.5,1.4,1,2,1.6c4-3.2,9.1-5.2,14.6-5.2C319.3-101.8,324.4-99.8,328.4-96.6z"/>
<path class="st1" d="M265.5-42c0,2.1,0.3,4.1,0.8,6c3.4-1.4,7-2.1,10.8-2.1c9.8,0,19,5.2,24.1,13.4c5.4-4.2,8.5-10.5,8.5-17.3
	c0-8.9-5.5-16.6-13.2-20c-6.5-2.6-14.2-2-20.5,1.4C269.7-56.7,265.5-49.9,265.5-42z"/>
<path class="st1" d="M317.9-42c0,6.8,3.2,13.1,8.5,17.3c5.1-8.2,14.3-13.4,24.1-13.4c3.8,0,7.4,0.7,10.8,2.1c0.6-2,0.8-4,0.8-6
	c0-7.9-4.3-14.8-10.6-18.6c-6.2-3.4-13.9-4-20.4-1.4C323.3-58.7,317.9-51,317.9-42z"/>
<path class="st2" d="M316.5-58.9c9.2-1.4,16.5-9.3,16.5-18.9c0-1-0.3-2-0.5-3h-16V-58.9z"/>
<path class="st2" d="M295-80.8c-0.1,1-0.3,2.1-0.3,3c0,9.5,7.2,17.4,16.4,18.9v-21.9H295z"/>
<path class="st2" d="M311.1-96.7c-6.3,1-11.6,4.9-14.3,10.4h14.3V-96.7z"/>
<path class="st2" d="M330.8-86.2c-2.8-5.5-8-9.5-14.3-10.4v10.4H330.8z"/>
</svg>
