<?xml version="1.0" encoding="utf-8"?>
<!-- Generator: Adobe Illustrator 27.6.1, SVG Export Plug-In . SVG Version: 6.00 Build 0)  -->
<svg version="1.1" xmlns="http://www.w3.org/2000/svg" xmlns:xlink="http://www.w3.org/1999/xlink" x="0px" y="0px"
	 viewBox="0 0 2000 2000" style="enable-background:new 0 0 2000 2000;" xml:space="preserve">
<style type="text/css">
	.st0{fill:#FFFFFF;}
	.st1{fill-rule:evenodd;clip-rule:evenodd;fill:#FFFFFF;}
</style>
<g id="BG">
</g>
<g id="LOGO">
	<g id="Escola_luterana">
		<path class="st0" d="M139.5,1280.8l2.6-12.2h2.6c4.6,0,8.7-0.9,12.2-2.7c3.5-1.8,5.9-5.8,7.2-11.8l24.6-114.8
			c0.8-3.5,1.2-6.1,1.2-7.9c0-3.7-1.4-6-4.1-7.2c-2.7-1.1-6.2-1.7-10.5-1.7h-2.6l2.6-12.2h113.3l-8.6,43.9h-15.3
			c0.2-0.6,0.4-2,0.6-4.2c0.2-2.1,0.5-4.3,0.7-6.4c0.2-2.1,0.4-3.5,0.4-4.2c0-4.1-1.1-7.7-3.3-10.6c-2.2-2.9-5.9-4.4-11-4.4h-26.7
			l-12.4,60.4h46.3l-2.9,13.8h-46.8l-14.3,68h32c6.5,0,11.7-1.9,15.5-5.8c3.8-3.9,6.6-8.5,8.3-13.7l3.6-10.3H270l-10.7,43.9H139.5z"
			/>
		<path class="st0" d="M317.9,1283.2c-11.8,0-21.2-2.3-28.4-6.8c-7.2-4.5-10.7-10.8-10.7-18.7c0-4.9,1.2-8.9,3.6-11.8
			c2.4-2.9,5.4-5.1,9.2-6.4c3.7-1.3,7.6-2,11.6-2c-0.2,5.7,0.4,11,1.6,15.9c1.2,4.9,3.2,8.7,6.1,11.7c2.9,2.9,6.7,4.4,11.5,4.4
			c5.9,0,10.6-1.7,14.2-5.1c3.6-3.4,5.4-8.1,5.4-14.2c0-5.4-1.8-9.7-5.2-12.9c-3.5-3.2-8.8-6.7-16-10.5c-8.4-4.6-15.1-9.7-19.9-15.3
			c-4.9-5.6-7.3-12.8-7.3-21.7c0-11.9,4.4-21.4,13.1-28.5c8.7-7.1,20.6-10.6,35.5-10.6c9.4,0,16.9,1,22.5,3.1
			c5.6,2.1,9.7,4.8,12,8.2c2.4,3.4,3.6,7,3.6,10.9c0,6.2-2.3,10.7-6.9,13.5c-4.6,2.8-10.9,4.2-18.8,4.2c0.2-4.3-0.2-8.5-1-12.5
			c-0.8-4.1-2.3-7.4-4.7-10.1c-2.3-2.7-5.5-4.1-9.7-4.1c-5.1,0-9.1,1.6-12.2,4.7c-3,3.1-4.6,6.9-4.8,11.3c-0.3,5.1,1.4,9.4,5.1,13
			c3.7,3.6,9.2,7.2,16.3,10.9c9.4,4.9,16.2,10.2,20.4,15.9c4.2,5.6,6.3,12.7,6.3,21.1c0,13.2-4.4,23.6-13.1,31.3
			C348.5,1279.4,335.4,1283.2,317.9,1283.2z"/>
		<path class="st0" d="M435.3,1283.2c-8.4,0-16.1-1.8-23-5.2c-6.9-3.5-12.4-8.7-16.5-15.7c-4.1-7-6.1-15.8-6.1-26.5
			c0-8.9,1.6-18.3,4.7-28.2c3.1-9.9,7.7-19.1,13.7-27.8c6-8.7,13.5-15.7,22.3-21.1c8.8-5.4,19-8.1,30.7-8.1
			c11.3,0,19.5,2.4,24.7,7.2c5.2,4.8,7.8,10.4,7.8,16.9c0,5.1-2,9.7-6.1,13.8c-4.1,4.1-10.9,6.2-20.6,6.2c0.2-8.3-0.9-15.4-3.2-21.5
			c-2.3-6-5.9-9.1-10.9-9.1c-4.1,0-8,2.3-11.6,6.8c-3.6,4.5-6.8,10.4-9.5,17.5c-2.8,7.2-5,14.8-6.6,22.9c-1.6,8.1-2.4,15.8-2.4,23.1
			c0,10,1.9,17.7,5.6,23c3.7,5.3,9.3,8,16.6,8c7.3,0,13.2-2,17.8-6c4.5-4,8.3-8.3,11.3-12.9c0.8,0.8,1.5,2,2.1,3.6
			c0.6,1.6,1,3.4,1,5.5c0,4-1.5,8.1-4.5,12.3c-3,4.2-7.6,7.8-13.7,10.7C452.7,1281.7,444.8,1283.2,435.3,1283.2z"/>
		<path class="st0" d="M540.5,1283.2c-12.7,0-23.1-4-31-11.9c-8-8-11.9-19.9-11.9-35.8c0-9.1,1.5-18.5,4.4-28.4
			c2.9-9.9,7.4-19.1,13.2-27.7c5.9-8.6,13.3-15.5,22.2-20.9c8.9-5.3,19.3-8,31.3-8c7.8,0,14.9,1.6,21.2,4.9
			c6.4,3.3,11.5,8.4,15.3,15.4c3.8,7,5.7,16.1,5.7,27.4c0,6.8-0.9,14.2-2.6,21.9c-1.8,7.8-4.5,15.4-8.1,22.9
			c-3.7,7.5-8.3,14.2-14,20.3c-5.6,6-12.2,10.9-19.8,14.4C558.8,1281.4,550.2,1283.2,540.5,1283.2z M544.8,1267
			c4.5,0,8.5-1.8,12.2-5.4c3.7-3.6,6.8-8.2,9.5-14c2.7-5.7,5-12,6.8-18.8c1.8-6.8,3.2-13.6,4.1-20.2c0.9-6.6,1.3-12.4,1.3-17.5
			c0-8.9-1.3-15.3-3.9-19.3c-2.6-4-6.2-6-10.6-6c-4.1,0-8,1.7-11.6,5.1c-3.6,3.4-6.7,8-9.4,13.6c-2.7,5.6-5,11.8-6.9,18.5
			c-1.9,6.7-3.4,13.4-4.4,20.2c-1,6.8-1.6,12.9-1.6,18.5c0,9.1,1.3,15.5,3.9,19.4C536.8,1265,540.4,1267,544.8,1267z"/>
		<path class="st0" d="M651.2,1283.2c-8.3,0-14.5-2.2-18.7-6.6c-4.2-4.4-6.3-10.1-6.3-17.1c0-4,0.5-8.9,1.6-14.9
			c1-6,2.3-13.1,3.9-21.4l19.3-91.1c1.3-4.8,1.9-8.9,1.9-12.4c0-3.2-0.9-5.3-2.6-6.4c-1.8-1.1-4.3-1.7-7.6-1.7h-4.5l2.4-12.2h51.3
			l-28.4,130.7c-1,4.5-1.8,8.8-2.5,13.1c-0.7,4.3-1.1,8.1-1.1,11.5c0,6.8,2.3,10.3,6.9,10.3c1.9,0,3.8-0.5,5.6-1.6
			c1.8-1,3.9-2.4,6.3-4.2l5,7.9c-3.5,3.8-7.8,7.4-12.8,10.9C665.9,1281.5,659.3,1283.2,651.2,1283.2z"/>
		<path class="st0" d="M724.7,1283.2c-9.4,0-16.5-3.9-21.4-11.7c-4.9-7.8-7.3-17.5-7.3-29.1c0-7.5,1-15.4,2.9-23.9
			c1.9-8.4,4.7-16.7,8.5-24.7c3.7-8,8.4-15.3,13.8-21.8c5.5-6.5,11.8-11.7,19-15.6c7.2-3.9,15-5.8,23.6-5.8c5.6,0,11.1,0.9,16.7,2.6
			c5.6,1.8,9.9,3.7,12.9,5.7l11.5-5.7h11.7l-15.7,74.7c-0.3,1.9-0.9,4.5-1.7,7.8c-0.8,3.3-1.5,6.6-2,10c-0.6,3.4-0.8,6.2-0.8,8.5
			c0,7.3,2.4,11,7.2,11c1.9,0,3.7-0.4,5.4-1.3c1.7-0.9,3.5-2.1,5.6-3.7l4.3,9.1c-3.7,3-8.1,6.1-13.4,9.3c-5.2,3.2-11.9,4.8-19.8,4.8
			c-6,0-10.9-1.6-14.7-4.9c-3.7-3.3-5.6-8-5.6-14.2c0-2.5,0.2-5,0.5-7.3c0.3-2.3,0.7-4.8,1.2-7.5h-1.2
			c-5.1,10.8-10.6,19.2-16.6,25.1C743.2,1280.3,735,1283.2,724.7,1283.2z M739,1265.1c3,0,6.1-1.5,9.3-4.5c3.2-3,6.2-7.1,9.2-12.3
			c2.9-5.2,5.6-10.9,8-17.2c2.4-6.3,4.2-12.6,5.5-19l8.4-39.8c-1.3-2.4-3-4.2-5.2-5.4c-2.2-1.2-4.7-1.8-7.4-1.8
			c-4.8,0-9.1,1.8-13.1,5.4c-4,3.6-7.5,8.3-10.6,14.1c-3.1,5.8-5.7,12.2-7.8,19.1c-2.1,6.9-3.7,13.8-4.8,20.6
			c-1.1,6.8-1.7,13-1.7,18.4c0,8.3,1,14.1,3,17.4C733.7,1263.4,736.1,1265.1,739,1265.1z"/>
		<path class="st0" d="M870.7,1280.8l2.6-12.2h2.6c4.3,0,8.3-0.8,11.9-2.5c3.7-1.7,6.2-5.8,7.6-12.3l24.1-114.8
			c0.3-2.1,0.6-3.8,1-5.1c0.3-1.3,0.5-2.4,0.5-3.2c0-3.5-1.4-5.7-4.1-6.7c-2.7-1-6.2-1.4-10.5-1.4h-2.9l2.9-12.2h72.8l-2.6,12.2
			h-2.9c-4.5,0-8.6,0.8-12.3,2.5c-3.7,1.7-6.3,5.8-7.8,12.3L927,1266.8h33.6c7.6,0,13.5-2.1,17.5-6.3c4.1-4.2,7.4-10.5,10.1-18.7
			l4.3-13.8h13.4l-12.9,53H870.7z"/>
		<path class="st0" d="M1114.3,1283.2c-9.4,0-15.8-2.1-19.2-6.3c-3.4-4.2-5.1-9.3-5.1-15.1c0-1.3,0.1-2.7,0.4-4.3
			c0.2-1.6,0.4-3.1,0.6-4.5h-1.4c-6.4,9.4-12.7,16.7-19,22.1c-6.3,5.3-14.4,8-24.2,8c-8.6,0-14.6-2.5-17.9-7.5c-3.3-5-5-10.9-5-17.8
			c0-4.1,0.5-8.7,1.4-13.7c1-5,1.8-9.6,2.6-13.7l8.6-42c0.8-3.5,1.4-6.6,1.9-9.2c0.5-2.6,0.7-4.8,0.7-6.6c0-2.9-0.8-4.8-2.5-5.8
			c-1.7-1-4.4-1.6-8.2-1.6h-3.8l2.6-12.2h50.1l-15.3,71.3c-1,4.5-1.9,9.2-2.7,14.3c-0.9,5.1-1.3,9.2-1.3,12.4c0,3.3,0.7,6.1,2,8.2
			c1.4,2.1,3.5,3.2,6.6,3.2c2.9,0,5.9-1.5,9.1-4.5c3.2-3,6.2-7.1,9.1-12.2c2.9-5.1,5.5-10.7,7.9-16.8c2.4-6.1,4.2-12.3,5.5-18.5
			l12.4-57.5h32.9l-16.7,79c-0.8,4-1.5,7.9-2.1,11.7c-0.6,3.8-1,7.6-1,11.2c0,6.8,2.4,10.3,7.2,10.3c2.2,0,4.2-0.5,6-1.4
			c1.7-1,3.8-2.4,6.2-4.3l4.8,7.9c-3.5,4-7.8,7.6-13,11C1129,1281.5,1122.4,1283.2,1114.3,1283.2z"/>
		<path class="st0" d="M1188.9,1283.2c-7.6,0-14-2.2-19.2-6.6c-5.2-4.4-7.8-10.9-7.8-19.4c0-3.2,0.3-6.9,0.8-11.1
			c0.6-4.2,1.2-7.8,2-10.9l14.3-66.6h-16l2.6-11.7c5.9,0,12.9-2.5,21.1-7.5c8.2-5,15.9-13.6,23-25.9h12.2l-6.2,29.3h25.1l-3.3,15.7
			h-25.3l-14.1,65.4c-0.8,3.8-1.4,7.3-1.9,10.5c-0.5,3.2-0.7,6-0.7,8.6c0,3.7,0.9,6.5,2.6,8.5c1.7,2,4.1,3,7.2,3
			c3,0,5.9-0.6,8.7-1.8c2.8-1.2,5.4-2.6,7.8-4.2l4.5,8.8c-4.8,4.5-10.1,8.2-16.1,11.2C1204.3,1281.7,1197.2,1283.2,1188.9,1283.2z"
			/>
		<path class="st0" d="M1288.2,1283.2c-8.4,0-16.1-1.7-22.9-5.1c-6.8-3.4-12.3-8.7-16.5-15.7c-4.1-7.1-6.2-15.9-6.2-26.6
			c0-8.9,1.6-18.3,4.8-28.3c3.2-9.9,7.9-19.2,14.2-27.8c6.3-8.6,14-15.6,23.1-21c9.1-5.4,19.6-8.1,31.4-8.1c9.9,0,17.5,2.4,22.9,7.2
			c5.4,4.8,8.1,11.4,8.1,19.8c0,8.7-2.7,16.9-8.2,24.3c-5.5,7.5-13,13.5-22.4,18.1c-9.5,4.6-20.2,6.9-32.3,6.9h-7.9
			c-0.3,1.6-0.6,3.3-0.7,5.1c-0.2,1.8-0.2,3.8-0.2,5.8c0,8.9,1.8,15.7,5.5,20.5c3.7,4.8,9.1,7.2,16.2,7.2c6.8,0,13-2,18.4-6
			c5.4-4,9.6-8.3,12.6-12.9c1.6,1.9,2.4,4.7,2.4,8.4c0,4-1.5,8.2-4.5,12.5c-3,4.4-7.6,8.1-13.8,11.1
			C1305.8,1281.7,1297.9,1283.2,1288.2,1283.2z M1277.7,1213.8h2.1c6.7,0,12.8-1.5,18.4-4.4c5.6-2.9,10-7,13.2-12.3
			c3.3-5.2,4.9-11.3,4.9-18.1c0-4.6-0.8-8.3-2.5-11c-1.7-2.7-4-4.1-7-4.1c-4.3,0-8.4,2.5-12.4,7.6c-4,5.1-7.4,11.5-10.4,19.1
			C1281.1,1198.3,1279,1206,1277.7,1213.8z"/>
		<path class="st0" d="M1350,1280.8l19.8-93c0.6-2.5,1.2-5.2,1.6-7.9c0.4-2.7,0.6-5.2,0.6-7.4c0-2.9-0.9-4.8-2.6-5.8
			c-1.8-1-4.1-1.6-7.2-1.6h-4.3l2.1-12.2h47l-4.5,29.3h1.2c5.1-9.9,10.4-17.6,15.9-23.3c5.5-5.6,12.8-8.5,21.8-8.5
			c7.5,0,13,1.6,16.6,4.8c3.6,3.2,5.4,7.6,5.4,13.4c0,7.6-2.3,13.4-6.8,17.4c-4.5,4-10.9,6-19.2,6c0.2-7-0.4-12.5-1.8-16.6
			c-1.4-4.1-3.8-6.1-7.3-6.1c-3.2,0-6.5,1.9-9.9,5.7c-3.4,3.8-6.8,9-10.1,15.6c-3.3,6.6-6.4,14.1-9.3,22.4c-2.9,8.4-5.2,17-7.2,25.9
			l-9.1,41.8H1350z"/>
		<path class="st0" d="M1489.3,1283.2c-9.4,0-16.5-3.9-21.4-11.7c-4.9-7.8-7.3-17.5-7.3-29.1c0-7.5,1-15.4,2.9-23.9
			c1.9-8.4,4.7-16.7,8.5-24.7c3.7-8,8.3-15.3,13.8-21.8c5.5-6.5,11.8-11.7,19-15.6c7.2-3.9,15-5.8,23.6-5.8c5.6,0,11.1,0.9,16.7,2.6
			c5.6,1.8,9.9,3.7,12.9,5.7l11.5-5.7h11.7l-15.7,74.7c-0.3,1.9-0.9,4.5-1.7,7.8c-0.8,3.3-1.5,6.6-2,10c-0.6,3.4-0.8,6.2-0.8,8.5
			c0,7.3,2.4,11,7.2,11c1.9,0,3.7-0.4,5.4-1.3c1.7-0.9,3.5-2.1,5.6-3.7l4.3,9.1c-3.7,3-8.1,6.1-13.4,9.3c-5.2,3.2-11.9,4.8-19.8,4.8
			c-6,0-10.9-1.6-14.7-4.9c-3.7-3.3-5.6-8-5.6-14.2c0-2.5,0.2-5,0.5-7.3c0.3-2.3,0.7-4.8,1.2-7.5h-1.2
			c-5.1,10.8-10.6,19.2-16.6,25.1C1507.8,1280.3,1499.6,1283.2,1489.3,1283.2z M1503.6,1265.1c3,0,6.1-1.5,9.3-4.5
			c3.2-3,6.2-7.1,9.2-12.3c2.9-5.2,5.6-10.9,8-17.2c2.4-6.3,4.2-12.6,5.5-19l8.3-39.8c-1.3-2.4-3-4.2-5.2-5.4
			c-2.2-1.2-4.7-1.8-7.4-1.8c-4.8,0-9.1,1.8-13.1,5.4c-4,3.6-7.5,8.3-10.6,14.1c-3.1,5.8-5.7,12.2-7.8,19.1
			c-2.1,6.9-3.7,13.8-4.8,20.6c-1.1,6.8-1.7,13-1.7,18.4c0,8.3,1,14.1,3,17.4C1498.3,1263.4,1500.8,1265.1,1503.6,1265.1z"/>
		<path class="st0" d="M1693.8,1283.2c-8.1,0-14.3-2.3-18.5-6.8c-4.2-4.5-6.2-10.6-6.1-18.3c0-6.4,1.3-15.8,3.8-28.4l4.1-19.1
			c0.5-2.1,1.1-4.8,1.8-8.2c0.7-3.4,1.3-6.9,1.8-10.4c0.5-3.5,0.7-6.6,0.7-9.3c0-3-0.5-5.9-1.4-8.6c-1-2.7-3-4.1-6.2-4.1
			c-3.5,0-7,1.9-10.4,5.7c-3.4,3.8-6.6,8.7-9.7,14.6c-3,5.9-5.7,12-8,18.4c-2.3,6.4-3.9,12.1-4.9,17.2l-11.9,54.9h-32.7l20-95.2
			c0.5-2.1,0.9-4.3,1.3-6.7c0.4-2.4,0.6-4.4,0.6-6c0-3.2-0.8-5.3-2.5-6.3c-1.7-1-4.3-1.6-7.8-1.6h-4.1l2.4-12.2h46.5l-2.1,23.9h1
			c5.9-8.9,11.9-15.5,18.1-19.7c6.2-4.2,13.7-6.3,22.4-6.3c8.9,0,15.1,2.6,18.6,7.8c3.5,5.2,5.2,11.2,5.2,18c0,4.1-0.5,8.9-1.6,14.2
			c-1,5.3-2,10.1-3,14.4l-5.2,25.5c-1,4.6-1.8,9-2.4,13.1c-0.6,4.1-1,7.8-1,11c0,6.8,2.2,10.3,6.7,10.3c2.1,0,4.1-0.5,6-1.4
			c1.9-1,4.1-2.4,6.4-4.3l4.8,8.1c-3.3,3.8-7.7,7.4-13,10.7C1708.3,1281.5,1701.7,1283.2,1693.8,1283.2z"/>
		<path class="st0" d="M1766.5,1283.2c-9.4,0-16.5-3.9-21.4-11.7c-4.9-7.8-7.3-17.5-7.3-29.1c0-7.5,1-15.4,2.9-23.9
			c1.9-8.4,4.7-16.7,8.5-24.7c3.7-8,8.3-15.3,13.8-21.8c5.5-6.5,11.8-11.7,19-15.6c7.2-3.9,15-5.8,23.6-5.8c5.6,0,11.1,0.9,16.7,2.6
			c5.6,1.8,9.9,3.7,12.9,5.7l11.5-5.7h11.7l-15.7,74.7c-0.3,1.9-0.9,4.5-1.7,7.8c-0.8,3.3-1.5,6.6-2,10c-0.6,3.4-0.8,6.2-0.8,8.5
			c0,7.3,2.4,11,7.2,11c1.9,0,3.7-0.4,5.4-1.3c1.7-0.9,3.5-2.1,5.6-3.7l4.3,9.1c-3.7,3-8.1,6.1-13.4,9.3c-5.2,3.2-11.9,4.8-19.8,4.8
			c-6,0-10.9-1.6-14.7-4.9c-3.7-3.3-5.6-8-5.6-14.2c0-2.5,0.2-5,0.5-7.3c0.3-2.3,0.7-4.8,1.2-7.5h-1.2
			c-5.1,10.8-10.6,19.2-16.6,25.1C1785,1280.3,1776.9,1283.2,1766.5,1283.2z M1780.8,1265.1c3,0,6.1-1.5,9.3-4.5
			c3.2-3,6.2-7.1,9.2-12.3c2.9-5.2,5.6-10.9,8-17.2c2.4-6.3,4.2-12.6,5.5-19l8.3-39.8c-1.3-2.4-3-4.2-5.2-5.4
			c-2.2-1.2-4.7-1.8-7.4-1.8c-4.8,0-9.1,1.8-13.1,5.4c-4,3.6-7.5,8.3-10.6,14.1c-3.1,5.8-5.7,12.2-7.8,19.1
			c-2.1,6.9-3.7,13.8-4.8,20.6c-1.1,6.8-1.7,13-1.7,18.4c0,8.3,1,14.1,3,17.4C1775.5,1263.4,1778,1265.1,1780.8,1265.1z"/>
	</g>
	<g id="Pro_renate">
		<g>
			<path class="st0" d="M1153.3,1302.9c11.3,0,18.1,5.8,18.1,15.6c0,9.7-6.8,15.6-18.1,15.6h-8.2v16.4h-7.5v-47.6H1153.3z
				 M1153.2,1327c6.7,0,10.4-3.2,10.4-8.5c0-5.5-3.9-8.5-10.4-8.5h-8.1v17H1153.2z"/>
			<path class="st0" d="M1206.2,1350.5l-10.1-17.1c-0.5,0.1-1,0.1-1.5,0.1h-8v17h-7.5v-47.6h15.6c11.4,0,18.3,6,18.3,15.4
				c0,6.7-3.5,11.5-9.5,13.7l11.3,18.4H1206.2z M1195.5,1326.8c6.5,0,9.6-3.8,9.6-8.5c0-4.9-3.4-8.4-9.6-8.4h-8.9v16.9H1195.5z"/>
			<path class="st0" d="M1243.3,1302c13.7,0,24.7,10.4,24.7,24.7s-11.1,24.7-24.7,24.7c-13.7,0-24.7-10.4-24.7-24.7
				S1229.7,1302,1243.3,1302z M1243.3,1344c9.7,0,16.9-7.1,16.9-17.3c0-10.4-7.2-17.3-16.9-17.3c-9.8,0-16.9,6.9-16.9,17.3
				C1226.4,1337,1233.5,1344,1243.3,1344z"/>
			<path class="st0" d="M1284,1310v13.8h19.4v6.8H1284v19.9h-7.5v-47.6h32v7.1H1284z"/>
			<path class="st0" d="M1334.2,1329.3v4.8h-21.6v-4.8H1334.2z M1317.5,1325h-4.9l8.6-22.6h4.1l8.6,22.6h-4.9l-1.6-4.7h-8.4
				L1317.5,1325z M1320.5,1316.6h5.6l-1.5-4.3c-0.8-2.7-1.2-5.4-1.3-5.4h-0.1c-0.1,0-0.5,2.7-1.3,5.4L1320.5,1316.6z"/>
			<path class="st0" d="M1339.9,1347.3c0-2.2,1.8-3.9,4-3.9c2.2,0,4,1.8,4,3.9c0,2.3-1.8,4.1-4,4.1
				C1341.7,1351.4,1339.9,1349.5,1339.9,1347.3z"/>
			<path class="st0" d="M1402.8,1350.5l-10.1-17.1c-0.5,0.1-1,0.1-1.5,0.1h-8v17h-7.5v-47.6h15.6c11.4,0,18.3,6,18.3,15.4
				c0,6.7-3.5,11.5-9.5,13.7l11.3,18.4H1402.8z M1392.1,1326.8c6.5,0,9.6-3.8,9.6-8.5c0-4.9-3.4-8.4-9.6-8.4h-8.9v16.9H1392.1z"/>
			<path class="st0" d="M1453.4,1343.4v7.1h-33.1v-47.6h32.7v7.1h-25.1v12.4h20v6.7h-20v14.4H1453.4z"/>
			<path class="st0" d="M1504.3,1302.9v47.6h-7.1l-17.3-23.4c-4.2-5.8-8.3-11.7-8.4-11.7h-0.1c-0.1,0,0.1,6.4,0.1,14.9v20.2h-7.5
				v-47.6h7.1l17.5,23.4c3.4,4.6,8.2,11.3,8.2,11.3h0.1c0.1,0-0.1-7-0.1-14.5v-20.3H1504.3z"/>
			<path class="st0" d="M1545.2,1339.7H1523l-4.4,10.8h-8.1l20.1-47.6h7l20.1,47.6h-8.1L1545.2,1339.7z M1542.5,1333.1l-6.1-14.9
				c-1-2.6-2.2-6.2-2.2-6.2h-0.1c-0.1,0-1.2,3.6-2.2,6.2l-6.1,14.9H1542.5z"/>
			<path class="st0" d="M1592.8,1302.9v7.1h-15.4v40.5h-7.5V1310h-15.4v-7.1H1592.8z"/>
			<path class="st0" d="M1633.5,1343.4v7.1h-33.1v-47.6h32.7v7.1h-25.1v12.4h20v6.7h-20v14.4H1633.5z"/>
			<path class="st0" d="M1688.7,1350.5l-10.1-17.1c-0.5,0.1-1,0.1-1.5,0.1h-8v17h-7.5v-47.6h15.6c11.4,0,18.3,6,18.3,15.4
				c0,6.7-3.5,11.5-9.5,13.7l11.3,18.4H1688.7z M1678,1326.8c6.5,0,9.6-3.8,9.6-8.5c0-4.9-3.4-8.4-9.6-8.4h-8.9v16.9H1678z"/>
			<path class="st0" d="M1706.1,1350.5v-47.6h7.5v47.6H1706.1z"/>
			<path class="st0" d="M1759.1,1343.4v7.1H1726v-47.6h32.7v7.1h-25.1v12.4h20v6.7h-20v14.4H1759.1z"/>
			<path class="st0" d="M1790,1302.9c13.6,0,24.7,9.7,24.7,24c0,14.1-10.9,23.6-24.3,23.6h-20.6v-47.6H1790z M1790.4,1343.4
				c8.8,0,16.5-6.2,16.5-16.5c0-10.4-7.7-16.9-16.9-16.9h-12.7v33.4H1790.4z"/>
			<path class="st0" d="M1856.3,1343.4v7.1h-33.1v-47.6h32.7v7.1h-25.1v12.4h20v6.7h-20v14.4H1856.3z"/>
		</g>
	</g>
	<g id="SIMBOLO">
		<g>
			<path class="st0" d="M1014.1,904.6c40.3-6.3,71.8-40.7,71.8-82.4c0-4.2-1.1-8.7-2-13.2h-69.8V904.6z"/>
			<path class="st0" d="M920.7,809c-0.6,4.5-1.5,9-1.5,13.2c0,41.6,31.3,75.9,71.4,82.3V809H920.7z"/>
			<path class="st0" d="M990.6,740c-27.5,4.3-50.5,21.6-62.2,45.4h62.2V740z"/>
			<path class="st0" d="M1076.4,785.4c-12-23.9-34.9-41.2-62.2-45.5v45.5H1076.4z"/>
		</g>
		<path class="st1" d="M902.9,821.5c0-25.1,9.3-47.9,24.6-65.4c-2.9-8.3-12.9-34.2-33.8-60.9c-20.8-26.7-39.9-23.7-52,7.6
			c-20.4,52.5-24.4,67-32.1,98c-3.4,13.8-15.8,42.6,12.3,53.9c24.7,9.9,70.9-17.1,81.5-23.6C903,827.9,902.9,824.7,902.9,821.5z"/>
		<path class="st1" d="M1101,821.5c0-25.1-9.3-47.9-24.6-65.4c2.9-8.3,12.9-34.2,33.8-60.9c20.8-26.7,39.9-23.7,52,7.6
			c20.4,52.5,24.4,67,32.1,98c3.4,13.8,15.8,42.6-12.3,53.9c-24.7,9.9-70.9-17.1-81.5-23.6C1100.8,827.9,1101,824.7,1101,821.5z"/>
		<path class="st1" d="M911,861c-94.8,10.2-89.1,39.3-76.9,52.6c13.6,14.7,108.6,99.6,142.4,89.9c28.9-8.3,10-67.8,3.9-84.9
			C949.2,911.5,923.5,889.8,911,861z"/>
		<path class="st1" d="M1095.3,861c94.8,10.2,89.1,39.3,76.9,52.6c-13.6,14.7-108.6,99.6-142.4,89.9c-28.9-8.3-10-67.8-3.9-84.9
			C1057.1,911.5,1082.8,889.8,1095.3,861z"/>
		<path class="st1" d="M1072.6,649.6c-18.1,0.4-106.5,0.1-141.1,0c-18.3-0.1-40.7,1.9-31.9,26.5c8,22.2,44.4,53.3,54.7,58.2
			c14.2-7.8,30.4-12.3,47.7-12.3c17.3,0,33.6,4.5,47.7,12.3c10.3-4.9,46.7-36.1,54.7-58.2C1113.3,651.5,1090.9,649.2,1072.6,649.6z"
			/>
	</g>
</g>
</svg>
